<svg id="Layer_1" data-name="Layer 1" xmlns="http://www.w3.org/2000/svg" viewBox="0 0 432.18 263.62"><defs><style>.cls-1{fill:#231f20;}</style></defs><title>Artboard 11</title><path class="cls-1" d="M206.65,51.54V137c0,5.75,8.94,5.76,8.94,0V51.54c0-5.75-8.94-5.75-8.94,0Z"/><path class="cls-1" d="M190,120a158.75,158.75,0,0,1,42.09,1.9c4.94.9,7-6.66,2.09-7.56A166.5,166.5,0,0,0,190,112.2c-5,.43-5,8.27,0,7.84Z"/><path class="cls-1" d="M230.35,116.61l-19.89,34.55,6.16-.79A189.12,189.12,0,0,1,192.15,118c-2.6-4.32-9.39-.38-6.77,4a199.36,199.36,0,0,0,25.69,33.92,4,4,0,0,0,6.16-.8l19.89-34.56c2.52-4.38-4.25-8.33-6.77-4Z"/><path class="cls-1" d="M189.17,122.73l17.37.55,7.72.24c2,.07,8.13-.71,9.66.89l1.73-6.56c-7.51,1.63-10.24,8.52-12.59,15-.54,1.48-1.46,5-3,5.88,2.32-1.25-1.72-3.42-2.79-4.46A73.89,73.89,0,0,1,198,123.41l-3.39,5.9,19.35-.22-2.77-6.69a53.65,53.65,0,0,1-7.14,5.62c-4.2,2.77-.28,9.56,3.95,6.78a65.83,65.83,0,0,0,8.74-6.86c2.49-2.33.56-6.73-2.78-6.69l-19.35.21c-2.77,0-5.14,3.39-3.38,5.91a85,85,0,0,0,10.47,12.48c2.6,2.51,6.21,6.86,10.27,6.4,10.05-1.16,6.46-18.82,15.76-20.83,3-.65,3.66-4.53,1.73-6.56-4.14-4.34-11.68-3.07-17.14-3.24l-23.16-.73c-5-.16-5,7.68,0,7.84Z"/><path class="cls-1" d="M222.1,132.34c5.05,0,5.06-7.85,0-7.85s-5,7.85,0,7.85Z"/><path class="cls-1" d="M190.12,113a6.75,6.75,0,0,0-7,1.8c-1.38,1.41-1.64,4.18,0,5.55a30.93,30.93,0,0,0,17.07,7.18c5,.52,5-7.33,0-7.85a21.45,21.45,0,0,1-11.52-4.88v5.55l-.6.22c4.82,1.55,6.88-6,2.09-7.57Z"/></svg>