
<svg width="167px" height="169px" viewBox="0 0 167 169" version="1.1" xmlns="http://www.w3.org/2000/svg" xmlns:xlink="http://www.w3.org/1999/xlink">
    <g id="Page-1" stroke="none" stroke-width="1" fill="none" fill-rule="evenodd">
        <g id="revised-images" transform="translate(-186.000000, -5.000000)">
            <g id="beaker" transform="translate(186.000000, 5.000000)">
                <path d="M60,97.62 C60,88.91 55,81.46 46.5,78.98 L42.11,111.43 C48.78,112.14 55.11,110.24 61.7,109.43 C60.05,109.62 62.7,109.43 62.96,109.43 C64.54,109.35 66.12,109.28 67.7,109.29 C68.97,109.29 70.23,109.29 71.5,109.41 C71.84,109.41 75.45,109.82 73.7,109.56 C79.59,110.42 85.2,112.33 91.2,112.56 C96.92,112.79 102.58,112.13 108.34,112.56 L103.94,80.1 C90,84.49 88.48,97.37 88,110 C87.51,124.09 106.57,132.1 116.21,121.68 C119.825766,117.896941 122.495143,113.312055 124,108.3 L92.14,99.52 C90.96,104.91 89.83,110.31 88.59,115.69 C88.06,117.96 87.47,120.21 86.74,122.43 C86.29,123.78 85.74,124.04 86.63,122.71 C86.4,123.07 83.77,126.64 85.76,124.35 L111.76,127.69 C109.493344,122.630862 106.901247,117.723915 104,113 C100.62,107.54 97,101.32 91.07,98.33 C82.07,93.78 69.19,97.21 66.8,108.21 L62.62,127.4 C60.79,135.83 65.14,145.67 74.16,147.73 C82.5,149.63 92.53,145.22 94.49,136.19 L98.67,116.99 L74.39,126.87 C71.1433333,122.956667 70.4966667,122.35 72.45,125.05 C73.15,126.05 73.82,127.05 74.45,128.12 C75.45,129.68 76.4,131.25 77.32,132.85 C79.47,136.58 81.39,140.43 83.17,144.35 C87.4,153.72 102.62,155.19 109.12,147.7 C118.88,136.44 120.92,122.36 123.99,108.28 C125.84,99.86 121.47,90.01 112.45,87.96 C103.678471,85.7387287 94.7155882,90.82887 92.13,99.5 C93.07,96.5 90.82,100.44 92.85,98.26 L121.09,110 C121.15,108.11 121.27,106.24 121.4,104.35 L121.58,102.47 C121.511156,104.624738 120.560295,106.656617 118.95,108.09 L111.66,112.34 L112.66,112 C120.544738,109.720669 125.575192,102.015527 124.49,93.88 C123.36,85.42 116.57,80.13 108.27,79.55 C102.78,79.16 97.49,79.49 92.02,79.6 C91.17,79.6 89.39,79.35 91.21,79.6 C89.79,79.38 88.39,78.94 86.98,78.6 C83.4008226,77.8098538 79.7824642,77.2090194 76.14,76.8 C70.8035376,76.1397395 65.4099053,76.079363 60.06,76.62 C56.37,77.01 52.7,77.62 49.06,78.24 C46.7490315,78.6614087 44.3850218,78.7053117 42.06,78.37 C33.92,77.5 26.82,85.37 25.83,92.7 C24.7279971,100.84246 29.7704005,108.559382 37.67,110.82 L38.39,111.04 L28.51,103.44 L26.9,97.6 C26.9,106.24 34.52,114.52 43.42,114.12 C52.32,113.72 60,106.88 60,97.62 Z" id="Path" fill="#FFFFFF"></path>
                <path d="M70.47,94 C65.94,93.24 61.8,93.1 57.47,94.9 C56.2092386,95.3193226 55.0012108,95.8830689 53.87,96.58 C50.41,98.4666667 53.56,98.5666667 63.32,96.88 L64,97.6 C64.46,97.7 65.31,99.52 64,97.68 C63.09,96.42 62.22,95.15 61.26,93.91 C59.2982887,91.185599 56.7617919,88.9256248 53.83,87.29 C44.64,82.5 32.98,85.81 28.83,95.64 C26.93,100.16 27,104.46 27.75,109.21 C27.98,110.62 28.29,111.97 28.65,113.35 C28.81,114 29.2,117.35 29.07,114.79 L57.28,103.1 L56.73,102.56 L61.57,114.25 L61.57,113.47 L28.57,113.47 C28.7761228,119.677954 29.590011,125.850776 31,131.9 C31.5466526,134.203537 32.2142438,136.476685 33,138.71 C33.64,140.5 34.38,142.25 35.12,144 C35.12,144.13 37.01,149.73 36.12,146.54 L37.79,133.81 L37.51,134.42 L47.39,126.82 L46.81,127.05 C33.19,132.31 30.74,148.74 42.81,157.25 L43.48,157.71 L37.55,151.79 L37.95,152.49 L47.82,128.22 L46.97,128.35 C38.41,129.69 32.9,140.86 35.43,148.68 C38.43,157.99 46.58,161.68 55.76,160.22 L56.61,160.09 C67.49,158.39 71.21,144.2 66.48,135.82 C64.68,132.62 62.48,130.82 59.48,128.71 L55.53,158.91 C61.53,156.61 66.17,152.91 67.93,146.54 C68.7277792,143.236571 68.6032531,139.777512 67.57,136.54 C66.95,134.93 66.27,133.34 65.57,131.79 C65.1,130.79 65.07,130.71 65.49,131.64 C64.1823698,128.32958 63.1586802,124.913935 62.43,121.43 C62.278158,120.397105 62.0745685,119.372483 61.82,118.36 C61.95,119.36 61.92,118.94 61.71,117.03 C61.62,115.84 61.55,114.66 61.52,113.47 C61.15,104.85 54.18,96.54 44.99,96.95 C36.17,97.35 28.3,104.22 28.47,113.47 C28.4306723,118.356699 30.3799309,123.049358 33.87,126.47 C43.67,136.06 62.87,129.47 62.08,114.79 C61.9464952,111.904145 61.5549327,109.036033 60.91,106.22 C60.7,105.39 60.48,104.57 60.25,103.74 C59.6366667,100.68 59.4966667,101.566667 59.83,106.4 L52.23,116.28 L53.06,115.66 L40.32,117.33 C38.2462183,116.92606 36.4164242,115.718181 35.23,113.97 C34.47,112.97 34.54,113.06 35.43,114.36 C35.91,115.07 36.43,115.75 36.91,116.44 C39.5807183,120.35877 43.1815035,123.554124 47.39,125.74 C51.7370641,128.033799 56.6801417,128.947763 61.56,128.36 C64.109561,127.990729 66.5799407,127.199937 68.87,126.02 C70.13,125.41 73.15,124.8 69.31,125.68 L60.52,125.68 L61.63,125.87 C70.12,127.31 79.83,123.63 81.95,114.33 C83.77,106.33 79.52,95.55 70.41,94 L70.47,94 Z" id="Path" fill="#FFFFFF"></path>
                <path d="M48.66,159.42 C51.2062295,161.23412 54.0341595,162.615988 57.03,163.51 C58.4343222,163.922169 59.8738048,164.203371 61.33,164.35 C62.53,164.53 63.75,164.68 64.96,164.81 L61.29,163.57 C62.06,165.9 71.63,166.76 73.01,166.83 C75.6459627,166.945009 78.2860852,166.924982 80.92,166.77 C92.79,166.21 107.16,164.84 113.22,152.84 L82.43,144.5 C82.43,146.79 82.36,149.25 83.25,151.39 C87.52,161.64 97.04,166.44 107.53,161.26 L107.73,161.16 C114.04,158.05 117.38,149.09 115.33,142.5 L115.27,142.33 C112.71,134.09 103.64,127.98 94.95,130.79 C86.66,133.47 80.65,142.28 83.41,151.12 L83.41,151.29 L91,132.63 L90.8,132.73 L115.07,142.6 C115.38,145.85 115.5,146.49 115.43,144.5 C115.3,137.5 110.43,130.19 103.3,128.57 C96.45,127.01 88.01,129.48 84.64,136.16 C84.86,135.72 88.25,132.25 89.06,132.82 C89.32,133 83.83,133.55 87.98,133.16 C84.42,133.49 80.88,133.78 77.31,133.83 L75.52,133.83 C72.32,133.643333 73.1166667,134.036667 77.91,135.01 L76.81,134.43 C75.0649359,133.392158 73.1306443,132.712266 71.12,132.43 L66.72,131.84 C64.66,131.73 64.31,131.73 65.72,131.84 C68.59,133.26 67.03,132.16 65.33,130.9 C58.33,125.73 46.58,129.53 42.72,136.83 C38.15,145.48 41.21,153.91 48.65,159.44 L48.66,159.42 Z" id="Path" fill="#FFFFFF"></path>
                <path d="M32.39,107.7 C31.13,102.29 30.19,96.52 26.76,91.99 C23.59,87.82 18.86,85.33 14.28,82.99 C11.12,81.41 8.33,86.16 11.5,87.75 C15.58,89.8 20.19,91.95 22.83,95.86 C25.47,99.77 26.05,104.72 27.08,109.12 C27.89,112.57 33.2,111.12 32.39,107.66 L32.39,107.7 Z" id="Path" fill="#FFFFFF"></path>
                <path d="M15.47,87.52 C21.6268288,87.7109148 27.7562218,86.6212449 33.47,84.32 C36.26,83.26 36.02,78.94 32.74,78.91 C29.09,78.91 19.83,78.91 18.47,83.44 C17.81,85.61 19.47,87.59 20.92,88.97 C21.8220692,89.8311035 22.830188,90.573751 23.92,91.18 C24.434466,91.4429317 24.961795,91.679896 25.5,91.89 C26.71,92.51 26.78,92.36 25.68,91.45 L26.39,88.77 C26.52,88.55 26.5,88.63 26.31,88.99 L25.51,90.93 C26.14,90.27 29.02,90.69 29.93,90.74 C33.46,90.97 33.45,85.46 29.93,85.24 C27.13,85.06 21.93,84.73 20.93,88.24 C19.99,91.46 23.26,93.86 26.04,94.1 C28.62,94.32 31.79,92.82 30.96,89.72 C30.5858972,88.5377391 29.684627,87.5958378 28.52,87.17 C27.62,86.71 23.89,85.46 23.87,84.17 L23.06,86.17 C23.83,85.3 26.34,85.05 27.42,84.84 C29.1730893,84.5381356 30.9517908,84.4108463 32.73,84.46 L32,79 C26.755911,81.1534876 21.1163112,82.1757716 15.45,82 C11.9,81.88 11.91,87.39 15.45,87.51 L15.47,87.52 Z" id="Path" fill="#FFFFFF"></path>
                <path d="M45.94,82.46 C50.1,82.36 54.36,82.52 58.5,82.14 C61.1,81.9 63,80.44 65.57,80.84 C73.78,82.14 81.64,83.84 89.99,84.21 L89.99,78.7 C87.6435868,78.662738 85.3114798,78.3266996 83.05,77.7 L83.71,82.7 C85.5,81.92 90.25,83.52 92.04,83.85 C94.64,84.33 97.23,84.85 99.81,85.41 C103.27,86.14 104.75,80.83 101.28,80.1 C95.47,78.86 86.6,75.46 80.93,77.95 C78.67,78.95 79.48,82.4 81.59,82.95 C84.3284736,83.699988 87.1509673,84.0998412 89.99,84.14 C93.55,84.14 93.52,78.8 89.99,78.63 C85.4500216,78.4333316 80.9236663,77.996051 76.43,77.32 C72.62,76.72 68.71,75.32 64.89,74.99 C62.48,74.78 61.26,75.9 59.05,76.48 C55.17,77.48 49.92,76.79 45.94,76.88 C42.41,76.97 42.39,82.47 45.94,82.39 L45.94,82.46 Z" id="Path" fill="#FFFFFF"></path>
                <path d="M113.69,85.9 C115.449959,85.8679499 117.208712,86.0120002 118.94,86.33 C120.3,86.6 122.44,86.89 123.57,87.74 L122.21,85.36 L122.21,85.62 L123.02,83.62 C121.768189,84.9166656 120.240376,85.9147001 118.55,86.54 C115.32,87.98 118.12,92.73 121.33,91.3 C123.79,90.21 130.53,86.39 126.66,83.15 C125.17,81.89 122.66,81.44 120.83,81.05 C118.492313,80.5590871 116.108602,80.3210512 113.72,80.34 C110.18,80.34 110.17,85.87 113.72,85.85 L113.69,85.9 Z" id="Path" fill="#FFFFFF"></path>
                <path d="M124.89,89.4 C127.21,89.35 129.51,89.4 131.83,89.51 L131.83,84 C130.436046,84.2215937 129.007847,84.0448021 127.71,83.49 L127,88.9 L144.25,90.09 L153.83,90.75 C154.45,90.75 157.22,91.37 157.66,91.01 C159.33,89.68 155.38,89.29 154.8,89.23 C144,88 132.85,87 122.14,88.9 C118.65,89.53 120.14,94.84 123.6,94.21 C132.23,92.65 141.31,93.45 149.99,94.21 C154.15,94.59 162.7,97.72 163.3,91.06 C163.8,85.45 157.71,85.48 153.81,85.21 L127,83.39 C123.81,83.17 123.39,87.92 126.27,88.8 C128.069935,89.380391 129.962074,89.621147 131.85,89.51 C133.30717,89.4221693 134.443943,88.2148145 134.443943,86.755 C134.443943,85.2951855 133.30717,84.0878307 131.85,84 C129.53,83.88 127.23,83.84 124.91,83.89 C121.37,83.97 121.36,89.47 124.91,89.4 L124.89,89.4 Z" id="Path" fill="#FFFFFF"></path>
                <path d="M125.37,99.36 L127.68,96.15 L122.68,94.03 L121.16,100.79 C120.5,103.68 124.76,105.85 126.16,102.91 C128.57,97.96 131.85,96.49 136.99,95.32 C142.13,94.15 150.73,92.08 152.53,99 L157.13,96.32 C155.21,94.78 153.38,93.19 151.6,91.51 C149.02,89.07 145.12,92.96 147.7,95.4 C149.49,97.09 151.32,98.68 153.24,100.21 C155.16,101.74 158.58,100.4 157.84,97.53 C155.84,89.75 147.84,87.86 140.76,88.94 C132.52,90.2 125.28,92.14 121.4,100.13 L126.4,102.25 L128,95.5 C128.272512,94.2056868 127.591919,92.8992918 126.375045,92.3809034 C125.158171,91.862515 123.744575,92.2767859 123,93.37 L120.68,96.58 C118.61,99.46 123.38,102.21 125.44,99.36 L125.37,99.36 Z" id="Path" fill="#FFFFFF"></path>
                <path d="M158.46,92.14 C158.839462,95.7713724 157.871466,99.4155929 155.74,102.38 L160.87,103.77 C161.14,100.29 162.2,95.98 161.06,92.61 C160.654881,91.3245577 159.38335,90.51727 158.047685,90.6974983 C156.71202,90.8777267 155.699931,91.9931554 155.65,93.34 C155.518476,96.8239392 154.58056,100.229876 152.91,103.29 C151.22,106.41 155.97,109.19 157.66,106.07 C159.800414,102.156449 160.998808,97.7977199 161.16,93.34 L155.75,94.07 C156.24,95.5 155.87,97.14 155.75,98.63 L155.35,103.77 C155.12,106.77 159.06,107.19 160.48,105.16 C163.133985,101.371352 164.366303,96.7678637 163.96,92.16 C163.65,88.66 158.14,88.62 158.45,92.16 L158.46,92.14 Z" id="Path" fill="#FFFFFF"></path>
                <path d="M113.07,139.54 C116.132231,143.090171 120.562347,145.167015 125.25,145.25 L123.86,140.11 C121.02,142.23 117.86,142.89 114.56,141.37 L113.9,146.37 C115.061565,145.934413 116.28171,145.67488 117.52,145.6 L114.86,142.12 L113.61,147.03 C113.13,148.96 114.95,151.12 117,150.42 C122.87,148.42 128.79,146.55 134.62,144.42 C139.02,142.83 141.31,140.63 143.82,136.78 C150.319823,126.76191 156.004756,116.238094 160.82,105.31 C162.25,102.1 157.5,99.31 156.06,102.53 C151.968746,111.81613 147.251213,120.813521 141.94,129.46 C140.7,131.46 139.51,133.61 138.08,135.46 C136.24,137.89 134.23,138.67 131.39,139.66 C126.12,141.5 120.82,143.25 115.54,145.04 L118.93,148.43 L120.17,143.51 C120.58,141.92 119.36,139.85 117.52,140.03 C115.795262,140.177054 114.091792,140.512383 112.44,141.03 C110.37,141.67 109.51,145.03 111.78,146.03 C116.78,148.36 122.12,148.14 126.64,144.78 C128.78,143.19 128.15,139.78 125.25,139.65 C122.023422,139.5569 118.997191,138.063863 116.96,135.56 C114.62,132.89 110.74,136.8 113.07,139.45 L113.07,139.54 Z" id="Path" fill="#FFFFFF"></path>
                <path d="M149.43,97.84 C150.49,105.84 149.22,114.98 145.2,122.17 C141.34,129.09 132.66,139.93 123.96,139.64 C120.41,139.53 120.41,145.04 123.96,145.15 C134.15,145.49 143.15,135.39 148.35,127.58 C151.371147,123.145023 153.366152,118.092606 154.19,112.79 C154.48,110.79 155.02,109.06 155.46,107.15 C156.18,104.1 155.34,100.87 154.93,97.84 C154.47,94.38 148.93,94.33 149.43,97.84 Z" id="Path" fill="#FFFFFF"></path>
                <path d="M27.83,78.45 C22.24,78.93 17.04,81.21 11.46,81.76 C9.71,81.93 9.69,84.7 11.46,84.52 C17.04,83.98 22.25,81.69 27.83,81.22 C29.6,81.07 29.61,78.3 27.83,78.45 Z" id="Path" fill="#010101"></path>
                <path d="M10,83.65 C10.34,86.15 14.34,86.11 16.17,86.41 C20.0825236,87.0130103 24.0317795,87.3471267 27.99,87.41 C28.709417,87.3488147 29.2622078,86.7470142 29.2622078,86.025 C29.2622078,85.3029858 28.709417,84.7011853 27.99,84.64 C25.36,84.64 22.75,84.45 20.14,84.15 C19.93,84.15 12.74,83.38 12.67,82.89 C12.43,81.13 9.77,81.89 10,83.62 L10,83.65 Z" id="Path" fill="#010101"></path>
                <path d="M9.79,83 C6.06,84.39 8.72,87.94 10.72,89.59 C15.02,93.15 19.13,96.5 22.72,100.82 C23.86,102.19 25.8,100.22 24.67,98.82 C22.5961648,96.3165232 20.3328212,93.976286 17.9,91.82 C16.82,90.87 15.69,89.96 14.55,89.07 C14.25,88.85 10.61,85.63 10.55,85.66 C12.2,85.05 11.49,82.37 9.81,83 L9.79,83 Z" id="Path" fill="#010101"></path>
                <path d="M22.37,100.38 C26.1,110.46 28.37,120.9 30.37,131.45 C32.14,140.96 33.92,150.45 38.82,158.89 C39.2365897,159.479311 40.0348825,159.65178 40.6575991,159.287008 C41.2803156,158.922237 41.5202906,158.141578 41.21,157.49 C36.13,148.7 34.56,138.79 32.72,128.96 C30.9832966,118.988579 28.4006332,109.183156 25,99.65 C24.39,97.99 21.71,98.71 22.34,100.38 L22.37,100.38 Z" id="Path" fill="#010101"></path>
                <path d="M40.37,160 C46.07,162.58 52.17,165.92 58.29,167.34 C60.9,167.94 63.45,167.47 66.06,167.75 C69.45,168.11 72.32,169 75.79,168.99 C88.68,168.99 102.19,168.3 113.13,160.75 C114.59,159.75 113.21,157.35 111.74,158.36 C101.19,165.64 88.21,166.2 75.79,166.22 C72.52,166.22 69.57,165.22 66.38,164.88 C63.91,164.6 61.51,165.2 59.03,164.67 C53.1,163.42 47.26,160.1 41.76,157.61 C40.15,156.88 38.76,159.26 40.37,160 Z" id="Path" fill="#010101"></path>
                <path d="M126,101.64 L117.62,135.81 C117.19,137.54 119.86,138.28 120.29,136.55 L128.66,102.38 C129.09,100.65 126.42,99.91 126,101.64 Z" id="Path" fill="#010101"></path>
                <path d="M128.71,102.83 C132.8,99.19 139.16,96.65 144.71,97.83 C147.32,98.37 148.21,98.94 148.71,101.64 C149.06144,103.37204 148.947575,105.166282 148.38,106.84 C147.673333,109.62 146.956667,112.403333 146.23,115.19 C146.028416,115.9273 146.4627,116.688416 147.2,116.89 C147.9373,117.091584 148.698416,116.6573 148.9,115.92 C150.43,109.98 155.63,99.55 147.9,95.83 C141.24,92.61 131.8,96.39 126.73,100.9 C125.4,102.09 127.36,104.04 128.73,102.9 L128.71,102.83 Z" id="Path" fill="#010101"></path>
                <path d="M146.06,115.1 C143.83,123.62 130.12,147.6 119.39,135.38 C118.21,134.04 116.26,136 117.39,137.38 C129.96,151.7 145.93,126.38 148.69,115.89 C148.825453,115.179281 148.393054,114.483504 147.695826,114.290265 C146.998598,114.097025 146.269726,114.470953 146.02,115.15 L146.06,115.1 Z" id="Path" fill="#010101"></path>
                <path d="M28.13,80.85 C36.26,81.03 44.03,78.17 52.13,77.79 C60.01,77.41 68.13,76.97 75.97,77.79 C83.81,78.61 91.83,78.22 99.84,79.55 C108.506667,80.9833333 117.13,82.5066667 125.71,84.12 C127.45,84.44 128.2,81.78 126.45,81.45 C117.843333,79.85 109.22,78.3266667 100.58,76.88 C92.84,75.6 85.3,75.99 77.58,75.21 C69.116432,74.5183707 60.6133959,74.4515229 52.14,75.01 C44.04,75.4 36.23,78.26 28.14,78.07 C26.36,78.07 26.36,80.8 28.14,80.84 L28.13,80.85 Z" id="Path" fill="#010101"></path>
                <path d="M128.45,85 C139.183333,85.4 149.893333,86.1033333 160.58,87.11 C162.35,87.28 162.34,84.51 160.58,84.34 C149.913333,83.34 139.203333,82.6366667 128.45,82.23 C126.67,82.16 126.67,84.93 128.45,85 Z" id="Path" fill="#010101"></path>
                <path d="M160.13,87.09 C161.884528,88.1077003 163.069609,89.8797833 163.34,91.89 C163.63,93.64 166.34,92.89 166.01,91.15 C165.556742,88.4380733 163.913025,86.0715617 161.53,84.7 C160.878422,84.3897094 160.097763,84.6296844 159.732992,85.2524009 C159.36822,85.8751175 159.540689,86.6734103 160.13,87.09 Z" id="Path" fill="#010101"></path>
                <path d="M127.66,89.93 C139.54,90.63 152.17,90.24 163.59,93.87 C165.29,94.41 166.02,91.74 164.33,91.2 C152.64,87.49 139.79,87.88 127.66,87.2 C125.89,87.1 125.89,89.87 127.66,89.97 L127.66,89.93 Z" id="Path" fill="#010101"></path>
                <path d="M156.78,115.05 C153.2,126.05 145.16,134.89 138.23,143.86 C137.15,145.27 139.55,146.65 140.62,145.26 C147.73,136.05 155.77,127.02 159.44,115.79 C160,114.09 157.33,113.36 156.78,115.05 Z" id="Path" fill="#010101"></path>
                <path d="M114.25,159.21 C115.46106,157.156321 116.5141,155.013469 117.4,152.8 C118.07,151.14 115.4,150.43 114.74,152.06 C113.927334,154.046987 112.964551,155.96921 111.86,157.81 C111.549709,158.461578 111.789684,159.242237 112.412401,159.607008 C113.035117,159.97178 113.83341,159.799311 114.25,159.21 Z" id="Path" fill="#010101"></path>
                <path d="M116.43,153.92 C124.43,152.41 131.56,148.46 139.43,146.7 C141.17,146.31 140.43,143.64 138.69,144.03 C130.79,145.79 123.69,149.74 115.69,151.25 C113.95,151.58 114.69,154.25 116.43,153.92 Z" id="Path" fill="#010101"></path>
                <path d="M163.89,92.27 C163.78,100.55 159.84,107.81 156.96,115.38 C156.32,117.04 158.96,117.76 159.63,116.11 C162.63,108.29 166.55,100.82 166.63,92.27 C166.63,91.507847 166.012153,90.89 165.25,90.89 C164.487847,90.89 163.87,91.507847 163.87,92.27 L163.89,92.27 Z" id="Path" fill="#010101"></path>
                <path d="M76.43,102 C76.85,121.126667 76.3833333,140.243333 75.03,159.35 C74.9,161.13 77.67,161.12 77.8,159.35 C79.1333333,140.263333 79.6,121.146667 79.2,102 C79.2,100.22 76.39,100.21 76.43,102 Z" id="Path" fill="#010101"></path>
                <path d="M76.22,133.53 L67.36,132.99 C65.58,132.88 65.59,135.65 67.36,135.76 L76.22,136.29 C78,136.4 77.99,133.63 76.22,133.53 Z" id="Path" fill="#010101"></path>
                <path d="M77.21,119.67 C73.8766667,119.783333 70.5233333,119.733333 67.15,119.52 C65.37,119.41 65.38,122.18 67.15,122.29 C70.4833333,122.503333 73.8366667,122.553333 77.21,122.44 C78.98,122.37 78.99,119.61 77.21,119.67 Z" id="Path" fill="#010101"></path>
                <path d="M79,145.52 L85.11,145.52 C85.829417,145.458815 86.3822078,144.857014 86.3822078,144.135 C86.3822078,143.412986 85.829417,142.811185 85.11,142.75 L79,142.75 C78.280583,142.811185 77.7277922,143.412986 77.7277922,144.135 C77.7277922,144.857014 78.280583,145.458815 79,145.52 Z" id="Path" fill="#010101"></path>
                <path d="M79.77,119.31 L86.27,119.31 C86.989417,119.248815 87.5422078,118.647014 87.5422078,117.925 C87.5422078,117.202986 86.989417,116.601185 86.27,116.54 L79.77,116.54 C79.050583,116.601185 78.4977922,117.202986 78.4977922,117.925 C78.4977922,118.647014 79.050583,119.248815 79.77,119.31 Z" id="Path" fill="#010101"></path>
                <path d="M76.22,105.7 C73.5864018,105.746823 70.9528655,105.603115 68.34,105.27 C66.58,105.04 66.6,107.81 68.34,108.03 C70.9526232,108.366457 73.5861605,108.513508 76.22,108.47 C76.939417,108.408815 77.4922078,107.807014 77.4922078,107.085 C77.4922078,106.362986 76.939417,105.761185 76.22,105.7 Z" id="Path" fill="#010101"></path>
                <path d="M68.14,153.6 C70.9013804,153.508249 73.6657347,153.571682 76.42,153.79 C78.42,153.95 78.42,150.79 76.42,150.65 C73.6657985,150.430024 70.9011592,150.369923 68.14,150.47 C66.14,150.54 66.14,153.67 68.14,153.6 Z" id="Path" fill="#010101"></path>
                <path d="M20.1,66 C20.4450746,63.3280726 21.4446677,60.7827169 23.01,58.59 C23.3037564,58.0731455 23.302478,57.4395258 23.0066383,56.9238609 C22.7107987,56.408196 22.1644563,56.0872823 21.57,56.08 C21.6891166,55.0287106 22.5187106,54.1991166 23.57,54.08 C24.1192588,53.873431 24.6949481,53.7455 25.28,53.7 C26.5690092,53.477027 27.8953973,53.6550422 29.08,54.21 C30.33,54.81 31.02,56.62 32.26,56.97 C31.71,56.81 31,55.86 30.54,55.52 C27.75,53.45 24.37,52.35 21,53.58 L22.29,56.58 C23.4778868,55.881873 24.9177423,55.7582907 26.207219,56.2437864 C27.4966957,56.7292822 28.4975106,57.7717916 28.93,59.08 L31.98,57.8 C31.2171936,56.1999774 30.2045195,54.7315999 28.98,53.45 L27.8,56.3 C29.04,56.72 29.48,57.48 29.12,58.58 C28.8742334,59.4691784 29.3958217,60.3892331 30.2850001,60.6349998 C31.1741784,60.8807665 32.0942332,60.3591783 32.34,59.47 C32.7824056,57.9902149 32.5247372,56.389404 31.6403312,55.123184 C30.7559253,53.8569641 29.3416386,53.0640066 27.8,52.97 C26.26,52.77 25.75,54.86 26.63,55.81 C27.6216427,56.9007936 28.4380215,58.1388556 29.05,59.48 C29.84,61.18 32.75,59.98 32.05,58.2 C31.3101365,55.9138581 29.58186,54.081353 27.3429087,53.2090343 C25.1039574,52.3367156 22.5914847,52.5169808 20.5,53.7 C18.85,54.55 20,57.4 21.79,56.7 C25.01,55.53 27.37,57.33 29.79,59.23 C30.99,60.23 32.25,61.04 33.79,60.14 C37.28,58.04 33.5,52.87 31.26,51.51 C27.5608135,49.4424624 22.9908413,49.7481724 19.6,52.29 C16.9,54.52 17.42,59.38 21.48,59.29 L20.04,56.78 C18.3057161,59.2082399 17.1901197,62.0229755 16.79,64.98 C16.5,67.08 19.72,67.98 20.01,65.87 L20.1,66 Z" id="Path" fill="#1D8341"></path>
                <path d="M21.36,55.09 C18.36,58.09 15.94,62.8 16.63,67.23 C17.23,71.13 21.07,71.23 24.05,70 C26.918431,68.7304943 29.9823478,67.9594424 33.11,67.72 C34.67,67.62 36.3,67.81 37.05,66.14 C38.48,62.97 34.69,57.87 31.37,58.29 C30.7780984,58.3031385 30.2362312,58.6250578 29.9416126,59.1385945 C29.6469939,59.6521312 29.6425886,60.2823951 29.93,60.8 C30.545156,61.847956 30.8276151,63.0579966 30.74,64.27 L32.85,62.66 C30.8832737,62.2083321 28.8528022,62.1034244 26.85,62.35 C26.13,62.45 21.85,64.15 21.34,63.92 C19.43,62.99 17.75,65.78 19.66,66.8 C21.1182456,67.6380223 22.8332454,67.9119953 24.48,67.57 C26.34,67.29 25.91,64.18 24.04,64.3 L21.5,64.45 L23.16,66.12 C22.8907044,63.2748597 23.8017893,60.4439888 25.68,58.29 L22.83,57.11 C22.6126752,58.983566 22.0961083,60.8101195 21.3,62.52 L24.18,64.2 C25.1870376,61.8725239 26.6141815,59.7504524 28.39,57.94 L25.6,56.31 L24.3,62.19 C23.84,64.28 27.01,65.19 27.52,63.08 L28.52,59.08 C28.7064061,58.3530725 28.3880929,57.5906783 27.7401254,57.2121166 C27.0921579,56.833555 26.2717063,56.9306493 25.73,57.45 C23.9139293,59.1104553 22.6593082,61.2946843 22.14,63.7 C21.9700552,64.4226577 22.2916098,65.1716063 22.9326044,65.5460942 C23.5735991,65.9205821 24.3839297,65.8329141 24.93,65.33 C27.03,63.39 29.0733333,61.39 31.06,59.33 L28.22,58.15 C28.1427314,59.7340379 27.9184338,61.3074687 27.55,62.85 C27.05,64.94 30.27,65.85 30.77,63.74 C31.2038181,61.90508 31.4649567,60.0335863 31.55,58.15 C31.5309363,57.48421 31.1225902,56.8917127 30.5071895,56.6369152 C29.8917888,56.3821178 29.1841253,56.5125479 28.7,56.97 C26.7,59.0166667 24.6566667,61.0166667 22.57,62.97 L25.36,64.59 C25.7413644,62.7479647 26.6972011,61.0743751 28.09,59.81 L25.3,58.19 L24.3,62.19 L27.52,63.08 L28.82,57.2 C28.9997098,56.474859 28.6789826,55.7181642 28.0329181,55.34303 C27.3868536,54.9678957 26.5706865,55.0644584 26.03,55.58 C24.0468393,57.5884388 22.4442548,59.9397997 21.3,62.52 C20.44,64.46 23.3,66.16 24.18,64.2 C25.2269144,61.9608275 25.9024116,59.5661897 26.18,57.11 C26.1661653,56.4439939 25.7601278,55.8490718 25.1449643,55.5934757 C24.5298008,55.3378796 23.8217256,55.4698958 23.34,55.93 C20.8331813,58.7071075 19.5721089,62.3891499 19.85,66.12 C19.8607988,67.0378053 20.6021947,67.7792012 21.52,67.79 L24.06,67.63 L23.62,64.36 L21.36,63.92 L19.68,66.8 C21.22,67.55 21.93,67.32 23.59,66.8 C26.59,65.8 28.89,65.26 32.03,65.92 C32.5313009,66.0486889 33.0639305,65.9405791 33.4753865,65.6266245 C33.8868424,65.31267 34.1317547,64.8274896 34.14,64.31 C34.1359039,62.5175136 33.7039299,60.7519057 32.88,59.16 L31.44,61.67 C32.44,61.54 34.17,64.6 34.33,64.4 C34.23,64.52 31.13,64.59 30.88,64.62 C28.8268463,64.8708055 26.8119607,65.3711688 24.88,66.11 C24.08,66.41 22.57,67.35 21.88,67.37 C19.64,67.37 19.94,65.45 20.25,63.93 C20.7772954,61.475439 22.0235903,59.2335006 23.83,57.49 C25.34,55.96 22.98,53.6 21.47,55.13 L21.36,55.09 Z" id="Path" fill="#1D8341"></path>
                <path d="M35,61.85 C34.06,60.68 34.91,59.57 35.79,58.85 C36.7873973,58.1715616 37.132867,56.8621889 36.6,55.78 C35.45,53.33 31.99,52.23 29.53,52.14 C27.38,52.07 27.38,55.41 29.53,55.48 C30.3327522,55.4942326 31.1247054,55.6675785 31.86,55.99 C32.13,56.12 33.51,56.83 33.53,57.1 L34.02,55.92 C33.53,56.53 32.8,56.86 32.33,57.52 C30.8534561,59.5617889 30.9820074,62.3525954 32.64,64.25 C33.97,65.93 36.32,63.56 35,61.89 L35,61.85 Z" id="Path" fill="#1D8341"></path>
                <path d="M35,61.39 C39.11,60.39 43.88,71.48 45.24,74.53 C47.64,79.93 48.24,85.87 49.11,91.65 C49.44,93.77 52.65,92.87 52.33,90.76 C51.01,82.34 49.69,75 45.33,67.57 C42.85,63.33 40.05,56.75 34.12,58.17 C32.03,58.67 32.91,61.89 35,61.39 Z" id="Path" fill="#1D8341"></path>
                <path d="M59.68,68.8 C56.78,68.12 52.47,67.12 50.4,69.8 C50.0998969,70.3197938 50.0998969,70.9602062 50.4,71.48 C51.32,73.63 52.97,72.48 54.66,72.77 L53.43,71.16 C53.37,73.38 52.31,78.16 55.56,78.75 C57.25,79.03 58.51,77.6 59.86,76.86 C62.4819394,75.4540541 65.4390157,74.7934675 68.41,74.95 C69.1537183,74.9318667 69.7969477,74.4267668 69.9909319,73.7085636 C70.184916,72.9903604 69.8834551,72.230103 69.25,71.84 C65.25,69.46 60.9,70.29 56.65,71.44 C55.7900889,71.7066212 55.2963029,72.6068908 55.533643,73.4753398 C55.7709831,74.3437888 56.6540098,74.8677866 57.53,74.66 C60.86,73.76 64.42,72.84 67.53,74.72 L68.38,71.61 C65.5528402,71.490548 62.732897,71.9781561 60.11,73.04 C59.21,73.42 57.17,75.14 56.33,75.14 L56.61,75.47 L56.66,73.85 L56.74,71.16 C56.7374158,70.411473 56.2399268,69.7549506 55.52,69.55 C55.59,69.55 52.96,69.12 53.25,69.8 L53.25,71.48 C53.82,70.74 58.02,71.83 58.76,72.01 C60.85,72.49 61.76,69.27 59.65,68.79 L59.68,68.8 Z" id="Path" fill="#1D8341"></path>
                <path d="M56.65,74.64 C58.76,74.48 59.58,73.13 61.33,72.26 C62.33,71.74 63.33,72.17 64.48,71.89 C65.33,71.68 66.8,70.27 67.62,70.6 L66.46,69.43 L66.88,71.73 L69.33,69.84 C67.4326216,68.8300924 65.3090497,68.3207105 63.16,68.36 L64,71.47 C65.1085968,70.5301419 66.5555838,70.0888109 68,70.25 L66.78,68.65 L66.78,72.1 C66.78,73.0223155 67.5276845,73.77 68.45,73.77 C69.3723155,73.77 70.12,73.0223155 70.12,72.1 L70.12,68.65 C70.1277443,67.8980214 69.6260434,67.2359407 68.9,67.04 C66.5769866,66.6148537 64.181862,67.1764942 62.29,68.59 C61.07,69.51 61.29,71.73 63.14,71.7 C64.6985215,71.6331668 66.2471489,71.9780727 67.63,72.7 C68.2184452,73.0211611 68.9410924,72.9641427 69.471889,72.554671 C70.0026857,72.1451992 70.2412721,71.4606946 70.08,70.81 C69.79,69.24 69.82,67.55 67.96,67.14 C66.59,66.83 65.64,67.58 64.49,68.14 C63.14,68.79 61.71,68.34 60.31,68.97 C59.09,69.52 57.99,71.17 56.63,71.28 C54.5,71.44 54.48,74.78 56.63,74.61 L56.65,74.64 Z" id="Path" fill="#1D8341"></path>
                <path d="M56.3,76.31 C58.40386,76.5039968 60.5252815,76.276216 62.54,75.64 C65.54,74.64 68.43,72.79 70.54,76.57 C73.2,81.32 73.1,88.57 73.16,93.87 C73.16,96.02 76.52,96.03 76.49,93.87 C76.42,87.76 76.49,78.37 72.42,73.35 C67.71,67.55 62.08,73.35 56.29,72.97 C54.15,72.83 54.16,76.16 56.29,76.31 L56.3,76.31 Z" id="Path" fill="#1D8341"></path>
                <path d="M70.72,28.17 C71.62,22.88 69.8,17.48 63.33,17.85 C60.94,17.99 60.14,19.93 59.1,21.85 C58.1597438,23.9679905 56.2648942,25.5098779 54,26 C53.0093235,26.1421905 52.0888725,26.5936665 51.37,27.29 C49.05,29.89 50.42,35.15 54.24,34.99 C55.64,34.99 56.31,34.11 57.5,33.58 C61.14,31.94 62.41,32.91 64.93,34.64 C67.4487198,36.4343998 70.4148061,37.4969302 73.5,37.71 C75.64,37.88 75.63,34.55 73.5,34.38 C69,34.02 66.65,30.86 62.67,29.44 C60.09,28.53 58.59,29.25 56.31,30.3 L54.97,31.3 L55.25,29.14 C55.48,28.89 56.39,29.14 56.69,28.91 C57.6627588,28.4835518 58.5850908,27.9502762 59.44,27.32 C60.5046014,26.2113321 61.3675476,24.9253731 61.99,23.52 C62.55,22.46 62.58,22 63.8,21.63 C64.9933333,20.91 65.8233333,21.42 66.29,23.16 C67.0088567,23.5204776 67.5472266,24.1614634 67.7781312,24.9317764 C68.0090358,25.7020894 67.9120324,26.5335311 67.51,27.23 C67.15,29.33 70.37,30.23 70.73,28.11 L70.72,28.17 Z" id="Path" fill="#1D8341"></path>
                <path d="M67.42,37.37 C69.86,38.65 72.42,39.96 75.28,39.9 C77.14,39.9 80.06,39.18 80.8,37.21 C82.47,32.78 71.47,31.32 68.99,30.89 L68.55,34.17 C70.1636537,33.9662808 71.8005531,34.2740739 73.23,35.05 C74.47,35.76 75.23,37.05 76.44,37.75 C77.2620115,38.2109725 78.2599659,38.2308408 79.0996738,37.8029514 C79.9393816,37.375062 80.5098336,36.5559818 80.62,35.62 C81.5,30.04 70.85,30.19 67.56,30.13 C65.41,30.13 65.41,33.42 67.56,33.46 C69.743424,33.4860527 71.9209108,33.6934324 74.07,34.08 C74.96,34.24 75.85,34.58 76.73,34.73 C78.24,34.99 77.89,34.54 76.98,33.73 C74.7037602,31.6226009 71.6386682,30.5827239 68.55,30.87 C66.82,31.02 66.11,33.8 68.1,34.15 C69.63,34.41 71.16,34.67 72.66,35.05 C73.28,35.21 73.9,35.38 74.51,35.58 C75.12,35.78 76.41,36.67 76.93,36.58 C77.35,36.94 77.53,36.76 77.49,36.02 L76.6,36.4 C75.7347824,36.6296328 74.8288037,36.6604019 73.95,36.49 C72.239285,36.0792317 70.6030007,35.4044753 69.1,34.49 C67.2,33.49 65.52,36.37 67.42,37.38 L67.42,37.37 Z" id="Path" fill="#1D8341"></path>
                <path d="M70.71,28 C69.5387587,25.342006 67.9857122,22.8692596 66.1,20.66 C65.7337469,20.2952032 65.2192038,20.1205801 64.7065709,20.187105 C64.193938,20.2536299 63.7410096,20.5538027 63.48,21 C61.64,24.67 58.95,26.42 55.35,28.14 C53.66,28.94 54.85,31.83 56.64,31.14 C60.92,29.59 63.45,26.26 65.86,22.55 L62.75,21.71 C62.39,24.86 62.08,29.96 66.29,30.3 C67.041333,30.2961464 67.6987573,29.7938905 67.9,29.07 C68.21,27.46 68.17,25.51 66.32,24.85 C64.03,24.04 61.12,26.85 59.41,27.96 C58.14,28.75 58.5,31.3 60.25,31.06 C61.76,30.86 63.62,30.49 65.09,31.06 C66.56,31.63 67.15,33.06 68.36,34.06 C70.41,35.68 72.89,34.41 74.88,35.72 C76.68,36.91 78.35,34.02 76.57,32.84 C75.6581274,32.2959715 74.6297019,31.9771596 73.57,31.91 C70.94,31.48 70.24,30.74 68.29,29.15 C65.98,27.26 63.01,27.41 60.21,27.79 L61.05,30.9 L63.62,29.29 L64.62,28.65 C65.31,28.38 65.31,28.24 64.62,28.24 L66.23,27.02 C65.45,26.96 65.97,22.31 66.03,21.77 C66.23,20.01 63.73,19.68 62.92,20.93 C61.03,23.83 59.1,26.75 55.69,27.98 L56.97,30.98 C61.17,28.98 64.19,26.86 66.31,22.64 L63.68,22.98 C65.3613481,24.9919547 66.7392751,27.2390874 67.77,29.65 C68.63,31.65 71.51,29.91 70.65,27.96 L70.71,28 Z" id="Path" fill="#1D8341"></path>
                <path d="M79,38 C81.25,42.18 84.56,45.48 86.33,50 C87.8796556,54.3440435 88.7793592,58.8931069 89,63.5 C89.76,73.63 89.17,83.82 88.64,93.95 C88.53,96.09 91.86,96.09 91.97,93.95 C92.56,82.74 93.35,71.31 91.97,60.12 C91.5338487,55.7888801 90.4693475,51.5443501 88.81,47.52 C87.02,43.39 83.89,40.21 81.81,36.29 C80.81,34.4 77.91,36.08 78.93,37.97 L79,38 Z" id="Path" fill="#1D8341"></path>
                <path d="M119,52.25 C116.71,54.51 115.71,57.11 114.81,60.16 C113.535574,64.3392422 111.752198,68.3459603 109.5,72.09 C107.42,75.7 106.11,79.53 104.41,83.27 C103.08,86.19 103.41,89.27 103.87,92.47 C104.15,94.56 107.49,94.59 107.2,92.47 C106.35,86.09 109.56,78.6 112.78,73.1 C114.377442,70.5628311 115.739769,67.8850375 116.85,65.1 C118.17,61.42 118.42,57.5 121.36,54.6 C121.969762,53.9415774 121.95015,52.9189675 121.315591,52.2844086 C120.681032,51.6498497 119.658423,51.630238 119,52.24 L119,52.25 Z" id="Path" fill="#1D8341"></path>
                <path d="M124.2,50.86 C123.13,46.22 128.07,44.29 131.81,43.93 C133.05,43.81 141.69,43.93 138.32,45.63 C137.93,45.83 137.32,45.39 136.95,45.83 C135.85,46.98 134.89,47.94 136.07,49.65 C137.25,51.36 140.25,51.87 141.02,54.16 C143.47,61.45 134.09,58.74 131.55,58.26 C129.840682,57.8578827 128.074897,57.7530181 126.33,57.95 C125.72,58.05 125.12,58.32 124.54,58.41 C123.78,59.22 123.12,59.23 122.54,58.41 C120.54,57.15 121.476667,55.64 125.35,53.88 C127.41,53.28 126.53,50.06 124.47,50.67 C120.56,51.81 117.63,55.33 118.74,59.67 C119.74,63.55 121.98,62.89 124.9,61.89 C130.52,59.95 136.53,64.68 141.9,61.29 C145.12,59.29 145.69,55.71 143.9,52.49 C143.16,51.17 140.97,48.04 139.3,47.97 C137.63,47.9 138.56,49.03 139.36,49.02 C139.900459,49.0208576 140.422838,48.8254096 140.83,48.47 C143.17,46.47 140.78,42.31 138.83,41 C135.42,38.73 129.48,40.61 126.06,42 C122.028216,43.3880201 119.793687,47.6943259 120.98,51.79 C121.46,53.88 124.68,53 124.2,50.9 L124.2,50.86 Z" id="Path" fill="#1D8341"></path>
                <path d="M123.79,49.46 L120.56,48.58 L121.56,51.03 C122.978075,48.9465114 125.213014,47.5619398 127.71,47.22 C129.83,46.87 128.93,43.66 126.83,44 C123.482855,44.560414 120.525368,46.5018316 118.68,49.35 C118.423555,49.7985919 118.387808,50.3402397 118.583074,50.8186432 C118.778341,51.2970466 119.182896,51.6589792 119.68,51.8 L122.9,52.68 C123.789178,52.9257667 124.709233,52.4041784 124.955,51.515 C125.200767,50.6258216 124.679178,49.7057667 123.79,49.46 Z" id="Path" fill="#1D8341"></path>
                <path d="M124.34,51.2 L133.75,51.42 C135.69,51.42 135.93,48.72 134.19,48.14 C132.164451,47.6062135 130.176715,46.9380672 128.24,46.14 L129.06,47.58 C128.99,46.83 132.86,45.72 133.39,45.58 C135.11,45.05 134.9,42.15 132.95,42.3 C130.04,42.53 125.46,43.17 123.4,45.55 C122.719542,46.2824065 122.475994,47.3194871 122.759304,48.278225 C123.042614,49.236963 123.810741,49.9750902 124.78,50.22 C128.19,51.15 131.69,47.15 135.05,47 C137.05,46.91 139.26,46.25 138.34,43.71 C138.189208,43.2199876 137.826511,42.8234877 137.351839,42.629744 C136.877167,42.4360002 136.34061,42.4654576 135.89,42.71 C133.404703,43.7859034 131.852455,46.2958366 132,49 L133.67,47.33 L130.41,47.5 C129.594909,47.5329885 128.921312,48.146745 128.812853,48.9552607 C128.704393,49.7637764 129.19242,50.5333606 129.97,50.78 C132.721634,51.5533035 135.271084,52.9184706 137.44,54.78 C138.78,55.92 141.2,54.43 140.06,52.78 L137.16,48.53 C136.670287,47.7939657 135.691795,47.5671084 134.928161,48.0125616 C134.164527,48.4580148 133.880358,49.4214244 134.28,50.21 C135.617763,53.0306975 137.508495,55.5539393 139.84,57.63 C140.380687,58.1455416 141.196854,58.2421043 141.842918,57.86697 C142.488983,57.4918358 142.80971,56.735141 142.63,56.01 C141.99,52.5 135.42,51.09 137.02,47.48 L134,46.17 C132.65,50.98 134.12,59.08 139.7,60.76 C140.427743,60.9437502 141.190239,60.6314513 141.58,59.99 C143.71,57.04 141.75,52.66 139.3,50.64 C138.815875,50.1825479 138.108211,50.0521178 137.492811,50.3069152 C136.87741,50.5617127 136.469064,51.15421 136.45,51.82 C136.162054,54.4828664 136.219193,57.1717696 136.62,59.82 L138.23,57.71 C133.181952,57.1282384 128.082472,57.1517383 123.04,57.78 L124.65,59 C124.09,56.57 127.53,53.88 129.11,52.5 L126.33,50.88 L124.56,56.55 C124.01,58.33 126.77,59.55 127.61,57.84 C128.116958,56.7737497 128.698397,55.7445358 129.35,54.76 C131.04,52.29 130.23,52.87 130.79,54.04 C131.413244,55.6227936 132.302748,57.0872625 133.42,58.37 C133.841575,58.7973524 134.461985,58.9620291 135.04,58.8 L135.46,58.62 C136.163497,58.3893387 136.652401,57.7493909 136.69,57.01 C136.79,55.89 134.97,54.23 135.34,53.46 L132.34,52.18 C132.34,52.27 130.61,56.09 130.68,56.1 L132.29,57.32 C132.131478,56.1202272 132.087947,54.9080531 132.16,53.7 C132.16,52.39 130.27,51.33 129.31,52.52 C128.230499,53.8232361 127.326157,55.2621153 126.62,56.8 C125.74,58.74 128.62,60.44 129.5,58.48 C130.060087,57.1888727 130.789853,55.9782021 131.67,54.88 L128.82,53.7 C128.742487,55.2079466 128.826296,56.7198593 129.07,58.21 C129.288006,58.9223919 129.935354,59.4169496 130.68,59.44 C133.46,59.75 134.8,55.04 135.56,53.06 C136.24,51.3 133.35,50.06 132.51,51.78 C131.897612,52.7763048 131.723919,53.9813032 132.03,55.11 C132.2,55.66 133.37,57.31 133.4,57.01 L134.62,55.4 L134.2,55.58 L135.83,56.01 C134.22,54.32 134.57,52.44 133.42,50.75 C132.92688,49.8997985 132.022787,49.3717779 131.04,49.36 C128.04,49.36 125.87,53.94 124.78,56.15 L127.78,57.44 L129.54,51.76 C130.07,50.07 127.94,49.11 126.75,50.14 C123.94,52.6 120.49,55.84 121.43,59.89 C121.634168,60.6119067 122.289812,61.1128024 123.04,61.12 C128.082074,60.4884149 133.181553,60.4615579 138.23,61.04 C139.43,61.18 139.97,59.87 139.84,58.93 C139.535098,56.5865426 139.535098,54.2134574 139.84,51.87 L136.94,53 C138.3,54.12 140.02,56.48 138.7,58.31 L140.59,57.54 C136.84,56.41 136.4,49.97 137.22,47.05 C137.71,45.29 134.95,44.05 134.17,45.77 C133.256502,47.5110427 133.172088,49.5700225 133.94,51.38 C134.94,53.65 139.04,54.68 139.45,56.87 L142.23,55.24 C140.126825,53.3526294 138.426207,51.0601955 137.23,48.5 L134.35,50.18 L137.24,54.43 L139.86,52.43 C137.261194,50.197024 134.212117,48.5497041 130.92,47.6 L130.48,50.88 L133.74,50.7 C134.652283,50.6892026 135.389203,49.9522828 135.4,49.04 C135.355056,47.5492647 136.23396,46.1851736 137.61,45.61 L135.16,44.61 L135.38,45.2 L135.81,43.58 C135.58,43.87 133.04,43.77 132.52,43.91 C131.330281,44.2964537 130.184087,44.8058732 129.1,45.43 C128.44,45.81 127.77,46.16 127.1,46.5 C125.766667,47.8333333 125.783333,48.0466667 127.15,47.14 C129.035109,46.4274157 130.993923,45.92765 132.99,45.65 L132.54,42.37 C130.33,43.06 125.67,44.37 125.73,47.29 C125.79,50.21 131.26,50.69 133.34,51.38 L133.79,48.1 L124.38,47.88 C122.23,47.88 122.23,51.17 124.38,51.22 L124.34,51.2 Z" id="Path" fill="#1D8341"></path>
                <path d="M127.65,54.93 L123.28,54.85 C122.368726,54.8761269 121.636127,55.608726 121.61,56.52 L121.43,56.52 L121.43,59.73 L131.58,55.5 C134.02,54.5 136.66,53.5 138.05,51.13 C139,49.46 139.73,46.28 138.98,44.42 C137.98,42.08 134.74,42.75 132.74,42.7 C130.59,42.7 130.59,46 132.74,46.04 C133.57116,45.9548832 134.40884,45.9548832 135.24,46.04 C135.78,45.36 135.97,45.37 135.81,46.1 C135.810201,46.5659287 135.770051,47.0309996 135.69,47.49 C135.15,50.38 133.18,51.19 130.69,52.23 L120.53,56.47 C119.12,57.05 118.78,59.23 120.53,59.68 C122.93,60.31 124.66,58.87 124.93,56.5 L123.27,58.17 L127.64,58.24 C129.79,58.24 129.79,54.94 127.64,54.91 L127.65,54.93 Z" id="Path" fill="#1D8341"></path>
                <path d="M30,66.93 C32.34,66.42 34.64,65.08 35,62.51 C35.1758219,61.3994039 34.8662621,60.2667789 34.15,59.4 C33.66,58.79 32.68,58.29 32.55,57.5 C32.18,55.38 28.96,56.28 29.33,58.38 C29.55,59.68 30.49,60.38 31.33,61.24 C32.63,62.64 30.15,63.48 29.09,63.71 C27,64.17 27.88,67.39 29.98,66.93 L30,66.93 Z" id="Path" fill="#1D8341"></path>
                <path d="M55.23,30.59 C55.31,31.59 54.85,32.04 53.86,31.99 C54.7491784,32.2357667 55.6692333,31.7141784 55.915,30.825 C56.1607667,29.9358216 55.6391784,29.0157667 54.75,28.77 C53.9823667,28.5588538 53.1603916,28.772968 52.5933245,29.3317869 C52.0262574,29.8906057 51.8001233,30.7093556 52,31.48 C52.1589832,32.0551976 52.612754,32.5018856 53.1903813,32.6518009 C53.7680086,32.8017162 54.3817372,32.6320832 54.8003813,32.2068009 C55.2190254,31.7815186 55.3789832,31.1651976 55.22,30.59 L55.23,30.59 Z" id="Path" fill="#1D8341"></path>
                <path d="M56.41,30.89 L55.89,31.58 C55.67,31.66 55.62,31.69 55.75,31.66 C55.88,31.63 55.35,31.66 55.75,31.66 C55.9864214,31.6752362 56.2235786,31.6752362 56.46,31.66 C57.1561416,31.5554674 57.7707958,31.1493566 58.14,30.55 C58.94,29.3 58.23,27.31 56.56,27.42 C55.9343498,27.3714767 55.3343082,27.6777869 55.0066283,28.2129677 C54.6789483,28.7481485 54.6789483,29.4218515 55.0066283,29.9570323 C55.3343082,30.4922131 55.9343498,30.7985233 56.56,30.75 L55.62,30.35 L55.19,29.62 C55.11471,29.3397217 55.1543009,29.0409905 55.3,28.79 C55.21,28.93 55.24,28.9 55.39,28.68 L55.89,28.39 C56.32,28.25 56.04,28.39 55.89,28.39 C55.74,28.39 55.49,28.39 55.29,28.39 C54.3296661,28.4548409 53.5019415,29.0894298 53.19,30 C52.9528803,30.8908445 53.4734299,31.8073677 54.36,32.06 C55.2460961,32.2797592 56.1485474,31.7647017 56.41,30.89 Z" id="Path" fill="#1D8341"></path>
                <path d="M27.53,59.09 L27.63,57.72 L27.14,58.9 C27.57,58.77 27.63,58.66 27.33,58.55 C27.03,58.44 26.85,58 27.18,57.42 C26.7225479,57.9041253 26.5921178,58.6117888 26.8469152,59.2271895 C27.1017127,59.8425902 27.69421,60.2509363 28.36,60.27 C28.86,60.27 28.72,60.6 29.12,60.27 C29.52,59.94 29.37,60.37 29.22,60.04 C29.16,59.91 28.93,59.75 28.82,59.65 C28.2240242,58.9370379 27.3663155,58.4937683 26.44,58.42 C25.9807675,58.420591 25.5307179,58.548682 25.14,58.79 C24.95,58.9 24.02,59.53 24.04,59.79 L25.63,60.28 L25.63,60.13 C25.73,60.01 25.73,59.58 25.76,59.43 C25.79,59.28 26.03,58.02 26.53,58.13 L25.38,57 C25.5846743,58.0723646 26.0029711,59.0926008 26.61,60 C27.79,61.79 30.68,60.12 29.49,58.32 C29.0448782,57.6521824 28.7419299,56.8999175 28.6,56.11 C28.4485047,55.5401829 28.0010964,55.0965986 27.43,54.95 C24.26,54.2 22.49,57.24 22.32,60.01 C22.1378752,61.1926454 22.7739526,62.349896 23.87,62.83 C24.5314653,63.0781982 25.2707812,63.0042666 25.87,62.63 C26.0705144,62.5023203 26.2551427,62.3512607 26.42,62.18 C26.53,62.07 26.63,61.96 26.73,61.84 C27,61.59 26.81,61.55 26.14,61.71 C26.3975964,62.0053801 26.6784994,62.2795949 26.98,62.53 C27.3821288,62.9104551 27.858851,63.2032988 28.38,63.39 C29.5612822,63.755523 30.8433059,63.314701 31.55,62.3 C33.44,59.74 30.96,57.22 28.38,56.93 L29.56,59.78 C30.190265,59.1247416 30.4374007,58.1904341 30.2135433,57.30925 C29.9896859,56.4280659 29.3265881,55.7249955 28.46,55.45 C27.4268655,55.170926 26.3228813,55.3770031 25.46,56.01 C24.25,56.79 24.29,57.77 24.19,59.09 C24.03,61.23 27.37,61.22 27.53,59.09 Z" id="Path" fill="#FEEB3D"></path>
                <path d="M127.77,52.08 C128.01,51.83 128.68,50.97 129.09,51.08 C129.26,51.08 129.33,51.64 129.46,51.91 C129.824035,52.8587113 130.724168,53.4943314 131.74,53.52 L130.3,51 C130.3,51 127.77,50.49 127.4,50.5 C126.811788,50.507775 126.235925,50.6698441 125.73,50.97 C125.509652,51.1109418 125.305137,51.275224 125.12,51.46 C124.69,51.87 124.47,51.93 125.12,51.88 L126.3,52.37 L126.12,52.21 L126.38,54.21 C126.05,54.66 126.19,54.5 126.71,54.72 C127.035279,54.8813827 127.369107,55.0249286 127.71,55.15 C128.324117,55.3259594 128.969616,55.3635281 129.6,55.26 C130.861441,55.0199808 131.982188,54.3038489 132.73,53.26 C133.48685,52.2803248 133.811835,51.0345497 133.63,49.81 C133.41,48.38 132.2,47.41 131.93,46.04 C131.62,44.5 129.64,44.58 128.93,45.64 C127.99366,46.9179648 126.625863,47.8132502 125.08,48.16 C123,48.67 123.88,51.89 125.97,51.38 C128.334334,50.7923111 130.407672,49.3722165 131.81,47.38 L128.76,46.98 C129,48.17 129.81,48.98 130.26,50.03 C130.40461,50.3900538 130.395586,50.7936005 130.235027,51.1468306 C130.074468,51.5000607 129.776359,51.7722049 129.41,51.9 C128.51,52.25 127.53,51.33 126.63,51.19 C125.421422,50.9743702 124.200974,51.5019188 123.53,52.53 C123.169144,53.1816328 123.27453,53.9922896 123.79,54.53 C124.480111,55.2833493 125.627073,55.3954583 126.45,54.79 C126.77,54.58 126.98,54.24 127.28,54.04 C127.58,53.84 127.69,53.77 128.28,53.9 C130.15,54.28 132,54.48 133.18,52.65 C133.473756,52.1331455 133.472478,51.4995258 133.176638,50.9838609 C132.880799,50.468196 132.334456,50.1472823 131.74,50.14 C132.406667,50.6733333 132.616667,50.6733333 132.37,50.14 L132.25,49.84 C132.119219,49.4783114 131.930045,49.1405011 131.69,48.84 C131.227063,48.2777977 130.584145,47.8927537 129.87,47.75 C128.08,47.35 126.59,48.47 125.41,49.68 C123.91,51.22 126.27,53.58 127.77,52.04 L127.77,52.08 Z" id="Path" fill="#FEEB3D"></path>
                <path d="M60,73.46 L61.55,73.62 L60.71,70.51 C60.1060073,71.0257304 59.2987824,71.23583 58.52,71.08 C57.9372392,70.8993111 57.3023237,71.0508113 56.8639341,71.4751616 C56.4255445,71.8995119 56.2534663,72.5291619 56.4150981,73.1174932 C56.57673,73.7058245 57.0463425,74.1591833 57.64,74.3 C59.2801971,74.7068908 61.016323,74.3742856 62.39,73.39 C63.0234551,72.999897 63.324916,72.2396396 63.1309319,71.5214364 C62.9369477,70.8032332 62.2937183,70.2981333 61.55,70.28 L60,70.12 C59.0799557,70.1254603 58.3354603,70.8699557 58.33,71.79 C58.351128,72.7034209 59.0865791,73.438872 60,73.46 Z" id="Path" fill="#FEEB3D"></path>
                <path d="M67.69,33.75 C66.2873301,32.2677213 64.5820464,31.1047178 62.69,30.34 C61.801645,30.1034161 60.8881153,30.6247965 60.64,31.51 C60.4500568,32.3795657 60.9589268,33.2494289 61.81,33.51 C63.1523822,34.1032006 64.3550585,34.9719894 65.34,36.06 C66.8,37.64 69.16,35.28 67.7,33.7 L67.69,33.75 Z" id="Path" fill="#1D8341"></path>
                <path d="M61.16,33 C62.97,32.94 64.16,34.5 65.29,35.7 C66.3349833,36.8698235 67.6352185,37.7834098 69.09,38.37 L69.53,35.1 C67.9678644,34.9119902 66.5261389,34.1662701 65.47,33 C64.54,32 63.87,30.82 62.54,30.22 C60.6,29.35 58.9,32.22 60.86,33.1 C62.38,33.79 63.23,35.69 64.6,36.68 C66.0562292,37.703521 67.7568669,38.3244435 69.53,38.48 C71.53,38.72 71.58,35.83 69.98,35.21 C68.38,34.59 67.18,32.71 65.8,31.55 C64.5430471,30.3697946 62.8841843,29.7119697 61.16,29.71 C59.01,29.78 59,33.12 61.16,33.05 L61.16,33 Z" id="Path" fill="#1D8341"></path>
                <path d="M70.43,29.59 C71.61,26.71 71.43,21.59 67.81,20.53 C65.74,19.94 64.86,23.16 66.92,23.75 C67.62,23.95 67.73,25.41 67.76,26.01 C67.7838213,26.9368429 67.5957076,27.8568898 67.21,28.7 C66.39,30.7 69.62,31.55 70.43,29.59 Z" id="Path" fill="#1D8341"></path>
                <path d="M70,30.26 C71.2428507,28.9134868 71.6495727,26.994987 71.06,25.26 C70.61,23.53 69.77,21.51 67.65,21.62 C65.53,21.73 65.5,25.06 67.65,24.95 C67.37,24.68 67.29,24.65 67.41,24.87 C67.482075,25.0366141 67.5454929,25.206841 67.6,25.38 C67.7174997,25.7069356 67.8143569,26.040926 67.89,26.38 C68.100608,26.9030437 68.0043739,27.4996953 67.64,27.93 C66.11,29.44 68.47,31.8 70,30.29 L70,30.26 Z" id="Path" fill="#1D8341"></path>
                <path d="M64.75,36.29 C67.1268366,37.740749 69.6768956,38.8864277 72.34,39.7 C73.4746675,40.1640293 74.6948404,40.3821608 75.92,40.34 C77.05,40.16 77.69,39.34 78.65,38.79 L77,35.9 C76.2,36.39 75.48,37.22 74.5,37.34 C73.7417113,37.3107499 72.991181,37.1761256 72.27,36.94 C69.97,36.47 68.52,35.88 67.57,33.53 C66.78,31.53 63.57,32.42 64.35,34.41 C65.62,37.56 67.35,39.23 70.64,40 C72.1616602,40.4843894 73.7536246,40.7108472 75.35,40.67 C76.75,40.49 77.54,39.48 78.68,38.79 C79.4780513,38.3260808 79.748919,37.3030515 79.2849998,36.5050001 C78.8210807,35.7069487 77.7980515,35.4360809 77,35.9 C76,36.47 75.79,37.03 74.46,36.82 C73.6200877,36.6541748 72.7967765,36.4132057 72,36.1 C70.0445403,35.4012968 68.1676356,34.4997123 66.4,33.41 C64.55,32.3 62.87,35.19 64.71,36.29 L64.75,36.29 Z" id="Path" fill="#1D8341"></path>
                <path d="M62.49,33.92 L66.62,37.86 C68.18,39.35 70.54,36.99 68.98,35.5 L64.85,31.56 C63.3,30.07 60.94,32.43 62.49,33.92 Z" id="Path" fill="#1D8341"></path>
                <path d="M77.38,36.12 C71.71,39.12 66.54,36.36 64.89,30.39 C64.5915438,29.574402 63.7177645,29.1237002 62.8801778,29.3533189 C62.0425911,29.5829377 61.5208083,30.4162235 61.68,31.27 C63.92,39.43 71.55,42.96 79.07,39.01 C80.97,38.01 79.28,35.12 77.38,36.12 Z" id="Path" fill="#1D8341"></path>
                <path d="M67.51,31.17 C67.5187823,30.6255055 67.492059,30.0810176 67.43,29.54 L67.43,28.99 C66.43,29.72 66.25,29.99 66.75,29.88 C67.4938257,29.7051359 68.0860008,29.1435246 68.3,28.41 C68.73,26.92 67.3,25.63 65.94,25.41 C64.47052,25.2118494 63.0767065,26.1169783 62.66,27.54 C62.15,29.3 63.24,30.28 64.27,31.43 L63.73,30.13 L63.87,29.63 L64.98,28.78 L64.78,28.78 L66.2,32.16 C66.941848,31.8330945 67.6012541,31.3445189 68.13,30.73 L65.24,30.36 L65.31,30.02 C64.54,31.02 64.62,32.84 66.12,33.11 C66.84,33.23 67,33.68 67.55,34.11 C67.7770126,34.2850594 68.0300913,34.4234091 68.3,34.52 C68.19,34.52 69.41,34.72 69.1,34.52 L68.26,33.41 L68.26,33.64 L70.04,31.3 C69.75,31.3 69.14,31.44 68.96,31.2 C68.78,30.96 69.33,30.2 69.49,29.99 L66.12,28.56 C66.85,28.25 66.97,28.03 66.48,27.89 C66.1976629,27.7405943 65.9072117,27.6070535 65.61,27.49 C65.1174165,27.2764205 64.5868772,27.164191 64.05,27.16 C62.9870151,27.1843839 62.0101564,27.7501321 61.46,28.66 C61.1108101,29.2344295 61.1108101,29.9555705 61.46,30.53 C61.8070117,31.064272 62.2811817,31.5040819 62.84,31.81 C63.1120497,31.9577859 63.3964585,32.0815874 63.69,32.18 C64.25,32.38 63.69,32.41 63.69,32.18 C63.6088661,32.9303958 63.844352,33.6806314 64.3397565,34.2500618 C64.835161,34.8194923 65.545596,35.1565222 66.3,35.18 C68.67,35.28 68.67,31.59 66.3,31.49 C67.1333333,32.4566667 67.4933333,32.5566667 67.38,31.79 C67.3487695,31.4944183 67.3020385,31.2006805 67.24,30.91 C67.0824731,30.4375303 66.8151612,30.0091459 66.46,29.66 C66.1315628,29.369044 65.7562668,29.1357519 65.35,28.97 C65.29,28.97 64.43,28.46 64.6,28.71 L64.6,30.58 C64.54,30.67 64.16,30.8 64.16,30.92 C64.4988863,31.1157163 64.8534375,31.2829574 65.22,31.42 C65.7872886,31.6628042 66.4046284,31.7656941 67.02,31.72 C68.2519035,31.6337201 69.2985839,30.7867879 69.64,29.6 C70.33,27.44 67.44,26.6 66.27,28.17 C65.1255475,29.5642791 64.9173671,31.5046774 65.74,33.11 C66.61,34.7 68.32,35.11 70,35.04 C70.5712747,35.0300797 71.1066678,34.7595341 71.453524,34.3055033 C71.8003801,33.8514725 71.9206348,33.2637825 71.78,32.71 C71.487062,31.5923891 70.4309301,30.8488721 69.28,30.95 C68.8,30.95 69.63,31.19 69.28,30.84 C69.0893499,30.6308051 68.8705978,30.4490726 68.63,30.3 C68.1330827,29.9653746 67.5706128,29.7403866 66.98,29.64 L67.79,32.72 C68.8290887,31.5908702 69.0303963,29.9240435 68.29,28.58 C67.9969001,28.0907722 67.4955595,27.7630493 66.9298372,27.6908709 C66.3641148,27.6186925 65.7965483,27.8100376 65.39,28.21 C65.0724582,28.5903377 64.6627654,28.8829754 64.2,29.06 C63.4029085,29.5255369 63.08056,30.5140724 63.45,31.36 C63.8179375,32.2011037 64.7395499,32.6534548 65.63,32.43 C66.5829497,32.2310052 67.2741979,31.4031631 67.3,30.43 C67.3154593,30.0241242 67.2259047,29.6211282 67.04,29.26 C66.8777005,29.0379337 66.70414,28.8243209 66.52,28.62 C66.012485,28.1042973 65.2091643,28.0243858 64.61,28.43 L65.08,26.63 C65.61,26.38 65.67,26.31 65.26,26.43 C64.9556705,26.5181706 64.6775682,26.6795386 64.45,26.9 C64.1359408,27.1646878 63.900701,27.5106287 63.77,27.9 C63.5483719,28.9805872 63.531412,30.0931595 63.72,31.18 C63.84,33.54 67.53,33.56 67.41,31.18 L67.51,31.17 Z" id="Path" fill="#FEEB3D"></path>
                <path d="M6.45,64.78 L1.22,64.65 C0.71189803,64.65 0.3,65.061898 0.3,65.57 C0.3,66.078102 0.71189803,66.49 1.22,66.49 L6.45,66.63 C6.92377835,66.5806723 7.2836932,66.1813393 7.2836932,65.705 C7.2836932,65.2286607 6.92377835,64.8293277 6.45,64.78 Z" id="Path" fill="#FEEB3D"></path>
                <path d="M18.73,46.81 C15.5396827,43.5290667 11.8756525,40.7448082 7.86,38.55 C6.86,37.98 5.86,39.55 6.93,40.14 C10.8082567,42.2652308 14.344536,44.9621073 17.42,48.14 C18.25,48.99 19.56,47.69 18.73,46.84 L18.73,46.81 Z" id="Path" fill="#FEEB3D"></path>
                <path d="M46.3,47.65 L32.44,28.08 C31.76,27.08 30.16,28.08 30.85,29.01 L44.71,48.58 C45.39,49.58 46.99,48.58 46.3,47.65 Z" id="Path" fill="#FEEB3D"></path>
                <path d="M50.51,21.62 C49.51,15.76 45.63,10.48 42.78,5.38 C42.2,4.38 40.61,5.27 41.19,6.31 C43.94,11.25 47.76,16.47 48.73,22.11 C48.93,23.28 50.73,22.78 50.51,21.62 Z" id="Path" fill="#FEEB3D"></path>
                <path d="M72.56,12.85 C73.2062917,9.13383189 74.0778993,5.46038981 75.17,1.85 C75.2709136,1.37427921 74.9841615,0.902186131 74.515483,0.772438984 C74.0468045,0.642691837 73.5580973,0.900109732 73.4,1.36 C72.2998778,4.96891637 71.4248615,8.6426488 70.78,12.36 C70.58,13.52 72.36,14.02 72.56,12.85 Z" id="Path" fill="#FEEB3D"></path>
                <path d="M97.17,46.18 C98.18,36 101.55,26 104,16.13 C104.13531,15.6384666 103.846533,15.1303098 103.355,14.995 C102.863467,14.8596902 102.35531,15.1484666 102.22,15.64 C99.69,25.64 96.32,35.86 95.28,46.18 C95.16,47.36 97.01,47.36 97.13,46.18 L97.17,46.18 Z" id="Path" fill="#FEEB3D"></path>
                <path d="M28.91,87.41 C58.45,96.06 90.14,101.92 119.99,91.29 C121.65,90.69 120.93,88.02 119.25,88.62 C89.84,99.09 58.74,93.27 29.64,84.75 C28.9165515,84.5781105 28.1869925,85.0103296 27.9902012,85.7274048 C27.7934098,86.4444801 28.2001549,87.188542 28.91,87.41 Z" id="Path" fill="#010101"></path>
                <path d="M120.05,91.25 L124.68,89.4 C125.95,88.9 127.44,88.52 128.2,87.29 C129.4,85.37 129.04,81.37 126.03,81.7 C124.28,81.89 124.26,84.7 126.03,84.47 C126.102374,84.82987 126.078223,85.2024835 125.96,85.55 C125.691437,85.9859193 125.2591,86.2957608 124.76,86.41 C124.228755,86.6558312 123.684631,86.8728134 123.13,87.06 L119.31,88.58 C117.68,89.23 118.39,91.91 120.05,91.25 Z" id="Path" fill="#010101"></path>
                <path d="M146.31,49 C150.581195,47.4877618 154.938967,46.2321893 159.36,45.24 C160.52,44.98 160.03,43.24 158.87,43.46 C154.448967,44.4521893 150.091195,45.7077618 145.82,47.22 C144.71,47.61 145.19,49.39 146.31,49 Z" id="Path" fill="#FEEB3D"></path>
                <path d="M115.42,43.83 C116.8,40.27 120.42,36.92 122.72,33.91 L129.72,24.84 C130.44,23.92 129.15,22.6 128.42,23.54 L119.54,35 C117.54,37.61 114.85,40.2 113.64,43.32 C113.21,44.43 114.99,44.91 115.42,43.81 L115.42,43.83 Z" id="Path" fill="#FEEB3D"></path>
            </g>
        </g>
    </g>
</svg>
