
<svg width="243px" height="295px" viewBox="0 0 243 295" version="1.1" xmlns="http://www.w3.org/2000/svg" xmlns:xlink="http://www.w3.org/1999/xlink">
    <!-- Generator: Sketch 51.3 (57544) - http://www.bohemiancoding.com/sketch -->
    <desc>Created with Sketch.</desc>
    <defs></defs>
    <g id="Page-1" stroke="none" stroke-width="1" fill="none" fill-rule="evenodd">
        <g id="broccoli-breakdown" transform="translate(-1334.000000, -101.000000)" fill-rule="nonzero">
            <g id="pills" transform="translate(1334.000000, 101.000000)">
                <path d="M50.11,131.16 C50.303204,131.149999 50.496796,131.149999 50.69,131.16 C50.57,130.913333 50.46,130.663333 50.36,130.41 C50.28,130.66 50.2,130.91 50.11,131.16 Z" id="Shape" fill="#E4C93B"></path>
                <path d="M165.07,225.61 C165.192867,225.625168 165.317133,225.625168 165.44,225.61 L165.04,225.61 L165.07,225.61 Z" id="Shape" fill="#E4C93B"></path>
                <path d="M0.27,141.35 C0.0766237997,141.745693 0.0443586101,142.200991 0.18,142.62 C0.327129323,143.05168 0.635206956,143.40991 1.04,143.62 C1.44076124,143.795153 1.89042737,143.823478 2.31,143.7 L3.91,143.39 C5.72,143.05 7.55,142.76 9.37,142.45 C9.91,142.35 10.46,142.31 11.01,142.24 L13.67,141.94 C13.96,141.94 14.26,141.94 14.55,141.94 L16.27,141.86 C17.01,141.86 17.76,141.86 18.51,141.86 C20.26,141.86 22.02,141.86 23.78,141.97 C24.2353877,141.954419 24.6618777,141.742996 24.95,141.39 C25.2381221,141.058322 25.3883984,140.628961 25.37,140.19 C25.3384396,139.735947 25.1302241,139.312337 24.79,139.01 C24.4490182,138.73241 24.0194909,138.586868 23.58,138.6 C21.78,138.51 19.96,138.48 18.15,138.48 C17.41,138.48 16.68,138.48 15.94,138.48 L14.21,138.55 L13.4,138.55 C11.82,138.74 10.23,138.87 8.66,139.14 C6.19,139.57 3.72,139.99 1.26,140.47 C1.12359423,140.496358 0.994177131,140.550849 0.88,140.63 C0.619869966,140.807013 0.409774264,141.048106 0.27,141.33 L0.27,141.35 Z" id="Shape" fill="#FEEB3D"></path>
                <path d="M18.51,105.68 C18.1046157,106.520034 18.4471928,107.529969 19.28,107.95 C19.99,108.23 20.69,108.54 21.38,108.89 C22.0511172,109.243673 22.7021156,109.634272 23.33,110.06 C24.27,110.72 25.21,111.38 26.13,112.06 C27.05,112.74 28.24,113.66 29.31,114.42 C29.6518495,114.696016 30.0807766,114.841355 30.52,114.83 C30.9752045,114.802757 31.4003784,114.593774 31.7,114.25 C31.9910573,113.920584 32.1386363,113.488645 32.11,113.05 C32.095971,112.591407 31.8845274,112.161229 31.53,111.87 C30.15,110.87 28.8,109.87 27.44,108.82 C26.84,108.37 26.22,107.95 25.6,107.53 C24.0984874,106.464613 22.4774643,105.578588 20.77,104.89 C20.371767,104.706285 19.9201614,104.674282 19.5,104.8 C19.3542716,104.846216 19.2161283,104.913603 19.09,105 C18.8392139,105.16197 18.638402,105.39048 18.51,105.66 L18.51,105.68 Z" id="Shape" fill="#FEEB3D"></path>
                <path d="M55.12,75.62 C55.99,77.88 56.82,80.16 57.73,82.41 C58.2,83.58 58.73,84.75 59.18,85.91 C59.63,87.07 60.38,88.49 61.01,89.76 C61.2556636,90.1383127 61.6463023,90.3987385 62.09,90.48 C62.5297324,90.569638 62.9870497,90.4796149 63.36,90.23 C63.7289432,89.9794675 63.9868854,89.5961368 64.08,89.16 C64.1496194,88.7204202 64.061032,88.2703965 63.83,87.89 L63.48,87.19 C63.08,86.35 62.67,85.5 62.3,84.64 C61.81,83.49 61.3,82.34 60.86,81.18 C59.98,78.99 59.18,76.76 58.34,74.56 C58.0320632,73.6840607 57.0875725,73.2074019 56.2,73.48 C56.0626621,73.5270079 55.9316672,73.5908259 55.81,73.67 C55.1655221,74.0891962 54.8826013,74.8887551 55.12,75.62 Z M63.49,87.2 C63.49,87.3 63.58,87.39 63.62,87.48 L63.49,87.2 Z" id="Shape" fill="#FEEB3D"></path>
                <path d="M209.49,256.66 C209.49,256.82 209.49,256.98 209.56,257.14 C209.771591,256.869882 209.897027,256.542355 209.92,256.2 C209.78,256.36 209.64,256.51 209.49,256.66 Z" id="Shape" fill="#FEEB3D"></path>
                <path d="M177.77,245.64 C177.678589,246.080377 177.766488,246.539026 178.014237,246.914404 C178.261986,247.289781 178.649146,247.550918 179.09,247.64 C182.09,248.14 185.02,248.71 187.94,249.43 C190.86,250.15 193.82,250.93 196.76,251.73 C197.679366,251.914059 198.574176,251.319011 198.76,250.4 C198.851177,249.958187 198.761928,249.498258 198.512124,249.122613 C198.262319,248.746967 197.872696,248.486787 197.43,248.4 C194.5,247.61 191.57,246.84 188.62,246.11 C185.67,245.38 182.74,244.81 179.77,244.31 C179.324616,244.238252 178.868458,244.334473 178.49,244.58 C178.119142,244.82219 177.862814,245.204875 177.78,245.64 L177.77,245.64 Z" id="Shape" fill="#FEEB3D"></path>
                <path d="M158.7,268.31 C158.098673,269.018992 158.169535,270.077488 158.86,270.7 L161.67,273.3 C162.55,274.14 163.38,275.02 164.18,275.92 C164.18,275.92 164.09,275.81 164.04,275.75 L164.2,275.95 L164.33,276.1 L164.21,275.96 C165.93,277.96 167.54,280.03 169.11,282.13 L171.22,284.97 C171.51,285.38 171.81,285.78 172.1,286.18 C172.39,286.58 172.55,286.82 172.78,287.18 C173.01,287.54 173.27,287.83 173.49,288.18 C173.167094,288.883112 173.332486,289.714108 173.9,290.24 C174.234149,290.529727 174.668557,290.676923 175.11,290.65 C175.564053,290.61844 175.987663,290.410224 176.29,290.07 C176.647475,289.769933 176.899738,289.36351 177.01,288.91 C177.096232,288.399015 177.044448,287.874273 176.86,287.39 C176.54176,286.642982 176.117387,285.945798 175.6,285.32 L174.35,283.6 C173.356667,282.266667 172.356667,280.933333 171.35,279.6 C170.43,278.39 169.48,277.21 168.54,276.02 C167.6,274.83 166.79,273.92 165.88,272.9 C164.38,271.24 162.7,269.75 161.07,268.23 C160.513232,267.690157 159.661691,267.595541 159,268 C158.878633,268.082909 158.767817,268.180293 158.67,268.29 L158.7,268.31 Z" id="Shape" fill="#FEEB3D"></path>
                <path d="M130.2,272.59 C129.828056,273.236652 129.494156,273.904454 129.2,274.59 C128.886847,275.452599 128.642745,276.338722 128.47,277.24 C128.243369,278.423101 128.086432,279.618493 128,280.82 C127.88,282.15 127.77,283.47 127.66,284.82 C127.42,287.64 127.1,290.47 127.1,293.31 C127.102419,293.934936 127.449512,294.507527 128.002451,294.798748 C128.55539,295.089969 129.223906,295.052278 129.740607,294.700751 C130.257308,294.349224 130.537841,293.741248 130.47,293.12 C130.47,292.06 130.53,291.01 130.6,289.96 C130.74,288.22 130.89,286.47 131.03,284.73 C131.11,283.73 131.2,282.73 131.3,281.73 C131.418676,279.856267 131.730325,277.999775 132.23,276.19 C132.518407,275.472714 132.852423,274.774621 133.23,274.1 C133.640421,273.263222 133.295935,272.252134 132.46,271.84 C131.925134,271.579686 131.291865,271.625465 130.8,271.96 C130.546051,272.12413 130.339256,272.351604 130.2,272.62 L130.2,272.59 Z M130.61,290.01 C130.61,290.1 130.61,290.2 130.61,290.3 C130.61,290.2 130.61,290.1 130.61,290.01 Z" id="Shape" fill="#FEEB3D"></path>
                <path d="M51.08,182.78 C50.6743308,182.195846 49.9509757,181.921607 49.26,182.09 C49.87,182.3 50.48,182.53 51.08,182.78 Z" id="Shape" fill="#FEEB3D"></path>
                <path d="M115.56,111.14 C115.530228,110.96122 115.510198,110.780954 115.5,110.6 L115.5,110.5 C115.480079,110.715208 115.500426,110.932244 115.56,111.14 Z" id="Shape" fill="#EBCF42"></path>
                <path d="M93.82,258.29 C93.3,261.02 92.82,263.75 92.25,266.48 C92.05,267.58 91.83,268.68 91.61,269.77 C91.39,270.86 91.15,272.25 90.79,273.46 L90.67,273.76 C90.4908157,274.162908 90.4589589,274.615982 90.58,275.04 C90.8014478,275.688871 91.391002,276.141207 92.0750825,276.187104 C92.7591629,276.233001 93.4038582,275.863474 93.71,275.25 C94.2131051,273.836545 94.5879511,272.38067 94.83,270.9 C95.07,269.68 95.32,268.47 95.55,267.24 C96.07,264.48 96.6,261.716667 97.14,258.95 C97.2722083,258.279245 96.9872721,257.594907 96.4180957,257.216186 C95.8489193,256.837464 95.1076333,256.83897 94.54,257.22 C94.1679938,257.467468 93.9091219,257.85218 93.82,258.29 Z" id="Shape" fill="#FEEB3D"></path>
                <path d="M32,181.8 C31.9107735,182.238429 31.9969348,182.694366 32.24,183.07 C32.489004,183.444995 32.8780796,183.704379 33.32,183.79 C33.7596973,183.868001 34.2126717,183.778833 34.59,183.54 C35.81,182.91 37.04,182.3 38.27,181.7 L38.12,181.77 L38.33,181.66 L38.53,181.57 L38.37,181.65 C40.22,180.76 42.08,179.84 43.97,179.03 C45.03,178.58 46.08,178.09 47.15,177.69 C48.71,177.1 50.26,176.51 51.82,175.95 C52.6959393,175.642063 53.1725981,174.697572 52.9,173.81 C52.6006175,172.931723 51.6554256,172.45247 50.77,172.73 L47.77,173.86 C47.14,174.1 46.48,174.32 45.86,174.59 C44.52,175.16 43.17,175.71 41.86,176.32 C38.86,177.74 35.76,179.18 32.78,180.73 L32.7,180.73 C32.3692621,180.971704 32.1409548,181.328434 32.06,181.73 L32,181.8 Z M38.37,181.65 L38.31,181.65 L38.41,181.6 L38.37,181.65 Z" id="Shape" fill="#FEEB3D"></path>
                <path d="M74.3,210 C71.51,212.93 68.76,215.88 66.02,218.85 C63.28,221.82 60.68,224.65 57.81,227.34 C57.3616127,227.85246 57.2645742,228.583961 57.5638417,229.195602 C57.8631093,229.807244 58.500218,230.179537 59.18,230.14 C59.6340526,230.10844 60.0576634,229.900224 60.36,229.56 C63.2,226.91 65.83,224.04 68.47,221.18 C71.11,218.32 74.03,215.18 76.85,212.18 C77.4013503,211.537528 77.3922369,210.586229 76.8286792,209.954438 C76.2651215,209.322647 75.3210391,209.205341 74.62,209.68 C74.5019705,209.759489 74.3944531,209.853567 74.3,209.96 L74.3,210 Z" id="Shape" fill="#FEEB3D"></path>
                <path d="M150.75,140.53 C148.19,142.843333 145.616667,145.146667 143.03,147.44 L139.36,150.72 C138.01,151.93 136.73,153.21 135.44,154.48 C134.991613,154.99246 134.894574,155.723961 135.193842,156.335602 C135.493109,156.947244 136.130218,157.319537 136.81,157.28 C137.262399,157.242382 137.683877,157.035214 137.99,156.7 C139.28,155.43 140.58,154.18 141.91,152.94 C143.24,151.7 144.35,150.75 145.58,149.66 C148.173333,147.366667 150.746667,145.063333 153.3,142.75 C153.599823,142.421726 153.748511,141.982916 153.71,141.54 C153.686439,141.086013 153.480973,140.660661 153.14,140.36 C152.801298,140.078311 152.370172,139.932227 151.93,139.95 C151.646929,139.966053 151.373683,140.05944 151.14,140.22 C151.001016,140.311497 150.870496,140.415243 150.75,140.53 Z" id="Shape" fill="#FEEB3D"></path>
                <path d="M116.39,247.9 C116.225611,248.085485 116.225611,248.364515 116.39,248.55 L116.56,248.71 L117.24,249.37 C117.291714,249.428362 117.348614,249.481914 117.41,249.53 C118.12,250.17 118.85,250.78 119.62,251.36 C120.09,251.71 120.62,252.04 121.05,252.36 L121.14,252.42 C122.356081,253.219493 123.629544,253.928087 124.95,254.54 L125.02,254.54 C129.675669,256.653099 134.795165,257.537908 139.89,257.11 C147.893707,256.407123 155.26951,252.486209 160.328984,246.244808 C165.388459,240.003407 167.698389,231.975938 166.73,224 C166.65,223.38 166.56,222.77 166.44,222.16 C166.44,222.16 166.44,222.09 166.44,222.05 C166.3,221.303333 166.13,220.563333 165.93,219.83 C165.891102,219.707382 165.804614,219.605508 165.689933,219.547228 C165.575253,219.488947 165.441978,219.479138 165.32,219.52 C165.068299,219.605571 164.930746,219.876239 165.01,220.13 C165.21,220.85 165.37,221.57 165.51,222.3 C165.949655,224.710174 166.090717,227.165331 165.93,229.61 C165.739602,232.038487 165.259528,234.435499 164.5,236.75 C164.5,236.75 164.5,236.75 164.5,236.75 L164.5,236.83 C163.695422,239.1791 162.596686,241.41689 161.23,243.49 L161.3,243.39 C159.877577,245.529907 158.179659,247.473267 156.25,249.17 C156.278698,249.138005 156.312486,249.110974 156.35,249.09 C154.354116,250.826139 152.138425,252.292059 149.76,253.45 L149.88,253.4 C147.584867,254.496204 145.158303,255.292735 142.66,255.77 C140.249826,256.209655 137.794669,256.350717 135.35,256.19 L135.28,256.19 C132.839028,256.000222 130.430818,255.509848 128.11,254.73 C127.22,254.43 126.35,254.08 125.49,253.73 C124.103139,253.098499 122.765997,252.363071 121.49,251.53 C121.02,251.21 120.55,250.88 120.1,250.53 C119.39,249.99 118.71,249.42 118.1,248.83 C118.054578,248.845245 118.005422,248.845245 117.96,248.83 L117.77,248.69 L117.54,248.49 C117.324894,248.313003 117.121157,248.122626 116.93,247.92 L116.74,247.71 C116.636532,247.71048 116.53556,247.741816 116.45,247.8 L116.36,247.88 L116.39,247.9 Z" id="Shape" fill="#171717"></path>
                <polygon id="Shape" fill="#171717" points="117.99 248.86 117.99 248.85 117.99 248.86 117.99 248.86"></polygon>
                <polygon id="Shape" fill="#171717" points="135.4 256.3 135.39 256.3 135.4 256.3 135.4 256.3"></polygon>
                <polygon id="Shape" fill="#171717" points="164.61 236.95 164.62 236.95 164.62 236.94 164.61 236.95 164.61 236.95"></polygon>
                <path d="M164.62,236.94 C164.615664,236.920235 164.615664,236.899765 164.62,236.88 L164.62,236.95 L164.62,236.94 Z" id="Shape" fill="#171717"></path>
                <path d="M163.69,216.12 C164.465539,217.883314 165.065113,219.718882 165.48,221.6 L165.48,221.66 C165.48,221.89 165.57,222.13 165.62,222.36 L165.62,222.43 L165.8,223.54 C165.81091,223.668833 165.867683,223.789476 165.96,223.88 C166.05802,223.960607 166.183491,224.000041 166.31,223.99 C166.437396,223.982288 166.556474,223.924156 166.640916,223.828456 C166.725358,223.732755 166.76821,223.607364 166.76,223.48 C166.66,222.8 166.54,222.13 166.4,221.48 L166.4,221.37 C166.161782,220.302089 165.86805,219.247324 165.52,218.21 C165.468561,218.063231 165.408455,217.919646 165.34,217.78 C165.26,217.61 165.17,217.44 165.08,217.28 C164.99,217.12 164.94,217.04 164.88,216.92 C164.82,216.8 164.65,216.49 164.52,216.28 L164.07,215.55 L164,215.55 L163.89,215.61 C163.698713,215.72541 163.615101,215.959524 163.69,216.17 L163.69,216.12 Z" id="Shape" fill="#171717"></path>
                <polygon id="Shape" fill="#171717" points="165.64 222.35 165.64 222.34 165.64 222.35 165.64 222.35"></polygon>
                <polygon id="Shape" fill="#171717" points="165.66 222.44 165.66 222.44 165.65 222.43 165.66 222.44 165.66 222.44"></polygon>
                <polygon id="Shape" fill="#171717" points="165.66 222.45 165.66 222.44 165.66 222.44 165.66 222.45 165.66 222.45"></polygon>
                <path d="M54.39,108.18 C50.2601559,111.619245 47.1711426,116.141948 45.47,121.24 C44.0556288,125.449805 43.6246011,129.927704 44.21,134.33 C44.6662297,137.804723 45.7541286,141.166703 47.42,144.25 L47.42,144.31 C47.51,144.43 47.6,144.55 47.7,144.66 C47.8,144.78 47.89,144.9 47.99,145.01 C48.0399882,145.074279 48.0867138,145.14103 48.13,145.21 C48.1767111,145.270955 48.2201072,145.33438 48.26,145.4 L48.51,145.76 L48.79,146.12 C48.97,146.35 49.15,146.58 49.32,146.82 C49.49,147.06 49.45,146.99 49.51,147.07 C49.5530843,147.062002 49.5939835,147.044961 49.63,147.02 C49.8577999,146.878157 49.9291288,146.579468 49.79,146.35 C49.62,146.09 49.45,145.83 49.27,145.57 C49.27,145.49 49.18,145.41 49.13,145.33 C49.1077446,145.307263 49.0906858,145.279968 49.08,145.25 L49.08,145.17 C48.4225074,144.085101 47.8346551,142.959497 47.32,141.8 C46.3307655,139.52833 45.638397,137.13865 45.26,134.69 C45.2661554,134.673902 45.2661554,134.656098 45.26,134.64 C44.9316854,132.320812 44.8846784,129.97046 45.12,127.64 C45.1246785,127.659726 45.1246785,127.680274 45.12,127.7 L45.12,127.62 C45.3871695,125.251676 45.941233,122.92461 46.77,120.69 L46.77,120.74 C47.6483758,118.440934 48.8107218,116.260696 50.23,114.25 C50.2090647,114.284949 50.1856725,114.318367 50.16,114.35 C51.6406955,112.281487 53.3892849,110.418567 55.36,108.81 L55.26,108.89 C57.2564038,107.277407 59.4550275,105.932683 61.8,104.89 C64.0655956,103.905318 66.448504,103.216324 68.89,102.84 L69.71,102.73 C71.8435487,102.495003 73.9964513,102.495003 76.13,102.73 L76.2,102.73 C76.81,102.79 77.42,102.89 78.02,103 L78.09,103 L78.18,103 L78.34,103 C79.9545132,103.309576 81.5401087,103.754479 83.08,104.33 C85.3393806,105.19449 87.4824909,106.336586 89.46,107.73 C90.01,108.12 90.53,108.53 91.05,108.96 L91.22,109.1 L91.35,109.21 L91.4,109.21 C92.5823364,110.232291 93.6793077,111.349328 94.68,112.55 L94.77,112.66 L94.83,112.73 L94.93,112.86 L95.09,112.98 C95.2098466,113.0578 95.3235167,113.144725 95.43,113.24 L95.73,113.51 L96.3,114.03 C96.3948389,114.111497 96.4849834,114.198303 96.57,114.29 L96.88,114.68 L96.97,114.79 C97.1699019,114.640844 97.225866,114.365328 97.1,114.15 C97,114 96.91,113.86 96.81,113.73 L96.61,113.46 L96.61,113.41 L96.19,112.85 C95.81,112.36 95.41,111.85 94.99,111.4 L94.94,111.33 L94.48,110.82 C94.41,110.75 94.33,110.69 94.27,110.62 L94.08,110.41 C93.9943337,110.321677 93.9141823,110.228167 93.84,110.13 C93.28,109.556667 92.7,109.016667 92.1,108.51 C89.9887698,106.713897 87.6315865,105.228871 85.1,104.1 C83.8741016,103.55148 82.6109516,103.09033 81.32,102.72 C80.88,102.59 80.44,102.47 79.99,102.36 C79.26,102.19 78.53,102.05 77.78,101.93 L77,101.81 C76.44,101.73 75.87,101.68 75.31,101.63 C74.56,101.58 73.81,101.55 73.06,101.56 L72.75,101.56 C71.92,101.56 71.11,101.62 70.29,101.7 L70.09,101.7 L69.95,101.7 L69.21,101.8 L68.7,101.88 C67.99,101.98 67.3,102.12 66.61,102.28 C64.8732596,102.684993 63.1789668,103.254222 61.55,103.98 C61.5236055,103.974612 61.4963945,103.974612 61.47,103.98 L61.03,104.18 C59.7121218,104.780549 58.4446993,105.486158 57.24,106.29 C56.3359021,106.893067 55.464661,107.543994 54.63,108.24 L54.39,108.18 Z M47.25,141.79 L47.25,141.89 L47.25,141.79 Z" id="Shape" fill="#171717"></path>
                <path d="M46.74,120.54 C46.7346579,120.523761 46.7346579,120.506239 46.74,120.49 C46.7346579,120.506239 46.7346579,120.523761 46.74,120.54 Z" id="Shape" fill="#171717"></path>
                <polygon id="Shape" fill="#171717" points="45.21 134.59 45.21 134.58 45.21 134.59 45.21 134.59"></polygon>
                <path d="M45.22,134.62 C45.2190302,134.603347 45.2190302,134.586653 45.22,134.57 L45.22,134.62 Z" id="Shape" fill="#171717"></path>
                <path d="M48.89,145.19 C48.68098,145.337013 48.6200344,145.619975 48.75,145.84 L49.75,147.34 L49.87,147.5 C49.8800407,147.525722 49.8800407,147.554278 49.87,147.58 C57.3966667,159.053333 64.9233333,170.53 72.45,182.01 L97,219.46 C100.42,224.66 103.833333,229.866667 107.24,235.08 L112.47,243.08 L114.56,246.27 L115.29,247.4 L115.41,247.54 C115.55,247.71 115.7,247.86 115.85,248.01 C116,248.16 116.29,248.49 116.52,248.71 L116.95,249.12 C117.058782,249.053734 117.136765,248.946948 117.166774,248.823157 C117.196784,248.699367 117.17636,248.568724 117.11,248.46 C116.92,248.15 116.71,247.84 116.5,247.53 L116.33,247.31 C116.133557,247.079614 115.968766,246.82402 115.84,246.55 C115.62,246.23 115.41,245.9 115.19,245.55 L112.72,241.78 L106.85,232.78 C103.016667,226.933333 99.18,221.083333 95.34,215.23 C87.1266667,202.71 78.9133333,190.19 70.7,177.67 C64.0333333,167.496667 57.3666667,157.33 50.7,147.17 L50.7,147.12 L50.57,146.97 L50.44,146.84 C50.4064776,146.790946 50.3697298,146.744176 50.33,146.7 C50.25,146.6 50.16,146.5 50.09,146.4 L50.03,146.33 L49.82,146.07 L49.76,145.99 C49.5732633,145.798485 49.3995424,145.594697 49.24,145.38 L49.09,145.19 C49.0369117,145.201192 48.9861621,145.221492 48.94,145.25 L48.89,145.19 Z" id="Shape" fill="#171717"></path>
                <polygon id="Shape" fill="#171717" points="49.69 145.85 49.69 145.84 49.69 145.85 49.69 145.85"></polygon>
                <path d="M97,114.85 L97.17,115.07 L97.33,115.31 C97.3319072,115.336633 97.3319072,115.363367 97.33,115.39 C97.33,115.39 97.33,115.44 97.33,115.47 L119.19,148.8 L145,188.1 L165.06,218.68 C165.205119,218.903203 165.499686,218.973547 165.73,218.84 C165.65,218.65 165.58,218.47 165.51,218.28 C165.44,218.09 165.37,217.91 165.29,217.73 C165.29,217.73 165.29,217.73 165.29,217.78 C165.2,217.6 165.1,217.42 165,217.24 L164.81,216.89 C164.69,216.67 164.58,216.45 164.45,216.24 C164.22,215.88 163.99,215.51 163.79,215.13 C163.781071,215.097265 163.781071,215.062735 163.79,215.03 L143.1,183.48 C134.506667,170.38 125.92,157.283333 117.34,144.19 L98.53,115.52 C98.479559,115.501686 98.4371094,115.466312 98.41,115.42 C98.21,115.12 98.02,114.82 97.81,114.53 C97.6,114.24 97.5,114.07 97.33,113.85 C97.16,113.63 96.9,113.28 96.67,113 C96.44,112.72 96.42,112.72 96.3,112.57 C96.18,112.42 96.02,112.27 95.87,112.13 C95.72,111.99 95.56,111.86 95.41,111.71 C95.26,111.56 95.12,111.42 94.97,111.29 L94.27,110.71 L94.15,110.61 L96.94,114.87 L97,114.85 Z" id="Shape" fill="#171717"></path>
                <path d="M102.06,176.65 C102.06,175.38 101.53,174.92 100.3,175.27 C98.61,174.93 98.5,175.13 99.97,175.84 L103.86,180.96 C104.230538,179.448112 104.961321,178.0483 105.99,176.88 L107.22,175.76 C109.44,174.83 108.7,174.16 104.98,173.76 L112.36,176.87 C113.45,173.44 111.03,175.54 109.87,175.21 C107.06,174.39 103.87,177.21 104.87,180.21 C105.03,180.65 106.06,184.37 106.94,183.59 L109.8,182.41 C110.59,183.35 110.8,183.17 110.56,181.85 C110.62,176.64 102.63,176.66 102.48,181.85 L104.14,181.92 L107,183.11 L106.64,181.18 L99.11,183.18 C99.49,183.75 99.33,184.89 100.02,184.82 L102.87,186 C103.4,186.59 103.52,186 103.22,184.34 L96.22,184.34 C100.746667,184.04 101.366667,184.586667 98.08,185.98 L95.22,179.08 C94.6788262,179.907702 93.7374365,180.384113 92.75,180.33 C87.64,181.23 89.75,189.01 94.9,188.12 C97.2167637,187.720464 99.3308603,186.550664 100.9,184.8 C102.008255,183.6293 102.325456,181.916808 101.710032,180.426834 C101.094609,178.936861 99.6613732,177.947375 98.05,177.9 C91.05,177.38 89.67,188.23 95.43,190.9 C101.72,193.76 106.68,185.3 103.16,180.31 C101.6,178.08 97.56,177.31 96.16,180.31 C94.16,184.6 94.41,194.91 101.82,192.71 C107.45,191.05 108.92,183.61 106,179.14 C103.93,175.99 98.26,176.95 98.47,181.14 C98.64,184.69 99.84,189.97 104.33,189.94 C108.51,189.94 110.33,185.32 110.47,181.81 L102.39,181.81 C102.33,186.29 105.24,192.17 110.78,190.31 C112.734266,189.608059 114.194102,187.955841 114.65,185.93 C115.36,182.8 113.55,180.81 112.57,178.03 L107.57,183.03 C113.97,184.87 122.26,179.03 119.51,171.84 C118.328196,168.864713 115.314918,167.035515 112.13,167.36 C108.01,167.73 105.58,171.09 104.42,174.75 C102.93,179.44 109.25,181.28 111.8,177.87 C114.88,173.75 113.33,166.49 107.12,167.16 C101.44,167.77 97.37,173.84 95.92,178.83 C95.26,181.12 97.18,184.25 99.82,183.94 C107.18,183.09 109.82,173.63 103.91,168.83 C101.594078,166.895762 98.225922,166.895762 95.91,168.83 C92.85,171.4 93.02,175.29 94.1,178.83 C95.62,183.83 103.42,181.67 101.89,176.68 L102.06,176.65 Z" id="Shape" fill="#FEEB3D"></path>
                <path d="M50.26,131.07 C50.4497047,131.055018 50.6402953,131.055018 50.83,131.07 C50.72,130.82 50.61,130.57 50.51,130.32 C50.43,130.57 50.34,130.82 50.26,131.08 L50.26,131.07 Z" id="Shape" fill="#E4C93B"></path>
                <polygon id="Shape" fill="#E4C93B" points="165.22 225.52 165.58 225.52 165.18 225.52 165.18 225.52"></polygon>
                <polygon id="Shape" fill="#171717" points="118.14 248.76 118.14 248.75 118.14 248.76 118.14 248.76"></polygon>
                <polygon id="Shape" fill="#171717" points="135.55 256.21 135.54 256.21 135.55 256.21 135.55 256.21"></polygon>
                <polygon id="Shape" fill="#171717" points="164.76 236.85 164.76 236.85 164.76 236.84 164.76 236.85 164.76 236.85"></polygon>
                <polygon id="Shape" fill="#171717" points="135.62 256.21 135.61 256.21 135.62 256.21 135.62 256.21"></polygon>
                <path d="M164.76,236.84 C164.76,236.84 164.76,236.84 164.76,236.77 L164.76,236.84 Z" id="Shape" fill="#171717"></path>
                <polygon id="Shape" fill="#171717" points="165.79 222.25 165.79 222.24 165.79 222.25 165.79 222.25"></polygon>
                <polygon id="Shape" fill="#171717" points="165.81 222.34 165.8 222.34 165.8 222.33 165.81 222.34 165.81 222.34"></polygon>
                <polygon id="Shape" fill="#171717" points="165.81 222.36 165.8 222.35 165.81 222.36 165.81 222.36"></polygon>
                <polygon id="Shape" fill="#171717" points="165.81 222.35 165.8 222.34 165.8 222.34 165.81 222.35 165.81 222.35"></polygon>
                <polygon id="Shape" fill="#171717" points="165.81 222.37 165.81 222.36 165.81 222.37 165.81 222.37"></polygon>
                <path d="M46.88,120.45 C46.8843361,120.430235 46.8843361,120.409765 46.88,120.39 C46.88,120.39 46.88,120.39 46.88,120.45 Z" id="Shape" fill="#171717"></path>
                <polygon id="Shape" fill="#171717" points="45.36 134.49 45.36 134.48 45.36 134.49 45.36 134.49"></polygon>
                <path d="M45.36,134.52 C45.3538446,134.503902 45.3538446,134.486098 45.36,134.47 L45.36,134.52 Z" id="Shape" fill="#171717"></path>
                <polygon id="Shape" fill="#171717" points="49.84 145.75 49.83 145.74 49.84 145.75 49.84 145.75"></polygon>
                <path d="M102.21,176.55 C102.21,175.28 101.68,174.82 100.45,175.17 C98.7566667,174.836667 98.6433333,175.026667 100.11,175.74 L104.01,180.86 C104.382763,179.348952 105.113283,177.949645 106.14,176.78 L107.37,175.66 C109.59,174.726667 108.843333,174.06 105.13,173.66 L112.51,176.77 C113.6,173.34 111.18,175.44 110.02,175.11 C107.21,174.3 104.02,177.11 105.02,180.11 C105.17,180.54 106.2,184.26 107.09,183.49 L109.94,182.3 C110.74,183.3 110.94,183.06 110.7,181.74 C110.76,176.53 102.78,176.55 102.62,181.74 L104.29,181.82 L107.15,183 L106.79,181.07 L99.26,183.07 C99.63,183.64 99.48,184.78 100.16,184.71 L103.02,185.9 C103.55,186.48 103.66,185.9 103.37,184.23 L96.37,184.23 C100.91,183.936667 101.53,184.483333 98.23,185.87 L95.38,178.98 C94.8360116,179.804551 93.8965644,180.279979 92.91,180.23 C87.79,181.12 89.91,188.91 95.05,188.02 C97.3665047,187.613308 99.4793943,186.440654 101.05,184.69 C102.159314,183.517965 102.475755,181.803212 101.857837,180.312433 C101.23992,178.821654 99.8031784,177.833582 98.19,177.79 C91.19,177.27 89.82,188.12 95.58,190.79 C101.87,193.65 106.83,185.2 103.31,180.2 C101.74,177.97 97.71,177.2 96.31,180.2 C94.31,184.49 94.57,194.8 101.98,192.6 C107.6,190.94 109.08,183.5 106.16,179.04 C104.09,175.88 98.42,176.85 98.63,181.04 C98.8,184.59 100,189.87 104.48,189.84 C108.67,189.84 110.48,185.22 110.62,181.71 L102.54,181.71 C102.49,186.19 105.4,192.08 110.94,190.21 C112.891016,189.503275 114.348954,187.853205 114.81,185.83 C115.52,182.7 113.71,180.71 112.73,177.93 L107.73,182.93 C114.13,184.78 122.42,178.93 119.67,171.74 C118.490245,168.764046 115.473911,166.937079 112.29,167.27 C108.16,167.63 105.74,170.99 104.58,174.66 C103.09,179.35 109.41,181.19 111.96,177.77 C115.04,173.65 113.49,166.39 107.27,167.06 C101.59,167.68 97.53,173.74 96.08,178.73 C95.41,181.02 97.34,184.15 99.97,183.84 C107.34,182.99 109.97,173.54 104.07,168.73 C101.757028,166.787646 98.3829722,166.787646 96.07,168.73 C93.01,171.29 93.18,175.18 94.26,178.73 C95.78,183.73 103.58,181.57 102.05,176.58 L102.21,176.55 Z" id="Shape" fill="#FEEB3D"></path>
                <path d="M73.25,130.87 C71.8444077,128.618276 70.2234668,126.508373 68.41,124.57 L72.41,134.2 C72.28,133.12 72.28,132.03 72.21,130.94 C72.01,129.35 71.8,127.75 71.58,126.16 C70.14,132.1 70.0733333,133.906667 71.38,131.58 C71.75,131.14 73.59,128.45 73.03,129.04 C72.47,129.63 72.82,129.52 73.81,128.41 C71.93,130.696667 69.1466667,130.783333 65.46,128.67 C71.7,132.11 80.6,130.39 84.1,123.78 C87.48,117.38 85.87,108.78 79.21,105.14 C67.08,98.45 55.21,106.39 48.58,116.67 C47.1806361,118.701905 46.0888693,120.929244 45.34,123.28 C44.826099,125.011687 44.593143,126.814564 44.65,128.62 C44.65,129.34 45.06,134.21 44.96,130.94 C44.968717,133.25016 45.1997825,135.554118 45.65,137.82 C46.25,140.47 47.85,142.14 49.43,144.16 C50.43,145.45 47.89,141.39 49.74,144.62 C53.27,150.81 62.23,153.47 68.38,149.51 C74.53,145.55 77.05,137.51 73.26,130.87 L73.25,130.87 Z" id="Shape" fill="#FEEB3D"></path>
                <path d="M66.42,127.61 C68.6493646,128.992369 71.0874525,130.005425 73.64,130.61 C84.78,133.21 95.54,121.09 89.02,110.61 C86.6288408,106.46567 82.6600647,103.46744 78.02,102.3 L70.78,128.57 C71.04,128.62 74.13,129.28 74.12,129.33 C74.04,129.58 70.74,126.16 73.37,129.33 C74.81,131.06 76.37,132.69 77.9,134.33 C88.46,146.1 106.63,131.06 99.3,117.82 L97.58,114.71 C91.28,103.35 71.13,107.88 72.19,121.59 C72.5833333,126.663333 72.9533333,131.733333 73.3,136.8 L93.8,125.04 L86.34,120.64 C76.63,114.92 62.26,124.53 66.34,136.03 C68.5946182,142.476951 71.3392984,148.741909 74.55,154.77 C78.03,161.25 87.01,163.27 93.2,159.66 C99.5916525,155.777864 101.75107,147.52517 98.08,141.01 C95.9428665,137.081058 94.1140364,132.992102 92.61,128.78 L72.61,144.17 L80.07,148.57 C88.52,153.57 101.29,147.29 100.57,136.8 C100.223333,131.733333 99.8533333,126.663333 99.46,121.59 L74.07,128.47 L75.79,131.57 L97.19,115.06 C91.64,108.87 86.58,103.98 78.04,102.28 C70.83,100.84 63.33,104.34 61.28,111.79 C59.36,118.79 63.64,126.74 70.8,128.55 L69.71,128.2 L64.82,123.31 L65.46,124.31 L80.85,104.31 C79.21,104 78.97,103.91 80.15,104.05 C73.89,100.17 65.15,102.7 61.51,108.94 C57.8343276,115.451438 59.9951449,123.705052 66.39,127.58 L66.42,127.61 Z" id="Shape" fill="#FEEB3D"></path>
                <path d="M60.71,150.83 C78.25,150.83 78.28,123.58 60.71,123.58 C43.14,123.58 43.15,150.83 60.71,150.83 Z" id="Shape" fill="#FEEB3D"></path>
                <path d="M60.5,151 C78.04,151 78.07,123.75 60.5,123.75 C42.93,123.75 42.94,151 60.5,151 Z" id="Shape" fill="#FEEB3D"></path>
                <path d="M60.4,151 C77.93,151 77.96,123.75 60.4,123.75 C42.84,123.75 42.84,151 60.4,151 Z" id="Shape" fill="#FEEB3D"></path>
                <path d="M59.77,150.55 C77.3,150.55 77.33,123.3 59.77,123.3 C42.21,123.3 42.21,150.55 59.77,150.55 Z" id="Shape" fill="#FEEB3D"></path>
                <path d="M49.94,146.72 C53.2154114,150.585003 56.2479019,154.649476 59.02,158.89 C62.02,163.5 64.53,168.96 68.9,172.47 C74.63,177.08 82.57,178.07 88.17,172.47 C92.94,167.7 93.93,157.84 88.17,153.2 C86.62,151.95 87.7,153.2 86.98,152.26 C86.4064051,151.417318 85.8757294,150.546209 85.39,149.65 C83.85,147.11 82.25,144.65 80.56,142.18 C77.04,137.09 73.21,132.18 69.21,127.46 C64.45,121.84 54.84,122.56 49.94,127.46 C44.38,133.02 45.17,141.09 49.94,146.72 Z" id="Shape" fill="#FEEB3D"></path>
                <path d="M65.71,170.05 C71.3,178.89 77.28,187.56 83.49,195.97 C87.85,201.88 95.3,204.85 102.13,200.86 C107.96,197.45 111.41,188.17 107.02,182.22 C100.81,173.8 94.83,165.14 89.24,156.3 C85.31,150.09 77.11,147.61 70.6,151.41 C64.41,155.03 61.76,163.81 65.71,170.05 Z" id="Shape" fill="#FEEB3D"></path>
                <path d="M77.7,132.09 L81.23,142.09 C83.23,147.8 88.07,152.09 94.37,152.09 C100.02,152.09 106.37,147.9 107.5,142.09 C108.06439,139.730569 108.29331,137.303348 108.18,134.88 L82.79,141.76 C85.39,145.46 88.34,149.55 89.7,153.62 C90.0195066,154.576455 90.2799965,155.551623 90.48,156.54 C90.2695708,155.978485 90.2109328,155.371409 90.31,154.78 C89.2959094,158.519692 89.4494382,162.480039 90.75,166.13 C93.43,172.98 99.89,177.74 107.51,175.65 C114.04,173.85 119.72,165.78 117.03,158.89 C117.12,159.11 116.45,163.5 117.03,158.75 C117.277726,157.246025 117.401476,155.72424 117.4,154.2 C117.231199,150.964848 116.556342,147.776148 115.4,144.75 C113.115082,138.791416 110.055447,133.159669 106.3,128 C102.79,123 97.09,120.05 90.92,121.74 C85.5,123.23 80.4,128.99 80.92,134.88 L81.22,134.88 L107.49,134.88 L103.97,124.88 C101.52,117.95 94.67,113.32 87.21,115.37 C80.49,117.21 75.21,125.16 77.69,132.13 L77.7,132.09 Z" id="Shape" fill="#FEEB3D"></path>
                <path d="M92.13,156.47 L97.13,165.71 C100.31,171.63 108.18,173.91 114.13,171.29 C120.66,168.42 123.3,162.08 122.02,155.21 L121.48,152.34 L96.58,162.84 C100.507364,167.942893 103.54969,173.669227 105.58,179.78 C107.82,186.78 115.05,191.31 122.34,189.3 C129.24,187.41 134.1,179.58 131.86,172.54 C129.274149,164.130142 125.313948,156.206361 120.14,149.09 C116.14,143.64 109.79,140.59 103.14,143.52 C96.49,146.45 93.97,152.72 95.25,159.59 L95.79,162.46 L120.69,151.96 L115.69,142.72 C112.21,136.24 103.23,134.21 97.04,137.83 C90.6496697,141.708323 88.4899258,149.957837 92.16,156.47 L92.13,156.47 Z" id="Shape" fill="#FEEB3D"></path>
                <path d="M86.94,202.53 C90.16,205.75 93.94,209.16 96.19,212.58 C99.35,217.27 101.99,222.23 106.26,226.07 C113.01,232.14 127.48,230.96 129.04,220.07 C130.081346,214.090492 130.067808,207.97484 129,202 C128.12,197.48 126.07,193.42 124.61,189.09 L99.7,199.59 C107.746667,211.43 115.5,223.453333 122.96,235.66 C126.841738,242.044922 135.083836,244.207146 141.6,240.55 C147.87,236.88 150.34,228.21 146.48,221.91 C139.033333,209.703333 131.283333,197.68 123.23,185.84 C119.43,180.25 112.68,177.42 106.23,180.26 C100.34,182.85 96.13,189.79 98.34,196.34 C100.34,202.15 103.51,208.01 102.82,212.83 L125.59,206.83 C122.46,204.01 120.67,199.91 117.77,196 C114.257343,191.480738 110.413406,187.229009 106.27,183.28 C93.85,170.87 74.58,190.13 87,202.55 L86.94,202.53 Z" id="Shape" fill="#FEEB3D"></path>
                <path d="M94.34,202.86 C111.87,202.86 111.9,175.61 94.34,175.61 C76.78,175.61 76.77,202.86 94.34,202.86 Z" id="Shape" fill="#FEEB3D"></path>
                <path d="M87.07,203.11 C88.36,204.99 89.75,206.81 91.17,208.58 C91.64,209.16 92.11,209.74 92.61,210.3 C94.3,212.21 91.99,209 92.66,210.3 C94,213 95.94,215.54 97.54,218.09 C101.32,224.09 109.86,227.09 116.18,222.98 C122.18,219.08 125.11,210.8 121.07,204.34 C119.44,201.74 117.87,199.11 116.19,196.55 C114.966066,194.747912 113.6301,193.024516 112.19,191.39 C112,191.17 110.43,189.39 111.49,190.65 C112.55,191.91 110.6,189.37 110.57,189.33 C106.57,183.46 98.42,180.26 91.93,184.44 C86.09,188.21 82.74,196.79 87.04,203.08 L87.07,203.11 Z" id="Shape" fill="#FEEB3D"></path>
                <path d="M97.66,218.2 C100.31,221.66 101.79,225.73 104.73,229.02 C105.258097,229.728057 105.880529,230.360582 106.58,230.9 C105.52,229.26 105.443333,229.313333 106.35,231.06 C107.2154,232.856998 108.275054,234.553785 109.51,236.12 C113.86,242.04 121.33,244.99 128.15,241 C134.562103,237.138568 136.730795,228.871817 133.04,222.36 C131.118848,219.116529 128.841394,216.097811 126.25,213.36 C115.82,202.26 96.12,216.86 104.85,229.87 L116.11,246.65 C120.21,252.75 128.11,255.41 134.75,251.54 C140.81,247.99 143.75,239.03 139.64,232.89 L128.38,216.11 L107,232.65 C108.014132,233.671921 108.867191,234.841927 109.53,236.12 L133,222.36 C130.47,218.92 129.12,214.42 125.81,211.63 C124.663333,210.51 124.503333,210.44 125.33,211.42 C124.86,210.65 124.41,209.86 124,209.06 C123.168119,207.453375 122.215377,205.912273 121.15,204.45 C116.67,198.62 109.42,195.52 102.51,199.56 C96.77,202.92 93.11,212.33 97.62,218.2 L97.66,218.2 Z" id="Shape" fill="#FEEB3D"></path>
                <path d="M124.5,253.51 C128.59,255.88 133.43,256.39 138.07,256.24 C141.669872,256.170234 145.110099,254.741272 147.7,252.24 C151.591526,248.342127 152.754581,242.485174 150.647644,237.396145 C148.540708,232.307116 143.577936,228.986351 138.07,228.98 C136.591408,229.031769 135.111005,228.978301 133.64,228.82 L137.26,229.31 C136.730882,229.238526 136.208937,229.121423 135.7,228.96 L138.96,230.33 C138.712274,230.240332 138.477032,230.119351 138.26,229.97 C135.069558,228.170584 131.305334,227.679442 127.76,228.6 C120.50682,230.604203 116.246933,238.103752 118.24,245.36 C119.235542,248.760578 121.468994,251.664779 124.5,253.5 L124.5,253.51 Z" id="Shape" fill="#FEEB3D"></path>
                <path d="M138.08,256.17 C145.036408,256.280555 151.782281,253.783405 156.99,249.17 C159.205888,247.289433 161.062564,245.022797 162.47,242.48 C163.397174,240.881187 164.125887,239.175259 164.64,237.4 C164.780744,236.934327 164.871259,236.454932 164.91,235.97 C165.316667,233.643333 164.473333,234.856667 162.38,239.61 C167.46,234.61 167.79,225.3 162.38,220.34 C156.97,215.38 148.53,214.99 143.12,220.34 C140.80351,222.612493 139.239846,225.540873 138.64,228.73 C138.49,229.52 137.64,230.89 138.75,229.25 C139.29,228.09 139.28,228.04 138.75,229.1 C138.22,230.16 138.12,230.1 138.75,229.1 C139.38,228.1 139.46,228.17 138.68,229.02 L138.03,229.6 C139.563333,228.48 139.896667,228.193333 139.03,228.74 C138.666018,228.980688 138.285013,229.194585 137.89,229.38 L139.55,228.67 C139.003336,228.860251 138.445648,229.017205 137.88,229.14 C137.99,228.66 141.47,229.01 138.05,228.91 C130.92,228.7 124.1,235.32 124.43,242.53 C124.568553,249.993974 130.586026,256.011447 138.05,256.15 L138.08,256.17 Z" id="Shape" fill="#FEEB3D"></path>
                <path d="M166.21,225.51 C166.11,219.63 163.36,215.06 160.41,210.21 C157.58,205.57 154.95,200.37 149.9,197.78 C143.57,194.53 134.83,195.92 131.26,202.67 C127.97,208.9 129.38,217.84 136.15,221.31 C133.336667,217.856667 132.58,217.103333 133.88,219.05 L135.08,221.05 L136.88,224.05 L138.68,227 C139.05,227.6 139.42,228.21 139.78,228.82 C139.275982,227.815421 138.996198,226.713345 138.96,225.59 C139.09,232.71 145.14,239.54 152.59,239.21 C159.86,238.88 166.34,233.21 166.21,225.59 L166.21,225.51 Z" id="Shape" fill="#FEEB3D"></path>
                <path d="M104.53,173.91 C105.589891,177.101396 107.087506,180.13028 108.98,182.91 C112.98,188.4 119.39,191.39 125.98,188.49 C132.57,185.59 135.25,179.25 133.87,172.41 C133.539464,170.717591 132.858176,169.113157 131.87,167.7 L110.47,184.21 C109.25,182.8 111.31,186.05 111.38,186.21 C112.01,187.48 112.57,188.8 113.17,190.09 C119.52,203.97 143.7,194.02 138.07,179.6 L138.14,181.26 L112.75,188.13 C117.62,195.6 122.75,202.96 127.06,210.78 C130.59,217.23 139.47,219.31 145.7,215.67 C152.4,211.75 153.88,203.67 150.59,197.03 L150.05,195.96 L128.65,212.47 C130.85,214.2 128.97,212.83 128.65,212.08 L153.56,201.59 C151.47512,197.066986 148.70225,192.894188 145.34,189.22 C140.49,183.68 131.03,184.27 126.07,189.22 C120.57,194.72 121.21,202.94 126.07,208.49 C127.736721,210.5616 129.084908,212.870369 130.07,215.34 C132.74,221.47 141.51,223.34 147.07,220.91 C152.87,218.36 157.29,211.34 154.96,204.84 C153.41,200.51 151.63,196.13 147.9,193.2 C142.57,189 135.74,187.57 130.01,192.14 C124.5,196.53 123.39,203.47 126.5,209.71 L127.04,210.78 L150.58,197 C146.29,189.18 141.13,181.82 136.27,174.35 C129.27,163.58 110.36,167.05 110.88,181.23 C110.871347,183.126818 111.175423,185.01209 111.78,186.81 L136.69,176.31 C134.925892,172.197739 132.567393,168.366861 129.69,164.94 C125.32,159.84 116.69,159.94 111.8,163.87 C106.91,167.8 104.17,175.93 108.29,181.45 L107.57,179.65 L132.47,169.15 C131.945905,168.298163 131.378494,167.473748 130.77,166.68 C128.19,159.79 121.56,155.09 114.01,157.16 C107.4,158.98 101.9,167 104.49,173.92 L104.53,173.91 Z" id="Shape" fill="#FEEB3D"></path>
                <path d="M50.11,131.16 C50.303204,131.149999 50.496796,131.149999 50.69,131.16 C50.57,130.913333 50.46,130.663333 50.36,130.41 C50.28,130.66 50.2,130.91 50.11,131.16 Z" id="Shape" fill="#E4C93B"></path>
                <path d="M165.07,225.61 C165.192867,225.625168 165.317133,225.625168 165.44,225.61 L165.04,225.61 L165.07,225.61 Z" id="Shape" fill="#E4C93B"></path>
                <path d="M116.39,247.9 C116.225611,248.085485 116.225611,248.364515 116.39,248.55 L116.56,248.71 L117.24,249.37 C117.291714,249.428362 117.348614,249.481914 117.41,249.53 C118.12,250.17 118.85,250.78 119.62,251.36 C120.09,251.71 120.62,252.04 121.05,252.36 L121.14,252.42 C122.356081,253.219493 123.629544,253.928087 124.95,254.54 L125.02,254.54 C129.675669,256.653099 134.795165,257.537908 139.89,257.11 C147.893707,256.407123 155.26951,252.486209 160.328984,246.244808 C165.388459,240.003407 167.698389,231.975938 166.73,224 C166.65,223.38 166.56,222.77 166.44,222.16 C166.44,222.16 166.44,222.09 166.44,222.05 C166.3,221.303333 166.13,220.563333 165.93,219.83 C165.891102,219.707382 165.804614,219.605508 165.689933,219.547228 C165.575253,219.488947 165.441978,219.479138 165.32,219.52 C165.068299,219.605571 164.930746,219.876239 165.01,220.13 C165.21,220.85 165.37,221.57 165.51,222.3 C165.949655,224.710174 166.090717,227.165331 165.93,229.61 C165.739602,232.038487 165.259528,234.435499 164.5,236.75 C164.5,236.75 164.5,236.75 164.5,236.75 L164.5,236.83 C163.695422,239.1791 162.596686,241.41689 161.23,243.49 L161.3,243.39 C159.877577,245.529907 158.179659,247.473267 156.25,249.17 C156.278698,249.138005 156.312486,249.110974 156.35,249.09 C154.354116,250.826139 152.138425,252.292059 149.76,253.45 L149.88,253.4 C147.584867,254.496204 145.158303,255.292735 142.66,255.77 C140.249826,256.209655 137.794669,256.350717 135.35,256.19 L135.28,256.19 C132.839028,256.000222 130.430818,255.509848 128.11,254.73 C127.22,254.43 126.35,254.08 125.49,253.73 C124.103139,253.098499 122.765997,252.363071 121.49,251.53 C121.02,251.21 120.55,250.88 120.1,250.53 C119.39,249.99 118.71,249.42 118.1,248.83 C118.054578,248.845245 118.005422,248.845245 117.96,248.83 L117.77,248.69 L117.54,248.49 C117.324894,248.313003 117.121157,248.122626 116.93,247.92 L116.74,247.71 C116.636532,247.71048 116.53556,247.741816 116.45,247.8 L116.36,247.88 L116.39,247.9 Z" id="Shape" fill="#171717"></path>
                <polygon id="Shape" fill="#171717" points="117.99 248.86 117.99 248.85 117.99 248.86 117.99 248.86"></polygon>
                <polygon id="Shape" fill="#171717" points="135.4 256.3 135.39 256.3 135.4 256.3 135.4 256.3"></polygon>
                <polygon id="Shape" fill="#171717" points="164.61 236.95 164.62 236.95 164.62 236.94 164.61 236.95 164.61 236.95"></polygon>
                <path d="M164.62,236.94 C164.615664,236.920235 164.615664,236.899765 164.62,236.88 L164.62,236.95 L164.62,236.94 Z" id="Shape" fill="#171717"></path>
                <path d="M163.69,216.12 C164.465539,217.883314 165.065113,219.718882 165.48,221.6 L165.48,221.66 C165.48,221.89 165.57,222.13 165.62,222.36 L165.62,222.43 L165.8,223.54 C165.81091,223.668833 165.867683,223.789476 165.96,223.88 C166.05802,223.960607 166.183491,224.000041 166.31,223.99 C166.437396,223.982288 166.556474,223.924156 166.640916,223.828456 C166.725358,223.732755 166.76821,223.607364 166.76,223.48 C166.66,222.8 166.54,222.13 166.4,221.48 L166.4,221.37 C166.161782,220.302089 165.86805,219.247324 165.52,218.21 C165.468561,218.063231 165.408455,217.919646 165.34,217.78 C165.26,217.61 165.17,217.44 165.08,217.28 C164.99,217.12 164.94,217.04 164.88,216.92 C164.82,216.8 164.65,216.49 164.52,216.28 L164.07,215.55 L164,215.55 L163.89,215.61 C163.698713,215.72541 163.615101,215.959524 163.69,216.17 L163.69,216.12 Z" id="Shape" fill="#171717"></path>
                <polygon id="Shape" fill="#171717" points="165.64 222.35 165.64 222.34 165.64 222.35 165.64 222.35"></polygon>
                <polygon id="Shape" fill="#171717" points="165.66 222.44 165.66 222.44 165.65 222.43 165.66 222.44 165.66 222.44"></polygon>
                <polygon id="Shape" fill="#171717" points="165.66 222.45 165.66 222.44 165.66 222.44 165.66 222.45 165.66 222.45"></polygon>
                <path d="M54.39,108.18 C50.2601559,111.619245 47.1711426,116.141948 45.47,121.24 C44.0556288,125.449805 43.6246011,129.927704 44.21,134.33 C44.6662297,137.804723 45.7541286,141.166703 47.42,144.25 L47.42,144.31 C47.51,144.43 47.6,144.55 47.7,144.66 C47.8,144.78 47.89,144.9 47.99,145.01 C48.0399882,145.074279 48.0867138,145.14103 48.13,145.21 C48.1767111,145.270955 48.2201072,145.33438 48.26,145.4 L48.51,145.76 L48.79,146.12 C48.97,146.35 49.15,146.58 49.32,146.82 C49.49,147.06 49.45,146.99 49.51,147.07 C49.5530843,147.062002 49.5939835,147.044961 49.63,147.02 C49.8577999,146.878157 49.9291288,146.579468 49.79,146.35 C49.62,146.09 49.45,145.83 49.27,145.57 C49.27,145.49 49.18,145.41 49.13,145.33 C49.1077446,145.307263 49.0906858,145.279968 49.08,145.25 L49.08,145.17 C48.4225074,144.085101 47.8346551,142.959497 47.32,141.8 C46.3307655,139.52833 45.638397,137.13865 45.26,134.69 C45.2661554,134.673902 45.2661554,134.656098 45.26,134.64 C44.9316854,132.320812 44.8846784,129.97046 45.12,127.64 C45.1246785,127.659726 45.1246785,127.680274 45.12,127.7 L45.12,127.62 C45.3871695,125.251676 45.941233,122.92461 46.77,120.69 L46.77,120.74 C47.6483758,118.440934 48.8107218,116.260696 50.23,114.25 C50.2090647,114.284949 50.1856725,114.318367 50.16,114.35 C51.6406955,112.281487 53.3892849,110.418567 55.36,108.81 L55.26,108.89 C57.2564038,107.277407 59.4550275,105.932683 61.8,104.89 C64.0655956,103.905318 66.448504,103.216324 68.89,102.84 L69.71,102.73 C71.8435487,102.495003 73.9964513,102.495003 76.13,102.73 L76.2,102.73 C76.81,102.79 77.42,102.89 78.02,103 L78.09,103 L78.18,103 L78.34,103 C79.9545132,103.309576 81.5401087,103.754479 83.08,104.33 C85.3393806,105.19449 87.4824909,106.336586 89.46,107.73 C90.01,108.12 90.53,108.53 91.05,108.96 L91.22,109.1 L91.35,109.21 L91.4,109.21 C92.5823364,110.232291 93.6793077,111.349328 94.68,112.55 L94.77,112.66 L94.83,112.73 L94.93,112.86 L95.09,112.98 C95.2098466,113.0578 95.3235167,113.144725 95.43,113.24 L95.73,113.51 L96.3,114.03 C96.3948389,114.111497 96.4849834,114.198303 96.57,114.29 L96.88,114.68 L96.97,114.79 C97.1699019,114.640844 97.225866,114.365328 97.1,114.15 C97,114 96.91,113.86 96.81,113.73 L96.61,113.46 L96.61,113.41 L96.19,112.85 C95.81,112.36 95.41,111.85 94.99,111.4 L94.94,111.33 L94.48,110.82 C94.41,110.75 94.33,110.69 94.27,110.62 L94.08,110.41 C93.9943337,110.321677 93.9141823,110.228167 93.84,110.13 C93.28,109.556667 92.7,109.016667 92.1,108.51 C89.9887698,106.713897 87.6315865,105.228871 85.1,104.1 C83.8741016,103.55148 82.6109516,103.09033 81.32,102.72 C80.88,102.59 80.44,102.47 79.99,102.36 C79.26,102.19 78.53,102.05 77.78,101.93 L77,101.81 C76.44,101.73 75.87,101.68 75.31,101.63 C74.56,101.58 73.81,101.55 73.06,101.56 L72.75,101.56 C71.92,101.56 71.11,101.62 70.29,101.7 L70.09,101.7 L69.95,101.7 L69.21,101.8 L68.7,101.88 C67.99,101.98 67.3,102.12 66.61,102.28 C64.8732596,102.684993 63.1789668,103.254222 61.55,103.98 C61.5236055,103.974612 61.4963945,103.974612 61.47,103.98 L61.03,104.18 C59.7121218,104.780549 58.4446993,105.486158 57.24,106.29 C56.3359021,106.893067 55.464661,107.543994 54.63,108.24 L54.39,108.18 Z M47.25,141.79 L47.25,141.89 L47.25,141.79 Z" id="Shape" fill="#171717"></path>
                <path d="M46.74,120.54 C46.7346579,120.523761 46.7346579,120.506239 46.74,120.49 C46.7346579,120.506239 46.7346579,120.523761 46.74,120.54 Z" id="Shape" fill="#171717"></path>
                <polygon id="Shape" fill="#171717" points="45.21 134.59 45.21 134.58 45.21 134.59 45.21 134.59"></polygon>
                <path d="M45.22,134.62 C45.2190302,134.603347 45.2190302,134.586653 45.22,134.57 L45.22,134.62 Z" id="Shape" fill="#171717"></path>
                <path d="M48.89,145.19 C48.68098,145.337013 48.6200344,145.619975 48.75,145.84 L49.75,147.34 L49.87,147.5 C49.8800407,147.525722 49.8800407,147.554278 49.87,147.58 C57.3966667,159.053333 64.9233333,170.53 72.45,182.01 L97,219.46 C100.42,224.66 103.833333,229.866667 107.24,235.08 L112.47,243.08 L114.56,246.27 L115.29,247.4 L115.41,247.54 C115.55,247.71 115.7,247.86 115.85,248.01 C116,248.16 116.29,248.49 116.52,248.71 L116.95,249.12 C117.058782,249.053734 117.136765,248.946948 117.166774,248.823157 C117.196784,248.699367 117.17636,248.568724 117.11,248.46 C116.92,248.15 116.71,247.84 116.5,247.53 L116.33,247.31 C116.133557,247.079614 115.968766,246.82402 115.84,246.55 C115.62,246.23 115.41,245.9 115.19,245.55 L112.72,241.78 L106.85,232.78 C103.016667,226.933333 99.18,221.083333 95.34,215.23 C87.1266667,202.71 78.9133333,190.19 70.7,177.67 C64.0333333,167.496667 57.3666667,157.33 50.7,147.17 L50.7,147.12 L50.57,146.97 L50.44,146.84 C50.4064776,146.790946 50.3697298,146.744176 50.33,146.7 C50.25,146.6 50.16,146.5 50.09,146.4 L50.03,146.33 L49.82,146.07 L49.76,145.99 C49.5732633,145.798485 49.3995424,145.594697 49.24,145.38 L49.09,145.19 C49.0369117,145.201192 48.9861621,145.221492 48.94,145.25 L48.89,145.19 Z" id="Shape" fill="#171717"></path>
                <polygon id="Shape" fill="#171717" points="49.69 145.85 49.69 145.84 49.69 145.85 49.69 145.85"></polygon>
                <path d="M97,114.85 L97.17,115.07 L97.33,115.31 C97.3319072,115.336633 97.3319072,115.363367 97.33,115.39 C97.33,115.39 97.33,115.44 97.33,115.47 L119.19,148.8 L145,188.1 L165.06,218.68 C165.205119,218.903203 165.499686,218.973547 165.73,218.84 C165.65,218.65 165.58,218.47 165.51,218.28 C165.44,218.09 165.37,217.91 165.29,217.73 C165.29,217.73 165.29,217.73 165.29,217.78 C165.2,217.6 165.1,217.42 165,217.24 L164.81,216.89 C164.69,216.67 164.58,216.45 164.45,216.24 C164.22,215.88 163.99,215.51 163.79,215.13 C163.781071,215.097265 163.781071,215.062735 163.79,215.03 L143.1,183.48 C134.506667,170.38 125.92,157.283333 117.34,144.19 L98.53,115.52 C98.479559,115.501686 98.4371094,115.466312 98.41,115.42 C98.21,115.12 98.02,114.82 97.81,114.53 C97.6,114.24 97.5,114.07 97.33,113.85 C97.16,113.63 96.9,113.28 96.67,113 C96.44,112.72 96.42,112.72 96.3,112.57 C96.18,112.42 96.02,112.27 95.87,112.13 C95.72,111.99 95.56,111.86 95.41,111.71 C95.26,111.56 95.12,111.42 94.97,111.29 L94.27,110.71 L94.15,110.61 L96.94,114.87 L97,114.85 Z" id="Shape" fill="#171717"></path>
                <path d="M102.06,176.65 C102.06,175.38 101.53,174.92 100.3,175.27 C98.61,174.93 98.5,175.13 99.97,175.84 L103.86,180.96 C104.230538,179.448112 104.961321,178.0483 105.99,176.88 L107.22,175.76 C109.44,174.83 108.7,174.16 104.98,173.76 L112.36,176.87 C113.45,173.44 111.03,175.54 109.87,175.21 C107.06,174.39 103.87,177.21 104.87,180.21 C105.03,180.65 106.06,184.37 106.94,183.59 L109.8,182.41 C110.59,183.35 110.8,183.17 110.56,181.85 C110.62,176.64 102.63,176.66 102.48,181.85 L104.14,181.92 L107,183.11 L106.64,181.18 L99.11,183.18 C99.49,183.75 99.33,184.89 100.02,184.82 L102.87,186 C103.4,186.59 103.52,186 103.22,184.34 L96.22,184.34 C100.746667,184.04 101.366667,184.586667 98.08,185.98 L95.22,179.08 C94.6788262,179.907702 93.7374365,180.384113 92.75,180.33 C87.64,181.23 89.75,189.01 94.9,188.12 C97.2167637,187.720464 99.3308603,186.550664 100.9,184.8 C102.008255,183.6293 102.325456,181.916808 101.710032,180.426834 C101.094609,178.936861 99.6613732,177.947375 98.05,177.9 C91.05,177.38 89.67,188.23 95.43,190.9 C101.72,193.76 106.68,185.3 103.16,180.31 C101.6,178.08 97.56,177.31 96.16,180.31 C94.16,184.6 94.41,194.91 101.82,192.71 C107.45,191.05 108.92,183.61 106,179.14 C103.93,175.99 98.26,176.95 98.47,181.14 C98.64,184.69 99.84,189.97 104.33,189.94 C108.51,189.94 110.33,185.32 110.47,181.81 L102.39,181.81 C102.33,186.29 105.24,192.17 110.78,190.31 C112.734266,189.608059 114.194102,187.955841 114.65,185.93 C115.36,182.8 113.55,180.81 112.57,178.03 L107.57,183.03 C113.97,184.87 122.26,179.03 119.51,171.84 C118.328196,168.864713 115.314918,167.035515 112.13,167.36 C108.01,167.73 105.58,171.09 104.42,174.75 C102.93,179.44 109.25,181.28 111.8,177.87 C114.88,173.75 113.33,166.49 107.12,167.16 C101.44,167.77 97.37,173.84 95.92,178.83 C95.26,181.12 97.18,184.25 99.82,183.94 C107.18,183.09 109.82,173.63 103.91,168.83 C101.594078,166.895762 98.225922,166.895762 95.91,168.83 C92.85,171.4 93.02,175.29 94.1,178.83 C95.62,183.83 103.42,181.67 101.89,176.68 L102.06,176.65 Z" id="Shape" fill="#FEEB3D"></path>
                <path d="M170,41 C170.101838,41.163464 170.19206,41.333884 170.27,41.51 C170.43,41.3 170.61,41.09 170.79,40.89 L170,41 Z" id="Shape" fill="#E4C93B"></path>
                <path d="M136.62,186 C136.661131,186.115509 136.714784,186.226168 136.78,186.33 C136.78,186.21 136.67,186.09 136.62,185.96 L136.62,186 Z" id="Shape" fill="#E4C93B"></path>
                <path d="M138.65,0.89 C138.201782,0.892644332 137.772973,1.07323844 137.45791,1.39205199 C137.142847,1.71086555 136.96734,2.14178177 136.97,2.59 C136.989726,3.02866395 137.163191,3.44639624 137.46,3.77 L138.46,5.06 C139.58,6.53 140.65,8.06 141.74,9.52 C142.07,9.97 142.36,10.44 142.66,10.91 L144.11,13.15 C144.27,13.4 144.4,13.67 144.54,13.92 C144.81,14.43 145.09,14.92 145.37,15.43 C145.65,15.94 146.05,16.75 146.37,17.43 C147.15,18.9966667 147.896667,20.5866667 148.61,22.2 C148.832696,22.5998283 149.214122,22.8868057 149.66,22.99 C150.085095,23.0983483 150.535477,23.0411569 150.92,22.83 C151.312792,22.5970452 151.599657,22.2205351 151.72,21.78 C151.814851,21.3531425 151.754584,20.9064577 151.55,20.52 C150.82,18.86 150.04,17.23 149.23,15.61 C148.91,14.94 148.58,14.28 148.23,13.61 L147.4,12.1 C147.27,11.86 147.15,11.62 147.01,11.39 C146.14,10.06 145.31,8.69 144.37,7.39 C142.89,5.39 141.37,3.39 139.89,1.39 C139.794937,1.2870838 139.687446,1.19638795 139.57,1.12 C139.292209,0.973761002 138.983893,0.89496927 138.67,0.89 L138.65,0.89 Z" id="Shape" fill="#FEEB3D"></path>
                <path d="M178.71,1.33 C178.261775,1.32466417 177.829792,1.49761986 177.509097,1.81081233 C177.188403,2.12400481 177.005273,2.55177414 177,3 C177.06,3.77 177.09,4.53 177.09,5.3 C177.070178,6.05931701 177.010094,6.81704814 176.91,7.57 C176.74,8.71 176.56,9.84 176.35,10.97 C176.11,12.28 175.86,13.57 175.65,14.88 C175.555149,15.3068575 175.615416,15.7535423 175.82,16.14 C176.038728,16.5247655 176.396606,16.8110673 176.82,16.94 C177.249303,17.0511466 177.705043,16.990142 178.09,16.77 C178.482692,16.5606887 178.771995,16.1990606 178.89,15.77 C179.15,14.09 179.48,12.42 179.79,10.77 C179.93,10.03 180.02,9.29 180.13,8.54 C180.414827,6.72118574 180.485309,4.87523763 180.34,3.04 C180.325542,2.60017889 180.151347,2.1806892 179.85,1.86 C179.744176,1.75675745 179.626723,1.66615081 179.5,1.59 C179.238305,1.43962658 178.941822,1.36033468 178.64,1.36 L178.71,1.33 Z" id="Shape" fill="#FEEB3D"></path>
                <path d="M221.94,20.72 C220.3,22.51 218.62,24.27 217.02,26.08 C216.18,27.03 215.35,27.98 214.53,28.94 C213.71,29.9 212.75,31.16 211.9,32.3 C211.668212,32.6848962 211.610087,33.1498912 211.74,33.58 C211.85538,34.0044441 212.13642,34.3647515 212.52,34.58 C212.909333,34.808739 213.374701,34.8700666 213.81,34.75 C214.22722,34.614987 214.582087,34.3346423 214.81,33.96 L215.28,33.34 C215.86,32.6 216.43,31.86 217.04,31.15 C217.85,30.15 218.67,29.26 219.5,28.32 C221.06,26.56 222.7,24.85 224.29,23.11 C224.939145,22.4455683 224.939145,21.3844317 224.29,20.72 C224.184176,20.6167575 224.066723,20.5261508 223.94,20.45 C223.293244,20.0727485 222.473994,20.1751548 221.94,20.7 L221.94,20.72 Z M215.29,33.37 L215.1,33.61 L215.29,33.37 Z" id="Shape" fill="#FEEB3D"></path>
                <path d="M241.11,62.22 C238.22,61.87 235.32,61.56 232.43,61.28 C229.913753,60.9918602 227.376165,60.9382964 224.85,61.12 C224.410179,61.134458 223.990689,61.3086529 223.67,61.61 C223.350343,61.9316509 223.170643,62.3665247 223.17,62.82 C223.180954,63.7510643 223.938871,64.5000644 224.87,64.5 C227.396165,64.3182964 229.933753,64.3718602 232.45,64.66 C235.35,64.94 238.24,65.26 241.13,65.6 C241.574312,65.6076178 242.001779,65.4301105 242.31,65.11 C242.633436,64.7908763 242.813818,64.3543524 242.81,63.9 C242.806924,63.4597294 242.63513,63.0374014 242.33,62.72 C242.23004,62.6241835 242.119299,62.5402892 242,62.47 C241.724502,62.324288 241.421076,62.239056 241.11,62.22 Z" id="Shape" fill="#FEEB3D"></path>
                <path d="M128.61,239.57 L128.21,239.85 C128.544792,239.921365 128.89333,239.889996 129.21,239.76 L128.61,239.57 Z" id="Shape" fill="#FEEB3D"></path>
                <path d="M124.35,206.26 C123.453492,206.50867 122.920287,207.428448 123.15,208.33 C124.03,211.22 124.84,214.11 125.49,217.05 C126.14,219.99 126.77,222.99 127.36,225.97 C127.608451,226.866015 128.530673,227.396181 129.43,227.16 C129.854655,227.039206 130.214199,226.755167 130.43,226.37 C130.644879,225.979651 130.705541,225.522905 130.6,225.09 C130.006667,222.11 129.38,219.14 128.72,216.18 C128.07,213.24 127.27,210.34 126.39,207.46 C126.249973,207.039594 125.962164,206.684274 125.58,206.46 C125.199204,206.238363 124.745917,206.177206 124.32,206.29 L124.35,206.26 Z" id="Shape" fill="#FEEB3D"></path>
                <path d="M217.06,90.66 C217.204478,90.5519548 217.354698,90.4518083 217.51,90.36 L217.6,90.36 C217.398236,90.4343884 217.214288,90.5502078 217.06,90.7 L217.06,90.66 Z" id="Shape" fill="#EBCF42"></path>
                <path d="M75.63,136.74 L67.63,138.98 C66.56,139.29 65.48,139.58 64.41,139.87 C63.34,140.16 61.98,140.56 60.74,140.78 L60.41,140.78 C59.9713361,140.799726 59.5536038,140.973191 59.23,141.27 C58.7455538,141.756121 58.6009193,142.485854 58.8633258,143.120003 C59.1257323,143.754152 59.7437061,144.168323 60.43,144.17 C61.9175413,143.982898 63.3862695,143.66841 64.82,143.23 C66.02,142.91 67.22,142.576667 68.42,142.23 L76.55,139.96 C77.4460147,139.711549 77.9761811,138.789327 77.74,137.89 C77.6135081,137.468285 77.3309873,137.110664 76.95,136.89 C76.5649269,136.659547 76.1018768,136.598048 75.67,136.72 L75.63,136.74 Z" id="Shape" fill="#FEEB3D"></path>
                <path d="M116.58,47.35 C116.148697,47.4648468 115.780822,47.7466014 115.557563,48.1330828 C115.334305,48.5195642 115.274015,48.9790013 115.39,49.41 C115.522573,49.8285191 115.803529,50.1841596 116.18,50.41 C117.28,51.22 118.38,52.05 119.47,52.88 L119.34,52.78 L119.53,52.92 L119.7,53.05 L119.56,52.95 C121.18,54.21 122.82,55.46 124.39,56.8 C125.27,57.54 126.18,58.26 127.02,59.05 C128.24,60.1766667 129.45,61.31 130.65,62.45 C131.314432,63.0991447 132.375568,63.0991447 133.04,62.45 C133.699972,61.7900163 133.699972,60.7199837 133.04,60.06 C132.26,59.31 131.47,58.58 130.68,57.84 C130.18,57.37 129.68,56.84 129.17,56.44 C128.07,55.5 126.97,54.54 125.83,53.63 C123.21,51.53 120.56,49.44 117.83,47.46 L117.76,47.41 C117.384248,47.2246042 116.953024,47.1854019 116.55,47.3 L116.58,47.35 Z M119.58,52.98 L119.52,52.98 L119.61,53.05 L119.58,52.98 Z" id="Shape" fill="#FEEB3D"></path>
                <path d="M227,95.58 C224.15,94.91 221.34,94.08 218.51,93.3 C215.68,92.52 212.51,91.75 209.51,91.06 C208.607058,90.8422501 207.6933,91.3763792 207.44,92.27 C207.212194,93.1751488 207.756774,94.0946854 208.66,94.33 C211.66,95.01 214.56,95.72 217.48,96.52 C220.4,97.32 223.22,98.17 226.12,98.85 C227.022106,99.0784787 227.940255,98.5391777 228.18,97.64 C228.362871,96.9018724 228.042298,96.1308731 227.39,95.74 C227.258702,95.6661489 227.117155,95.6122262 226.97,95.58 L227,95.58 Z" id="Shape" fill="#FEEB3D"></path>
                <path d="M206.42,135.25 C203.2,133.99 199.99,132.713333 196.79,131.42 C195.27,130.8 193.79,130.2 192.22,129.6 C190.54,128.92 188.82,128.35 187.1,127.76 C186.443571,127.591797 185.750144,127.831953 185.338351,128.370115 C184.926559,128.908277 184.876037,129.640373 185.21,130.23 C185.431799,130.612133 185.7885,130.897493 186.21,131.03 C187.93,131.623333 189.633333,132.233333 191.32,132.86 C192.86,133.44 194.38,134.08 195.9,134.69 C199.1,135.99 202.31,137.26 205.53,138.53 C205.955773,138.645065 206.409946,138.583788 206.79,138.36 C207.190345,138.135633 207.479942,137.755538 207.59,137.31 C207.700585,136.883947 207.639542,136.431512 207.42,136.05 C207.278652,135.801445 207.070895,135.597151 206.82,135.46 C206.678233,135.380165 206.531231,135.310005 206.38,135.25 L206.42,135.25 Z" id="Shape" fill="#FEEB3D"></path>
                <path d="M170.2,161.06 C169.749875,161.8712 170.02418,162.89321 170.82,163.37 C172.1,164.2 173.4,165.01 174.66,165.87 C175.92,166.73 176.92,167.44 178.04,168.24 C178.62,168.7 179.21,169.16 179.77,169.65 C180.61,170.38 181.46,171.12 182.28,171.87 C182.705146,172.300505 183.327669,172.471496 183.91307,172.318561 C184.498472,172.165626 184.957815,171.712001 185.11807,171.128561 C185.278326,170.545121 185.115146,169.920505 184.69,169.49 C183.69,168.6 182.69,167.73 181.69,166.86 C180.69,165.99 179.69,165.33 178.69,164.6 C176.69,163.14 174.55,161.8 172.45,160.44 L172.39,160.44 C171.586032,160.028478 170.600658,160.313142 170.14,161.09 L170.2,161.06 Z" id="Shape" fill="#FEEB3D"></path>
                <path d="M95,152.31 C94.7562159,152.255831 94.5106952,152.393667 94.43,152.63 C94.4021818,152.698424 94.3788,152.76857 94.36,152.84 C94.27,153.15 94.17,153.45 94.07,153.75 C94.0512201,153.824705 94.0278422,153.898178 94,153.97 C94,153.97 94,153.97 94,153.97 C93.7305615,154.887607 93.5102487,155.818929 93.34,156.76 C93.2333333,157.34 93.1433333,157.92 93.07,158.5 C93.07,158.5 93.07,158.58 93.07,158.61 C92.8931842,160.056186 92.8263257,161.5137 92.87,162.97 C92.8751263,162.99642 92.8751263,163.02358 92.87,163.05 C92.9703858,165.500575 93.3597475,167.930729 94.03,170.29 C94.7665326,172.821724 95.8323089,175.245776 97.2,177.5 C98.6820482,179.923989 100.50391,182.12302 102.61,184.03 C104.644067,185.857622 106.918462,187.398558 109.37,188.61 C118.810235,193.26292 130.008907,192.56657 138.8,186.78 C139.32,186.44 139.8,186.08 140.32,185.7 C140.353624,185.681743 140.384028,185.658096 140.41,185.63 C141.01,185.17 141.6,184.69 142.17,184.19 C142.359389,183.998987 142.359389,183.691013 142.17,183.5 C141.978223,183.322141 141.681777,183.322141 141.49,183.5 C140.93,183.99 140.36,184.5 139.77,184.91 C137.808143,186.378158 135.671853,187.597455 133.41,188.54 C131.161784,189.45318 128.81139,190.091144 126.41,190.44 L126.33,190.44 C123.866378,190.749963 121.373622,190.749963 118.91,190.44 L119.03,190.44 C116.47871,190.117741 113.980727,189.462147 111.6,188.49 L111.72,188.49 C109.276238,187.479812 106.976403,186.15169 104.88,184.54 L104.98,184.62 C102.972758,183.052754 101.174764,181.234595 99.63,179.21 C98.1618421,177.248143 96.9425448,175.111853 96,172.85 L96,172.8 C95.064821,170.621101 94.3933933,168.338247 94,166 C93.87,165.07 93.8,164.14 93.76,163.2 C93.7115871,161.680458 93.7784454,160.159433 93.96,158.65 C94.0333333,158.09 94.1233333,157.53 94.23,156.97 C94.39,156.1 94.6,155.24 94.84,154.39 C94.8215339,154.341705 94.8215339,154.288295 94.84,154.24 C94.8517433,154.159053 94.8684413,154.078902 94.89,154 C94.89,153.91 94.89,153.81 94.96,153.71 C95.0215674,153.438147 95.1017566,153.17085 95.2,152.91 C95.2,152.82 95.27,152.74 95.3,152.65 C95.2556896,152.559086 95.1862919,152.482749 95.1,152.43 L94.98,152.38 L95,152.31 Z" id="Shape" fill="#171717"></path>
                <polygon id="Shape" fill="#171717" points="94.84 154.18 94.84 154.17 94.84 154.18 94.84 154.18"></polygon>
                <polygon id="Shape" fill="#171717" points="95.92 173.08 95.92 173.07 95.92 173.08 95.92 173.08"></polygon>
                <polygon id="Shape" fill="#171717" points="126.27 190.61 126.27 190.61 126.28 190.61 126.27 190.61 126.27 190.61"></polygon>
                <path d="M144.51,180.51 C143.26958,181.985478 141.893559,183.341411 140.4,184.56 L140.34,184.56 L139.79,185 L138.88,185.66 C138.769723,185.724454 138.687646,185.827942 138.65,185.95 C138.604638,186.069162 138.604638,186.200838 138.65,186.32 C138.78478,186.549059 139.07759,186.628917 139.31,186.5 C139.88,186.1 140.43,185.69 140.97,185.26 L141.05,185.19 C141.904971,184.511326 142.719684,183.783426 143.49,183.01 L143.8,182.65 L144.13,182.19 L144.36,181.85 C144.5,181.65 144.64,181.45 144.77,181.24 C144.9,181.03 145.08,180.76 145.23,180.52 L145.23,180.46 C145.204586,180.431303 145.17407,180.407568 145.14,180.39 C144.951655,180.270305 144.705109,180.299557 144.55,180.46 L144.51,180.51 Z" id="Shape" fill="#171717"></path>
                <polygon id="Shape" fill="#171717" points="139.8 185.03 139.8 185.02 139.8 185.03 139.8 185.03"></polygon>
                <polygon id="Shape" fill="#171717" points="139.73 185.08 139.73 185.07 139.73 185.08 139.73 185.08"></polygon>
                <polygon id="Shape" fill="#171717" points="139.72 185.09 139.72 185.08 139.73 185.08 139.72 185.09 139.72 185.09"></polygon>
                <polygon id="Shape" fill="#171717" points="139.71 185.09 139.72 185.08 139.72 185.08 139.71 185.09 139.71 185.09"></polygon>
                <polygon id="Shape" fill="#171717" points="139.7 185.1 139.71 185.1 139.7 185.1 139.7 185.1"></polygon>
                <path d="M192.46,34.57 C189.973701,33.4733081 187.344019,32.7359199 184.65,32.38 C182.042709,32.0150424 179.397291,32.0150424 176.79,32.38 C168.835659,33.4760935 161.691787,37.8210737 157.06,44.38 L157.06,44.44 L156.86,44.84 C156.8,44.98 156.74,45.12 156.67,45.25 C156.6,45.38 156.6,45.4 156.56,45.47 C156.519556,45.5345183 156.482829,45.6012937 156.45,45.67 L156.24,46.06 C156.17,46.19 156.11,46.33 156.04,46.47 L155.65,47.26 L155.5,47.53 L155.61,47.62 C155.833816,47.7600071 156.128684,47.6929916 156.27,47.47 L156.75,46.65 L156.89,46.42 L156.94,46.34 L157,46.25 C158.991494,43.0655303 161.603315,40.3142759 164.68,38.16 C166.624314,36.8313119 168.71884,35.7370567 170.92,34.9 L171,34.9 C173.260762,34.0860417 175.610801,33.5455327 178,33.29 L177.93,33.29 C180.382385,33.0497036 182.855306,33.1202625 185.29,33.5 L185.17,33.5 C187.682252,33.9073874 190.129945,34.6437127 192.45,35.69 L192.33,35.64 C194.668134,36.7013598 196.85411,38.0701169 198.83,39.71 C200.726977,41.293533 202.40799,43.1191126 203.83,45.14 L204.3,45.83 C205.472085,47.6308899 206.441315,49.5559349 207.19,51.57 C207.4,52.14 207.59,52.73 207.76,53.32 C207.761277,53.3433159 207.761277,53.3666841 207.76,53.39 L207.76,53.48 C207.755473,53.5298975 207.755473,53.5801025 207.76,53.63 C208.197149,55.215776 208.504827,56.8344269 208.68,58.47 C208.675321,58.4502736 208.675321,58.4297264 208.68,58.41 C208.913638,60.8222958 208.846456,63.2542814 208.48,65.65 C208.48,65.65 208.48,65.65 208.48,65.72 C208.37,66.38 208.24,67.03 208.08,67.72 C208.058592,67.7921745 208.04189,67.8656622 208.03,67.94 C208.025453,67.9932364 208.025453,68.0467636 208.03,68.1 C208.025664,68.119765 208.025664,68.140235 208.03,68.16 C207.641969,69.676012 207.130254,71.1576453 206.5,72.59 C206.5,72.59 206.5,72.67 206.5,72.72 L206.5,72.81 C206.472561,72.8579796 206.449148,72.9081514 206.43,72.96 C206.42533,73.0232472 206.42533,73.0867528 206.43,73.15 L206.43,73.09 C206.413031,73.2316743 206.386301,73.372008 206.35,73.51 C206.35,73.64 206.28,73.77 206.24,73.9 C206.2,74.03 206.11,74.39 206.04,74.64 C205.97,74.89 205.97,74.88 205.92,75 L205.71,75.45 C205.692247,75.4943353 205.67222,75.5377262 205.65,75.58 C205.87268,75.6917362 206.143757,75.6185886 206.28,75.41 C206.37,75.26 206.45,75.11 206.53,74.96 L206.69,74.67 L206.69,74.61 C206.69,74.61 206.69,74.61 206.69,74.61 L207,73.99 C207.28,73.43 207.53,72.85 207.77,72.27 C207.76819,72.243364 207.76819,72.216636 207.77,72.19 C207.77,72.19 207.77,72.19 207.77,72.19 L208.02,71.55 C208.016162,71.5335543 208.016162,71.5164457 208.02,71.5 C208.038631,71.408846 208.061996,71.3187239 208.09,71.23 L208.2,70.96 C208.241564,70.8431294 208.2917,70.7294872 208.35,70.62 C208.61,69.87 208.83,69.11 209.02,68.34 C209.693507,65.6545942 209.976416,62.886128 209.86,60.12 C209.80847,58.7779125 209.661431,57.4411983 209.42,56.12 C209.34,55.67 209.25,55.23 209.14,54.78 C208.98,54.05 208.78,53.32 208.55,52.61 C208.47,52.36 208.39,52.1 208.3,51.85 C208.12,51.31 207.92,50.79 207.71,50.26 C207.43,49.56 207.12,48.88 206.78,48.21 L206.64,47.93 C206.26,47.2033333 205.85,46.4933333 205.41,45.8 L205.3,45.64 L205.23,45.52 L204.81,44.91 L204.52,44.48 C204.11,43.9 203.68,43.34 203.22,42.79 C202.083593,41.4185679 200.821432,40.1564068 199.45,39.02 L199.38,38.97 C199.26,38.86 199.13,38.76 199,38.66 C197.875255,37.7473681 196.677953,36.9279855 195.42,36.21 C194.480329,35.6684694 193.51227,35.1777636 192.52,34.74 L192.46,34.57 Z M159.18,43.15 L159.11,43.23 L159.18,43.15 Z" id="Shape" fill="#171717"></path>
                <polygon id="Shape" fill="#171717" points="207.17 51.5 207.17 51.49 207.17 51.5 207.17 51.5"></polygon>
                <polygon id="Shape" fill="#171717" points="164.72 38.12 164.73 38.11 164.72 38.12 164.72 38.12"></polygon>
                <path d="M156.87,46.14 C156.648784,46.0095077 156.363782,46.0807582 156.23,46.3 L155.32,47.85 L155.24,48.03 C155.24,48.03 155.24,48.08 155.18,48.1 C148.26,59.9466667 141.336667,71.7966667 134.41,83.65 C126.89,96.5433333 119.36,109.43 111.82,122.31 L102.4,138.44 L97.6,146.67 L95.68,149.96 L94.99,151.12 C94.9674685,151.178522 94.940732,151.235337 94.91,151.29 C94.83,151.49 94.76,151.7 94.69,151.9 C94.62,152.1 94.46,152.5 94.36,152.81 C94.26,153.12 94.25,153.18 94.18,153.37 C94.4038158,153.510007 94.6986839,153.442992 94.84,153.22 C95.04,152.9 95.23,152.566667 95.41,152.22 L95.53,151.96 C95.647976,151.680706 95.802673,151.418394 95.99,151.18 L96.58,150.18 L98.85,146.3 L104.25,137.05 L114.89,119 L137.55,80.21 L155.94,48.73 L155.94,48.67 C155.960547,48.6042606 155.987336,48.5406375 156.02,48.48 C156.02,48.42 156.02,48.36 156.09,48.31 C156.16,48.26 156.09,48.2 156.16,48.14 C156.23,48.08 156.27,47.91 156.32,47.79 L156.32,47.71 C156.32,47.61 156.41,47.51 156.46,47.41 L156.46,47.32 C156.46,47.32 156.46,47.32 156.46,47.27 C156.55211,47.0172902 156.65896,46.7701994 156.78,46.53 C156.819315,46.4595355 156.852761,46.3859536 156.88,46.31 C156.84696,46.2691044 156.806183,46.2351233 156.76,46.21 L156.87,46.14 Z" id="Shape" fill="#171717"></path>
                <path d="M205.46,75.67 C205.422598,75.7562861 205.379157,75.8398267 205.33,75.92 C205.28937,76.0065733 205.242584,76.090121 205.19,76.17 C205.193303,76.1999091 205.193303,76.2300909 205.19,76.26 L205.14,76.32 C198.38,87.7933333 191.666667,99.2666667 185,110.74 L161.3,151.31 L142.85,182.9 C142.709993,183.123816 142.777008,183.418684 143,183.56 L143.4,183.11 C143.54,182.97 143.67,182.82 143.79,182.68 L144.15,182.19 C144.22,182.08 144.3,181.97 144.37,181.85 C144.44,181.73 144.66,181.45 144.79,181.24 C145.02,180.88 145.24,180.51 145.49,180.16 C145.509012,180.129145 145.536894,180.104748 145.57,180.09 L164.57,147.51 C172.463333,133.99 180.36,120.47 188.26,106.95 L205.55,77.34 C205.534996,77.2877219 205.534996,77.2322781 205.55,77.18 C205.73,76.87 205.91,76.57 206.08,76.26 L206.48,75.52 C206.64,75.2 206.79,74.88 206.94,74.52 C207.01,74.35 207.08,74.17 207.16,73.99 C207.24,73.81 207.3,73.61 207.36,73.41 C207.42,73.21 207.47,73.02 207.54,72.82 C207.61,72.62 207.66,72.43 207.71,72.23 C207.76,72.03 207.85,71.65 207.92,71.35 C207.92,71.3 207.92,71.25 207.92,71.2 L205.35,75.59 L205.46,75.67 Z" id="Shape" fill="#171717"></path>
                <path d="M152.55,107.6 C154.05,107 154.19,106.29 152.97,105.47 C152.32,104.15 151.97,104.09 152.05,105.28 L149.64,111.21 C150.914035,110.963001 152.225786,110.986851 153.49,111.28 C153.982911,111.362513 154.459126,111.524629 154.9,111.76 C156.266667,112.64 156.99,111.79 157.07,109.21 L157.07,117 C159.42,116.64 157.24,114.68 157.07,113.8 C156.51,110.7 152.35,110.07 150.32,112.02 C149.63,112.69 147.58,114.92 148.16,115.16 L150.58,117.02 C150.44,118.24 150.85,118.42 151.79,117.56 L147.71,110.56 L148.5,111.72 L148.91,114.83 C148.91,114.83 150.29,113.92 150.64,113.73 L145.11,108.21 C144.74,108.86 143.77,108.91 144.03,109.33 L144.44,112.44 C145.029363,112.806354 145.792551,112.723847 146.29,112.24 L142.8,106.16 C145.226667,109.02 145.466667,110.056667 143.52,109.27 L141.67,106.86 L141.99,107.65 L146.99,102.65 L145.46,101.72 C142.46,97.58 135.4,101.6 138.46,105.8 C139.959164,108.055307 142.214704,109.700858 144.82,110.44 C147.53,111.26 150.98,108.38 149.82,105.44 C147.17,98.93 136.92,100.77 136.74,107.9 C136.55,115.22 146.9,115.56 149.81,110.17 C151.22,107.57 149.49,104 146.33,104.1 C141.48,104.25 132.78,109.41 138.17,114.87 C142.34,119.09 149.45,116.81 152.17,112.22 C154.27,108.64 150.17,104.84 146.64,106.7 C143.52,108.36 139.46,112.12 141.74,115.97 C143.86,119.54 148.69,119.1 151.87,117.48 C156.53,115.1 152.44,108.26 147.79,110.48 C143.54,112.53 139.95,118.35 144.72,122.13 C149.72,126.05 153.08,120.57 156.11,117.63 L149.36,115.85 C150.56,122.43 159.85,126.8 164.79,121.1 C166.835823,118.614752 167.006617,115.080959 165.21,112.41 C162.89,108.9 158.8,108.52 154.99,109.11 C151.18,109.7 151.19,116.21 154.99,116.9 C157.65,117.39 160.48,117.44 162.51,115.32 C164.345855,113.428292 164.712548,110.551787 163.41,108.26 C160.47,103.09 152.71,102.39 147.56,103.32 C144.91,103.8 143.97,107.15 145.15,109.25 C148.78,115.76 158.87,112.87 160.38,106.05 C161.106423,103.010618 159.498758,99.8973624 156.6,98.73 C152.9,97.23 149.6,99.27 146.91,101.78 C143.13,105.37 148.85,111.08 152.62,107.5 L152.55,107.6 Z" id="Shape" fill="#FEEB3D"></path>
                <path d="M170.13,41.07 C170.22,41.23 170.31,41.4 170.39,41.58 C170.56,41.36 170.73,41.16 170.91,40.96 L170.13,41.07 Z" id="Shape" fill="#E4C93B"></path>
                <path d="M136.77,186.06 C136.77,186.17 136.87,186.28 136.93,186.39 L136.78,186.02 L136.77,186.06 Z" id="Shape" fill="#E4C93B"></path>
                <polygon id="Shape" fill="#171717" points="94.99 154.27 94.99 154.26 94.99 154.27 94.99 154.27"></polygon>
                <polygon id="Shape" fill="#171717" points="96.08 173.17 96.08 173.16 96.08 173.17 96.08 173.17"></polygon>
                <polygon id="Shape" fill="#171717" points="126.42 190.7 126.42 190.7 126.43 190.7 126.42 190.7 126.42 190.7"></polygon>
                <polygon id="Shape" fill="#171717" points="139.95 185.12 139.95 185.11 139.95 185.12 139.95 185.12"></polygon>
                <polygon id="Shape" fill="#171717" points="139.88 185.17 139.89 185.16 139.88 185.17 139.88 185.17"></polygon>
                <polygon id="Shape" fill="#171717" points="139.88 185.18 139.88 185.17 139.88 185.17 139.88 185.18 139.88 185.18"></polygon>
                <polygon id="Shape" fill="#171717" points="139.86 185.18 139.87 185.18 139.86 185.18 139.86 185.18"></polygon>
                <polygon id="Shape" fill="#171717" points="139.87 185.18 139.87 185.17 139.88 185.17 139.87 185.18 139.87 185.18"></polygon>
                <polygon id="Shape" fill="#171717" points="139.86 185.19 139.86 185.18 139.86 185.19 139.86 185.19"></polygon>
                <polygon id="Shape" fill="#171717" points="207.32 51.59 207.32 51.58 207.32 51.59 207.32 51.59"></polygon>
                <polygon id="Shape" fill="#171717" points="207.32 51.6 207.33 51.6 207.32 51.6 207.32 51.6"></polygon>
                <polygon id="Shape" fill="#171717" points="171.18 34.92 171.19 34.92 171.18 34.92 171.18 34.92"></polygon>
                <polygon id="Shape" fill="#171717" points="164.85 38.22 164.85 38.22 164.9 38.22 164.9 38.22"></polygon>
                <path d="M152.7,107.69 C154.2,107.08 154.34,106.38 153.13,105.56 C152.47,104.24 152.13,104.18 152.2,105.36 L149.79,111.3 C151.066947,111.047922 152.383032,111.071789 153.65,111.37 C154.143265,111.451107 154.619704,111.613299 155.06,111.85 C156.393333,112.73 157.116667,111.88 157.23,109.3 L157.23,117.09 C159.57,116.73 157.4,114.76 157.23,113.89 C156.66,110.79 152.5,110.15 150.47,112.11 C149.79,112.78 147.74,115.01 148.32,115.25 L150.73,117.1 C150.6,118.33 151,118.51 151.94,117.64 L147.86,110.64 L148.65,111.8 L149.06,114.91 C149.06,114.96 150.44,114 150.8,113.81 L145.27,108.29 C144.89,108.93 143.92,108.99 144.18,109.41 L144.59,112.52 C145.180745,112.887503 145.946657,112.800562 146.44,112.31 L142.95,106.24 C145.376667,109.1 145.62,110.136667 143.68,109.35 L141.82,106.93 L142.15,107.73 L147.15,102.73 L145.62,101.8 C142.62,97.66 135.56,101.68 138.62,105.88 C140.115262,108.139038 142.372341,109.785713 144.98,110.52 C147.68,111.34 151.13,108.45 149.98,105.52 C147.32,99.01 137.07,100.85 136.89,107.98 C136.71,115.3 147.05,115.64 149.97,110.25 C151.37,107.65 149.64,104.07 146.48,104.17 C141.63,104.33 132.93,109.49 138.32,114.94 C142.49,119.16 149.6,116.94 152.32,112.3 C154.42,108.71 150.32,104.92 146.8,106.78 C143.67,108.44 139.61,112.2 141.9,116.05 C144.01,119.61 148.84,119.18 152.02,117.55 C156.68,115.18 152.59,108.34 147.94,110.55 C143.69,112.6 140.11,118.42 144.88,122.2 C149.88,126.12 153.23,120.64 156.27,117.7 L149.52,115.92 C150.72,122.49 160,126.86 164.94,121.17 C166.992166,118.688272 167.167139,115.1522 165.37,112.48 C163.04,108.97 158.95,108.59 155.15,109.18 C151.35,109.77 151.34,116.28 155.15,116.97 C157.81,117.46 160.63,117.51 162.66,115.39 C164.505424,113.502909 164.87297,110.619719 163.56,108.33 C160.62,103.16 152.86,102.46 147.71,103.39 C145.07,103.87 144.13,107.22 145.3,109.32 C148.93,115.83 159.02,112.93 160.54,106.12 C161.260625,103.078501 159.649651,99.9670666 156.75,98.8 C153.05,97.3 149.75,99.34 147.06,101.85 C143.28,105.44 149,111.14 152.77,107.57 L152.7,107.69 Z" id="Shape" fill="#FEEB3D"></path>
                <path d="M180.92,61 C181.57,60 184.64,52.83 182.92,57 L178.03,61.89 C179.27,61.08 180.64,60.51 181.83,59.62 L182.83,58.95 C179.05,59.77 178.19,60.22 180.24,60.28 C180.24,60.28 182.8,60.61 182.49,60.77 C180.33,61.87 179.35,48.46 179.09,54.55 C178.78,61.91 185.58,68.18 192.72,68.18 C200.36,68.18 206.03,61.93 206.34,54.55 C206.92,40.87 193.45,34.48 181.94,33.21 C176.841946,32.5439299 171.674339,33.7329054 167.38,36.56 C164.83,38.15 162.38,39.43 160.49,41.87 C159.590859,43.0163131 158.887995,44.3037702 158.41,45.68 C156.41,50.49 159.59,44.08 157.47,47.26 C153.37,53.38 156.28,62.35 162.35,65.9 C169.04,69.81 176.89,67.14 181,61.01 L180.92,61 Z" id="Shape" fill="#FEEB3D"></path>
                <path d="M180.4,54.92 C180.224479,57.5749963 180.488015,60.2407647 181.18,62.81 C183.97,74.57 200.18,75.68 206.08,66.06 C208.77,61.72 209.08,57.06 208.08,52.14 L181.81,59.38 C182.44,61.73 182.66,59.88 181.63,62.29 C180.82,64.18 180.11,66.12 179.35,68.03 C176.88,74.25 181.55,81.81 187.24,84.1 C193.81,86.75 200.3,84.27 204.24,78.53 L206.24,75.61 C214.15,64.11 198.81,50.26 187.6,56.96 C183.233333,59.5733333 178.856667,62.1666667 174.47,64.74 L195,76.5 L195.62,67.86 C196.46,55.91 180.23,50.11 172.36,58.22 C167.626124,63.1403616 163.279834,68.4194327 159.36,74.01 C155.11,80.01 158.29,89.16 164.25,92.65 C171.07,96.65 178.63,93.79 182.89,87.76 C185.515498,84.1161343 188.42096,80.6824066 191.58,77.49 L168.32,67.86 L167.71,76.5 C166.96,87.01 179.77,93.21 188.21,88.26 C192.59,85.6866667 196.963333,83.0966667 201.33,80.49 L182.69,61.85 L180.69,64.78 L205.6,75.27 C208.77,67.27 210.39,60.74 208.05,52.14 C205.954424,44.9585411 198.531439,40.7421439 191.29,42.62 C183.87,44.62 180.21,52.17 181.78,59.38 L182.04,60.57 L182.04,53.33 L182.56,52.33 L207.47,55.59 C207.47,56.85 207.57,56.59 207.66,54.94 C208.34,47.6 200.9,41.31 194.03,41.31 C186.09,41.31 181.09,47.58 180.41,54.94 L180.4,54.92 Z" id="Shape" fill="#FEEB3D"></path>
                <path d="M169.29,66.79 C186.82,66.79 186.85,39.54 169.29,39.54 C151.73,39.54 151.72,66.79 169.29,66.79 Z" id="Shape" fill="#FEEB3D"></path>
                <path d="M169.07,66.66 C186.6,66.66 186.63,39.41 169.07,39.41 C151.51,39.41 151.51,66.66 169.07,66.66 Z" id="Shape" fill="#FEEB3D"></path>
                <path d="M169,66.6 C186.53,66.6 186.56,39.35 169,39.35 C151.44,39.35 151.44,66.6 169,66.6 Z" id="Shape" fill="#FEEB3D"></path>
                <path d="M169.12,65.82 C186.65,65.82 186.68,38.57 169.12,38.57 C151.56,38.57 151.56,65.82 169.12,65.82 Z" id="Shape" fill="#FEEB3D"></path>
                <path d="M157.12,45.22 C154.79046,50.6690511 152.145996,55.9780138 149.2,61.12 C146.26,66.23 142.43,71.04 141.14,76.91 C139.57,84.09 143.3,91.65 150.66,93.67 C157.47,95.55 165.83,91.38 167.42,84.16 C167.54,83.58 168.08,82.16 167.51,83.41 C168.106109,82.2976214 168.774196,81.2253417 169.51,80.2 C170.93,77.94 172.31,75.66 173.61,73.33 C176.190474,68.6678045 178.526958,63.8746762 180.61,58.97 C183.52,52.22 182.61,44.36 175.72,40.33 C169.97,36.97 160.01,38.42 157.08,45.22 L157.12,45.22 Z" id="Shape" fill="#FEEB3D"></path>
                <path d="M141.74,72.86 C136.32,81.8 131.22,91.01 126.45,100.32 C123.1,106.87 124.75,115.1 131.34,118.96 C137.43,122.52 146.62,120.65 149.98,114.07 C154.75,104.77 159.84,95.56 165.27,86.61 C169.08,80.32 166.65,71.61 160.38,67.97 C153.866719,64.2904777 145.608242,66.4569988 141.74,72.86 Z" id="Shape" fill="#FEEB3D"></path>
                <path d="M180.9,66.61 L173.55,74.2 C163.87,84.2 173.65,99.99 186.8,96.97 C189.136523,96.4461006 191.35678,95.4969828 193.35,94.17 L174.71,75.53 C172.27,80.04 169.98,83.89 166.9,87.02 C166.34,87.59 165.09,88.51 166.43,87.53 C168.07,86.33 166.43,87.44 165.64,87.75 C162.01,89.11 158.86,90.4 156.27,93.43 C151.49,99.02 150.78,107.21 156.27,112.7 C161.16,117.6 170.73,118.32 175.54,112.7 C175.04,113.28 171.87,114.17 174.65,113.47 C176.404269,112.995585 178.086217,112.285803 179.65,111.36 C182.491014,109.676215 185.074282,107.591413 187.32,105.17 C191.663715,100.37553 195.361741,95.0335642 198.32,89.28 C204.43,78 191.54,62.61 179.68,70.64 C178.36,71.52 178.34,71.54 179.68,70.7 L192.93,93.47 L200.29,85.88 C212.49,73.27 193.24,53.98 181.02,66.61 L180.9,66.61 Z" id="Shape" fill="#FEEB3D"></path>
                <path d="M165.66,90.46 L159.6,99 C156.15,103.87 157.73,111.51 161.73,115.51 C165.73,119.51 173.49,121.23 178.24,117.64 L180.57,115.88 L161.93,97.24 C159.107636,103.043421 155.266768,108.293285 150.59,112.74 C138,125 157.25,144.24 169.86,132 C176.182135,125.907866 181.45325,118.812134 185.46,111 C188.22,105.56 187.78,98.95 183.33,94.49 C179.4,90.57 171.57,88.78 166.82,92.36 L164.49,94.12 L183.13,112.76 L189.19,104.2 C193.45,98.2 190.26,89.05 184.31,85.56 C177.48,81.56 169.93,84.43 165.66,90.45 L165.66,90.46 Z" id="Shape" fill="#FEEB3D"></path>
                <path d="M122.26,106.45 C120.71,111.07 119.47,115.27 117.26,119.09 C114.38,124.09 111.37,128.64 109.81,134.24 C107.13,143.87 116.57,154.31 126.57,151 C131.992962,149.291083 137.071107,146.636906 141.57,143.16 C145.46,140.16 148.42,136.39 151.88,132.91 L130.48,116.4 C123.46,128.873333 116.146667,141.17 108.54,153.29 C104.63,159.52 107.22,168.29 113.43,171.93 C119.938896,175.545267 128.14139,173.367653 132,167 C139.606667,154.88 146.92,142.586667 153.94,130.12 C161.46,116.75 143.62,102.47 132.54,113.6 C128.07,118.09 124.82,122.86 119.3,124.69 L136.06,141.44 C137,138.04 140.42,133.81 142.41,129.74 C144.794093,124.517362 146.838349,119.14618 148.53,113.66 C150.87,106.66 145.83,98.77 139.01,96.9 C131.57,94.85 124.6,99.41 122.25,106.41 L122.26,106.45 Z" id="Shape" fill="#FEEB3D"></path>
                <path d="M137.68,120.06 C155.22,120.06 155.25,92.82 137.68,92.82 C120.11,92.82 120.12,120.06 137.68,120.06 Z" id="Shape" fill="#FEEB3D"></path>
                <path d="M121.65,106.71 C120.93,108.02 120.26,109.34 119.65,110.71 L117.84,115 C118.56,113.4 118.59,113.25 117.93,114.53 C116.08,117.13 114.56,120.05 112.93,122.78 C109.2,128.86 111.4,138.03 117.82,141.42 C124.338287,145.06051 132.568246,142.90147 136.46,136.53 C138.14,133.79 139.97,131.1 141.46,128.28 C142.487392,126.345397 143.376288,124.340368 144.12,122.28 C142.95,125.39 144.87,121.09 145.19,120.52 C148.67,114.29 146.9,105.36 140.31,101.87 C133.88,98.48 125.37,100.11 121.66,106.76 L121.65,106.71 Z" id="Shape" fill="#FEEB3D"></path>
                <path d="M112.86,122.91 C111.27,126.16 108.86,128.84 107.33,132.14 C106.546602,133.565187 105.967595,135.093496 105.61,136.68 C108.056667,132.746667 107.926667,132.66 105.22,136.42 C104.051453,138.030943 103.008385,139.729273 102.1,141.5 C94.1,157.11 116.03,169.98 125.63,155.25 C127.627476,152.045144 129.260925,148.627311 130.5,145.06 C132.82,138.77 128.41,131.32 122.61,128.98 C116.344183,126.353584 109.10052,128.73121 105.61,134.56 L95.61,152.12 C91.8130423,158.614869 94.0001313,166.958042 100.495,170.755 C106.989869,174.551958 115.333042,172.364869 119.13,165.87 L129.13,148.31 L104.23,137.81 C104.69,137 104.53,137.34 103.74,138.81 C103.246812,139.726436 102.702624,140.614497 102.11,141.47 L125.64,155.22 C127.86,150.92 129.99,149.11 131.9,143.89 C131.15,145.03 131.2,144.89 132.02,143.48 C132.5,142.71 133.02,141.97 133.54,141.24 C134.612112,139.78028 135.568364,138.238909 136.4,136.63 C139.62,130.03 138.19,121.9 131.51,117.99 C125.51,114.49 116.11,116.24 112.87,122.88 L112.86,122.91 Z" id="Shape" fill="#FEEB3D"></path>
                <path d="M93.54,163 C93.5010735,164.685474 93.6962691,166.368194 94.12,168 C94.2921709,168.682728 94.5161536,169.351333 94.79,170 C95.6086839,172.148976 96.5502373,174.249107 97.61,176.29 C99.4319249,179.411947 102.42094,181.680884 105.917776,182.596365 C109.414612,183.511846 113.131993,182.998661 116.25,181.17 C119.313089,179.370884 121.557589,176.452316 122.51,173.03 C123.382384,169.481825 122.893584,165.735549 121.14,162.53 C120.64,161.61 120.14,160.67 119.77,159.7 L121.15,162.96 C120.780393,162.114518 120.498906,161.233196 120.31,160.33 L120.8,163.96 C120.765056,163.654329 120.765056,163.345671 120.8,163.04 C120.797686,157.530245 117.478401,152.563777 112.388468,150.454278 C107.298535,148.344778 101.439162,149.507194 97.54,153.4 C95.0857364,156.024502 93.6648153,159.448922 93.54,163.04 L93.54,163 Z" id="Shape" fill="#FEEB3D"></path>
                <path d="M97.67,176.23 C100.250908,181.475312 104.519267,185.701411 109.79,188.23 C116.63,191.41 122.62,191.4 129.79,189.77 L122.55,189.77 L123.55,189.99 C130.55,191.47 138.61,187.99 140.31,180.47 C141.87,173.63 138.25,165.3 130.8,163.71 C127.729405,162.92478 124.510595,162.92478 121.44,163.71 C119.87,164.17 120.59,163.83 121.66,163.89 C118.98,163.74 123.4,164.2 121.66,163.82 C119.92,163.44 123.52,164.91 122.05,163.97 C120.58,163.03 123.49,165.64 122.28,164.27 C121.99,163.95 120.74,162.27 121.62,163.71 C122.62,165.4 121.13,162.48 121.1,162.42 C118.1,155.95 108.26,153.79 102.46,157.53 C95.8,161.82 94.31,169.25 97.57,176.17 L97.67,176.23 Z" id="Shape" fill="#FEEB3D"></path>
                <path d="M138,186.51 C142.87,184.1 145.59,179.25 148.36,174.84 C151.5,169.84 154.71,165.26 154.78,159.08 C154.87,151.95 148.46,145.13 141.16,145.46 C133.7,145.79 127.63,151.46 127.53,159.08 C129.15,154.74 129.376667,153.62 128.21,155.72 L126.98,157.67 L124.83,161.08 C124.13,162.2 123.29,163.31 122.69,164.49 C121.89,165.68 122.13,165.43 123.4,163.72 C125.22,162.56 125.51,162.32 124.25,162.98 C117.85,166.15 115.56,175.74 119.36,181.62 C123.59,188.18 131.16,189.9 138,186.51 Z" id="Shape" fill="#FEEB3D"></path>
                <path d="M155.4,109.26 C153.086888,111.670377 151.109095,114.381432 149.52,117.32 C146.38,123.32 147.46,130.73 153.03,134.89 C158.91,139.29 165.39,138.12 170.92,133.83 C172.232602,132.72872 173.301897,131.366561 174.06,129.83 L150.53,116.08 C149.19,119.25 148.89,119.25 147.1,121.48 C142.47,127.2 141.51,135.16 147.1,140.75 C152.1,145.75 161.4,146.22 166.36,140.75 L165.18,141.64 L146.54,123 C142.01,130.69 137.72,138.58 132.63,145.9 C128.43,151.95 131.52,161.03 137.52,164.54 C144.52,168.63 151.71,165.54 156.16,159.65 L156.88,158.7 L132,148.2 C132.08,147.78 134.39,145.44 132,147.88 L151.26,167.14 C155.222093,162.434899 158.396477,157.119495 160.66,151.4 C163.46,144.6 157.66,136.4 151.14,134.64 C143.32,132.49 137.14,137.33 134.38,144.16 C134.38,144.22 132.17,147.67 132,147.88 C127.27,153.51 126.47,161.62 132,167.14 C137.13,172.28 146.15,172.47 151.26,167.14 C154.5,163.78 157.26,160.14 158.26,155.44 C159.64,148.83 156.89,141.99 150.37,139.37 C143.59,136.64 137.57,139.37 133.37,144.94 L132.65,145.94 L156.18,159.69 C161.27,152.37 165.56,144.48 170.08,136.8 C177.15,124.8 163.22,111.74 151.44,118.16 C149.821839,119.034097 148.361614,120.173208 147.12,121.53 L166.38,140.8 C169.17,137.35 172.38,134 174.08,129.88 C176.94,123.11 176.08,115.29 169.19,111.24 C163.13,107.69 153.88,109.54 150.55,116.13 L151.67,114.6 L173.07,131.11 C174.3,128.75 172.87,130.52 174.69,128.57 C179.69,123.19 180.02,114.63 174.69,109.3 C169.61,104.22 160.46,103.9 155.42,109.3 L155.4,109.26 Z" id="Shape" fill="#FEEB3D"></path>
                <path d="M170,41 C170.101838,41.163464 170.19206,41.333884 170.27,41.51 C170.43,41.3 170.61,41.09 170.79,40.89 L170,41 Z" id="Shape" fill="#E4C93B"></path>
                <path d="M136.62,186 C136.661131,186.115509 136.714784,186.226168 136.78,186.33 C136.78,186.21 136.67,186.09 136.62,185.96 L136.62,186 Z" id="Shape" fill="#E4C93B"></path>
                <polygon id="Shape" fill="#171717" points="94.84 154.18 94.84 154.17 94.84 154.18 94.84 154.18"></polygon>
                <polygon id="Shape" fill="#171717" points="95.92 173.08 95.92 173.07 95.92 173.08 95.92 173.08"></polygon>
                <polygon id="Shape" fill="#171717" points="126.27 190.61 126.27 190.61 126.28 190.61 126.27 190.61 126.27 190.61"></polygon>
                <path d="M144.51,180.51 C143.26958,181.985478 141.893559,183.341411 140.4,184.56 L140.34,184.56 L139.79,185 L138.88,185.66 C138.769723,185.724454 138.687646,185.827942 138.65,185.95 C138.604638,186.069162 138.604638,186.200838 138.65,186.32 C138.78478,186.549059 139.07759,186.628917 139.31,186.5 C139.88,186.1 140.43,185.69 140.97,185.26 L141.05,185.19 C141.904971,184.511326 142.719684,183.783426 143.49,183.01 L143.8,182.65 L144.13,182.19 L144.36,181.85 C144.5,181.65 144.64,181.45 144.77,181.24 C144.9,181.03 145.08,180.76 145.23,180.52 L145.23,180.46 C145.204586,180.431303 145.17407,180.407568 145.14,180.39 C144.951655,180.270305 144.705109,180.299557 144.55,180.46 L144.51,180.51 Z" id="Shape" fill="#171717"></path>
                <polygon id="Shape" fill="#171717" points="139.8 185.03 139.8 185.02 139.8 185.03 139.8 185.03"></polygon>
                <polygon id="Shape" fill="#171717" points="139.73 185.08 139.73 185.07 139.73 185.08 139.73 185.08"></polygon>
                <polygon id="Shape" fill="#171717" points="139.72 185.09 139.72 185.08 139.73 185.08 139.72 185.09 139.72 185.09"></polygon>
                <polygon id="Shape" fill="#171717" points="139.71 185.09 139.72 185.08 139.72 185.08 139.71 185.09 139.71 185.09"></polygon>
                <polygon id="Shape" fill="#171717" points="139.7 185.1 139.71 185.1 139.7 185.1 139.7 185.1"></polygon>
                <polygon id="Shape" fill="#171717" points="207.17 51.5 207.17 51.49 207.17 51.5 207.17 51.5"></polygon>
                <polygon id="Shape" fill="#171717" points="164.72 38.12 164.73 38.11 164.72 38.12 164.72 38.12"></polygon>
                <path d="M152.55,107.6 C154.05,107 154.19,106.29 152.97,105.47 C152.32,104.15 151.97,104.09 152.05,105.28 L149.64,111.21 C150.914035,110.963001 152.225786,110.986851 153.49,111.28 C153.982911,111.362513 154.459126,111.524629 154.9,111.76 C156.266667,112.64 156.99,111.79 157.07,109.21 L157.07,117 C159.42,116.64 157.24,114.68 157.07,113.8 C156.51,110.7 152.35,110.07 150.32,112.02 C149.63,112.69 147.58,114.92 148.16,115.16 L150.58,117.02 C150.44,118.24 150.85,118.42 151.79,117.56 L147.71,110.56 L148.5,111.72 L148.91,114.83 C148.91,114.83 150.29,113.92 150.64,113.73 L145.11,108.21 C144.74,108.86 143.77,108.91 144.03,109.33 L144.44,112.44 C145.029363,112.806354 145.792551,112.723847 146.29,112.24 L142.8,106.16 C145.226667,109.02 145.466667,110.056667 143.52,109.27 L141.67,106.86 L141.99,107.65 L146.99,102.65 L145.46,101.72 C142.46,97.58 135.4,101.6 138.46,105.8 C139.959164,108.055307 142.214704,109.700858 144.82,110.44 C147.53,111.26 150.98,108.38 149.82,105.44 C147.17,98.93 136.92,100.77 136.74,107.9 C136.55,115.22 146.9,115.56 149.81,110.17 C151.22,107.57 149.49,104 146.33,104.1 C141.48,104.25 132.78,109.41 138.17,114.87 C142.34,119.09 149.45,116.81 152.17,112.22 C154.27,108.64 150.17,104.84 146.64,106.7 C143.52,108.36 139.46,112.12 141.74,115.97 C143.86,119.54 148.69,119.1 151.87,117.48 C156.53,115.1 152.44,108.26 147.79,110.48 C143.54,112.53 139.95,118.35 144.72,122.13 C149.72,126.05 153.08,120.57 156.11,117.63 L149.36,115.85 C150.56,122.43 159.85,126.8 164.79,121.1 C166.835823,118.614752 167.006617,115.080959 165.21,112.41 C162.89,108.9 158.8,108.52 154.99,109.11 C151.18,109.7 151.19,116.21 154.99,116.9 C157.65,117.39 160.48,117.44 162.51,115.32 C164.345855,113.428292 164.712548,110.551787 163.41,108.26 C160.47,103.09 152.71,102.39 147.56,103.32 C144.91,103.8 143.97,107.15 145.15,109.25 C148.78,115.76 158.87,112.87 160.38,106.05 C161.106423,103.010618 159.498758,99.8973624 156.6,98.73 C152.9,97.23 149.6,99.27 146.91,101.78 C143.13,105.37 148.85,111.08 152.62,107.5 L152.55,107.6 Z" id="Shape" fill="#FEEB3D"></path>
                <path d="M109.46,103 C109.887125,97.6735352 109.382919,92.3133798 107.97,87.16 C107.697827,86.4158761 106.899696,86.0056441 106.13619,86.2174386 C105.372684,86.4292331 104.89994,87.1920022 105.05,87.97 C106.38115,92.8512952 106.851518,97.9272175 106.44,102.97 C106.28,104.91 109.31,104.9 109.44,102.97 L109.46,103 Z" id="Shape" fill="#FEEB3D"></path>
                <path d="M170.56,205.37 C175.218248,205.253409 179.863857,205.905483 184.31,207.3 C186.17,207.89 186.97,204.97 185.12,204.38 C180.409377,202.918524 175.49022,202.242816 170.56,202.38 C168.62,202.43 168.56,205.46 170.56,205.38 L170.56,205.37 Z" id="Shape" fill="#FEEB3D"></path>
                <path d="M161,43.46 C164.79,37.94 171.48,35.96 177.76,34.8 C186.47,33.2 192.83,35.54 199.55,40.95 C205.49,45.73 209.55,51.11 209.55,59.03 C209.55,66.42 206.29,73.26 202.83,79.6 C201.7,81.67 204.83,83.52 206,81.45 C210.31,73.56 214.08,64.97 213,55.76 C212,47.01 206.34,41.47 199.64,36.39 C192.94,31.31 186.05,29.72 177.7,31.11 C170.06,32.38 162.39,34.98 157.83,41.61 C156.5,43.56 159.67,45.4 161,43.46 Z" id="Shape" fill="#231F20"></path>
                <path d="M202.09,81.26 C195.09,94.26 187.43,106.81 179.91,119.47 C172.39,132.13 165.47,145.8 156.62,157.67 C155.2,159.56 158.39,161.39 159.78,159.52 C168.64,147.65 175.53,134.05 183.08,121.32 C190.63,108.59 198.29,96.09 205.26,83.11 C206.37,81.03 203.26,79.18 202.09,81.26 Z" id="Shape" fill="#231F20"></path>
                <path d="M156.83,157.61 C152.11,165.53 147.89,175.42 141.46,182.09 C135.03,188.76 121.63,191.84 112.79,189.01 C103.27,185.95 98,177.96 95.33,168.65 C92.25,157.87 97.03,149.57 103.25,141.14 C104.65,139.24 101.47,137.41 100.08,139.29 C93.44,148.29 88.58,157.37 91.56,168.8 C94.22,178.97 99.67,187.45 109.43,191.65 C118.58,195.57 130.93,193.48 139.33,188.47 C143.72,185.85 146.62,181.76 149.24,177.47 C152.9,171.47 156.41,165.47 159.99,159.47 C161.2,157.47 157.99,155.6 156.83,157.62 L156.83,157.61 Z" id="Shape" fill="#231F20"></path>
                <path d="M157.11,42.66 C154.42,50.24 148.36,56.6 144.35,63.53 C139.69,71.58 135.18,79.72 130.6,87.81 C129.43,89.87 132.6,91.72 133.76,89.66 C138.62,81.08 143.36,72.4 148.38,63.91 C152.38,57.12 157.99,51.13 160.65,43.64 C161.44,41.41 157.9,40.45 157.11,42.64 L157.11,42.66 Z" id="Shape" fill="#231F20"></path>
                <path d="M130.43,88.31 C126.7,97.61 119.7,104.51 114.89,113.21 C110.2,121.69 106.45,130.7 100.47,138.39 C99.03,140.23 101.61,142.84 103.06,140.98 C109.26,132.98 113.2,123.84 118.06,115.07 C120.747791,110.370378 123.839453,105.913566 127.3,101.75 C130.3,98 132.19,93.75 133.98,89.29 C134.86,87.1 131.31,86.15 130.44,88.29 L130.43,88.31 Z" id="Shape" fill="#231F20"></path>
                <path d="M108.68,127 C104.34,123.39 101.91,118.39 98.55,114 C95.7179183,110.264465 92.1642877,107.13591 88.1,104.8 C79.7889807,99.9652148 69.7001611,99.2775928 60.81,102.94 C52.99,106.25 45.11,114.29 42.32,122.37 C38.83,132.51 43.65,142.73 49.7,150.73 C51.11,152.59 54.3,150.73 52.87,148.88 C47.45,141.73 42.54,132.49 45.87,123.34 C48.87,115.03 57.6,107.11 66.16,105 C75.16,102.76 84.63,105.6 91.5,111.72 C97.34,116.92 100.07,124.6 106.09,129.62 C107.89,131.12 110.5,128.54 108.69,127.03 L108.68,127 Z" id="Shape" fill="#231F20"></path>
                <path d="M49.76,151 C72.12,183.92 93.9533333,217.193333 115.26,250.82 C116.52,252.82 119.7,250.97 118.43,248.97 C97.0966667,215.35 75.26,182.076667 52.92,149.15 C51.6,147.21 48.43,149.04 49.76,151 Z" id="Shape" fill="#231F20"></path>
                <path d="M142.52,186.52 L158.74,211.67 C161.86,216.51 164.52,220.34 164.98,226.25 C165.396405,230.597317 164.70848,234.9794 162.98,238.99 C159.27,247.39 152.72,250.79 144.63,253.9 C143.39,254.38 142.3,255.15 141.09,255.63 C137.61,257.04 134.78,256.41 131.41,255.33 C126.7,253.81 121.95,251.97 118.12,248.77 C116.32,247.27 113.71,249.85 115.52,251.36 C121.6,256.42 133.71,262.56 141.67,259.36 C150.25,255.95 158.42,252.94 163.84,244.97 C168.84,237.67 170.36,227.3 167.3,218.97 C165.3,213.36 160.76,208.13 157.53,203.12 L145.64,184.68 C144.36,182.68 141.19,184.54 142.47,186.53 L142.52,186.52 Z" id="Shape" fill="#231F20"></path>
            </g>
        </g>
    </g>
</svg>
