
<svg width="113px" height="240px" viewBox="0 0 113 240" version="1.1" xmlns="http://www.w3.org/2000/svg" xmlns:xlink="http://www.w3.org/1999/xlink">
    <g id="Page-1" stroke="none" stroke-width="1" fill="none" fill-rule="evenodd">
        <g id="revised-images">
            <g id="girl">
                <path d="M39.27,24.51 C40.6910005,23.500011 42.3613603,22.8982664 44.1,22.77 C44.94,22.65 45.79,22.58 46.64,22.52 C47.05,22.52 48.9,22.79 47.95,22.32 C50.5918301,23.767203 53.9044538,22.887356 55.48,20.32 C56.9,17.9 56.19,14.08 53.48,12.78 C46.76,9.52 36.92,12.04 31.48,16.69 C29.21,18.62 29.48,22.5 31.48,24.48 C33.72,26.73 36.99,26.42 39.27,24.48 L39.27,24.51 Z" id="Path" fill="#FFFFFF"></path>
                <path d="M56.31,12.67 C56.51,11.01 57.91,9.58 58.96,8.39 L55.07,8.39 C57.076512,10.369556 58.92546,12.5027002 60.6,14.77 C61.3928927,16.0500018 63.046937,16.4887403 64.37,15.77 C65.6815272,15.0007658 66.1278471,13.3181399 65.37,12 C63.4498918,9.33426816 61.3197751,6.82628148 59,4.5 C57.9214525,3.4363688 56.1885475,3.4363688 55.11,4.5 C52.93,6.97 51.25,9.33 50.84,12.67 C50.65,14.16 52.23,15.41 53.59,15.42 C55.0971481,15.3883823 56.3129119,14.1770234 56.35,12.67 L56.31,12.67 Z" id="Path" fill="#FFFFFF"></path>
                <path d="M20.88,166.18 C20.23,166.89 21.5,165.96 20.88,166.18 C20.6401346,166.287608 20.4149826,166.425388 20.21,166.59 C19.1629797,167.254705 18.2862251,168.155433 17.65,169.22 C16.1409941,171.807024 16.5506191,175.084024 18.65,177.22 C20.97,179.36 23.57,179.06 26.43,178.65 C28.2257897,178.407335 30.0080879,178.073571 31.77,177.65 C34.6848479,176.814658 36.3960321,173.801196 35.62,170.87 C34.7622527,167.976426 31.7786292,166.270869 28.85,167 C27.7433333,167.28 26.6233333,167.52 25.49,167.72 C24.93,167.82 24.36,167.92 23.8,167.99 C24.73,167.87 22.58,167.72 24.14,168.12 L26.57,169.53 L27.06,170.18 L27.81,172.96 C27.94,174.22 24.63,176.87 26.66,175.59 C27.3942612,175.151087 28.0668338,174.616391 28.66,174 C30.66,171.88 30.91,168.28 28.66,166.21 C26.41,164.14 22.96,163.95 20.87,166.21 L20.88,166.18 Z" id="Path" fill="#FFFFFF"></path>
                <path d="M78.8,178.26 C81.7748014,177.904936 84.7910783,178.18441 87.65,179.08 C92.72,180.65 97.26,173.47 93.01,169.87 C89.01,166.51 87.58,161.69 86.12,156.87 C84.12,150.1 73.44,152.98 75.5,159.79 C77.5,166.34 79.84,173.1 85.22,177.65 L90.58,168.44 C86.7754682,167.244667 82.7674137,166.836376 78.8,167.24 C75.8,167.55 73.29,169.54 73.29,172.74 C73.29,175.48 75.82,178.57 78.8,178.25 L78.8,178.26 Z" id="Path" fill="#FFFFFF"></path>
                <path d="M56.13,97.56 C57.843032,92.7143942 56.8821314,87.3249952 53.6,83.37 C49.95,78.84 44.19,78.44 39.74,75 C31.74,68.85 25.52,53.35 35.48,45.86 L28.81,37.21 C19.21,46.57 17.73,60 17,72.77 L27.82,71.3 C26.852003,65.350974 26.4302456,59.3258686 26.56,53.3 C26.63,48.78 20.31,45.7 17.16,49.41 L11.55,56 L20.95,59.9 C20.8564312,55.1743364 21.7133929,50.47805 23.47,46.09 C25.76,40.17 16.47,36.57 13.4,41.84 L8.4,50.42 L18.67,53.2 C18.89,48.05 21.87,42.36 24.47,37.98 C27.0077551,33.7581582 30.6482177,30.3078432 35,28 C39.17,25.74 43.64,25.1 48.25,24.35 C53.0939068,23.6080614 57.6986886,21.7490305 61.7,18.92 L57.46,19.48 C63.62,20.62 69.87,26.14 74.11,30.48 C78.8,35.28 82.84,40.92 81.92,47.92 L91.32,44.02 L80.33,31 C77.61,27.76 72.14,29.68 71.13,33.43 C70.5646445,35.245347 70.4955874,37.1789469 70.93,39.03 C71.1888624,39.9558563 71.5233197,40.858891 71.93,41.73 C72.19,43.27 72.54,43.22 73,41.59 L81.65,42.71 C77.7383425,37.6770343 75.0632056,31.7958434 73.84,25.54 L65.75,31.76 C63.96,30.43 64.94,26.76 62.75,26.07 C60.93,25.47 52.43,30.1 50.7,31 C49.7265209,31.4038933 48.7953308,31.9029844 47.92,32.49 C46.99,36.18 52.92,33.27 53.42,33.1 C59.05,31.1 58.42,22.1 51.95,22.28 C35.6009198,22.5778989 20.4187361,30.8105965 11.25,44.35 C8.4,48.49 13.09,53.54 17.47,52.45 C22.47,51.19 26.79,48.57 31.09,45.81 C35.23,43.16 39.09,40.44 44.25,40.81 L41.47,30.55 C34.3428929,35.4648334 28.3796418,41.8820698 24,49.35 C20.94,54.59 28.5,60.91 32.65,56.02 C38.2640676,49.3471025 44.7760415,43.4846433 52,38.6 L44.46,31.06 C40,40.32 29.55,44.67 24.86,53.94 C22.42,58.76 27.42,64.28 32.4,61.47 L39.52,57.47 C41.52,56.37 46.03,54.75 47.43,53.04 C48.6833333,52.68 48.8,51.7866667 47.78,50.36 C47.9466667,47.9933333 47.6133333,47.46 46.78,48.76 C45.78,49.11 44.53,51.16 43.68,52 C41.52357,54.0714643 39.2533841,56.0211534 36.88,57.84 L46.28,61.73 C46.1258141,58.936022 46.4643051,56.136701 47.28,53.46 C48.19,50.57 50.13,48.64 51.37,46.02 L52.37,44.92 C50.85,43.68 49.86,43.69 49.37,44.92 C48.59,45.5 47.61,47.49 47.01,48.19 C46.41,48.89 41.01,53.05 41.01,53.46 C42.11,55.52 42.69,55.81 42.76,54.35 C42.8639434,53.5469433 43.1329143,52.7740776 43.55,52.08 C43.94,51.38 45.41,49.26 45.94,49.13 C46.47,49 46.52,49.48 46.57,50.62 C46.5274444,52.0371827 46.2222785,53.4341645 45.67,54.74 C44.7384734,57.1010271 43.1957392,59.1718113 41.2,60.74 C39.54,61.98 38.53,61.44 39.51,62.81 C38.95,62.03 39.18,60.1 39.17,59.21 C39.17,56.79 39.36,53.96 41.17,52.21 C43.77,49.74 44.93,51.71 47.17,53.21 L48.17,54.4 C48.9033333,52.9533333 48.8033333,52.5833333 47.87,53.29 C47.06,53.09 44.54,54.73 43.43,55.07 C40.75,55.87 37.86,56.44 38.43,52.58 C39.2,46.89 45.71,46.5 49.12,49.87 C50.43,51.17 53.44,55.49 51.88,57.41 C50.32,59.33 49.42,55.86 48.88,54.35 C48.2432688,52.2560353 46.4430931,50.7262742 44.2738284,50.4357477 C42.1045638,50.1452212 39.965292,51.1473777 38.8,53 C34.95,59 31.6,66.61 35.72,73.44 C39.56,79.79 47.79,80.72 53.95,77.33 C60.3598976,73.6271226 65.2521607,67.7748281 67.76,60.81 C68.9263242,57.4104007 69.0482237,53.7394847 68.11,50.27 C67.11,46.69 64.27,43.57 64.65,39.68 L63,43.6 L63.67,42.93 L58.32,44.35 C62.2,45 65.08,50.73 67.54,53.42 C70.8,56.97 75.24,60.04 80.2,60.34 C89.62,60.9 95.42,51.74 94.49,43.13 L83.67,44.59 C87.13,53.44 85.52,62.5 83.67,71.59 C82.28,78.52 92.9,81.48 94.29,74.52 C96.47,63.68 98.41,52.34 94.29,41.71 C92.24,36.47 82.74,36.47 83.47,43.18 C83.87,46.82 83.01,50.71 78.59,48.53 C75,46.77 72.81,42.27 70.13,39.46 C66.13,35.25 56.62,29.55 53.8,38.29 C51.32,46 60.28,52 56.35,59.5 C55.1,61.9 50.04,69.03 46.65,68.37 C42.08,67.48 47.04,60.57 48.31,58.59 L38.25,57.27 C40.12,62.63 42.97,68.08 49.08,69.14 C54.94,70.14 60.67,66.02 62.44,60.51 C66.6,47.59 52.16,33.06 39.32,37.24 C27.91,41 21.84,58.62 34,65.42 C39.85,68.68 48.83,65.78 54.08,62.42 C60.27,58.48 60.39,51.82 55.89,46.42 C51.89,41.7 46.01,38.51 39.77,40.42 C33.77,42.26 29.64,47.83 28.52,53.87 C27.52,59.28 27.52,67.39 32.27,71.12 C37.79,75.45 44.93,72.12 49.47,67.98 C56.86,61.25 63.18,41.5 49.01,38.22 C36.56,35.4 23.42,58.81 37,64.3 C43.86,67.07 51.27,60.2 55.33,55.37 C59.59,50.29 63.84,42.97 58.89,36.88 C53.37,30.08 45.79,35.08 41.72,40.51 C37.1884998,46.6246895 34.9098465,54.1177496 35.27,61.72 C35.48,66.88 40.98,68.49 44.67,65.62 C49.99,61.49 65.77,49.51 55.67,42.57 C51.73,39.88 46.67,41.18 42.73,43.1 C37.24,45.73 32.08,49 26.84,52 L34.37,59.54 C39,50.34 49.46,46 54,36.62 C56.19,32.08 51.43,25.76 46.47,29.09 C38.4198169,34.444649 31.1477742,40.8855049 24.86,48.23 L33.51,54.91 C36.8710913,49.039083 41.4752898,43.9741233 47,40.07 C49.0711681,38.7742376 50.0538222,36.2782635 49.4218955,33.9183045 C48.7899688,31.5583456 46.6915363,29.8873946 44.25,29.8 C32.38,28.8 25.25,39.11 14.54,41.8 L20.76,49.89 C27.8803958,39.6297969 39.5124877,33.433958 52,33.25 L50.49,22.43 C43.49,24.86 34.69,32.38 41.29,40.26 C47.06,47.15 59.24,41.26 61.98,34.11 C64.88,26.51 56.75,18.25 49.53,23.52 C41.64,29.28 47.85,40.46 56.64,39.83 C65.43,39.2 71,28.3 65.08,21.38 C59.79,15.17 48.92,18.38 51.08,27.38 C52.85,34.89 63.49,41.16 70.22,35.5 C77.52,29.36 68.64,17.98 60.87,23.32 C53.1,28.66 58.3,40.43 67.15,40.18 C77.29,39.89 78.28,27.34 71.36,22.18 C67.15,19.05 62.43,24.18 63.27,28.4 C64.688694,35.5939113 67.7366639,42.3671776 72.18,48.2 C74.18,50.79 78.26,52.27 80.83,49.31 C82.489114,47.64267 83.4295563,45.3920695 83.45,43.04 C83.45,41.21 81.39,37.76 81.79,36.29 L72.58,38.72 L83.52,51.72 C86.99,55.85 92.38,51.99 92.92,47.83 C94.41,36.51 86.38,26.16 78.26,19.2 C74.1436662,15.6300615 69.565983,12.629846 64.65,10.28 C62.49,9.28 59.9,8.1 57.45,8.77 C55,9.44 53.13,11.77 50.55,12.55 C45.67,14.11 40.45,14.01 35.55,15.71 C30.5854062,17.4546836 26.0145185,20.1632319 22.1,23.68 C14.37,30.57 8.1,42.84 7.67,53.22 C7.42,58.77 15.27,60.59 17.93,56 L22.93,47.42 L12.85,43.18 C10.7888114,48.5144001 9.79994234,54.2029459 9.94,59.92 C10.02,64.36 16.12,67.6 19.34,63.81 L25,57.18 L15.59,53.28 C15.5037779,60.3159086 16.0594125,67.3450201 17.25,74.28 C18.32,80.68 27.74,78.7 28.07,72.82 C28.6,63.1 29.24,52.24 36.62,45.05 C40.96,40.81 35.05,32.55 29.94,36.4 C19.37,44.4 17.07,58.4 22.35,70.21 C25.0564679,76.1849838 29.3529103,81.3012787 34.77,85 C38.48,87.56 47.77,88.6 45.5,94.66 C43.02,101.31 53.66,104.18 56.13,97.59 L56.13,97.56 Z" id="Path" fill="#FFFFFF"></path>
                <path d="M21.44,73.16 C19.56,69.54 17.55,65.92 18.66,61.75 L8,61.75 C9.89,67.16 11.36,73.22 14.44,78.09 C15.8945698,80.2840627 17.548228,82.3394192 19.38,84.23 C20.2726697,85.2226719 21.2173281,86.1673303 22.21,87.06 C22.8,87.57 25.35,90.32 23.87,88.14 L23.32,83.9 C22.44,88.78 14.55,89.96 10.69,90.85 L15,100.92 C18.9745729,99.2999112 21.596431,95.4616054 21.66,91.17 C21.66,89.11 20.72,87.29 20.43,85.28 C20,82.21 20.11,78.97 19.96,75.88 C19.6,68.82 8.58,68.78 8.96,75.88 C9.13,79.27 9.2,82.7 9.5,86.08 C9.69,88.31 11.25,90.63 9.5,91.41 C3.57,93.99 7.92,102.83 13.74,101.48 C21.22,99.74 35.55,94.94 34.16,84.63 C33.59,80.42 28.16,77.73 25.65,74.63 C21.98,70.14 20.65,64.2 18.74,58.81 C17.01,53.89 9.58,53.28 8.12,58.81 C6.2,66.03 8.7,72.35 12.01,78.71 C15.32,85.07 24.79,79.43 21.52,73.15 L21.44,73.16 Z" id="Path" fill="#FFFFFF"></path>
                <path d="M12.77,84.69 C12.8399089,85.3849129 12.8399089,86.0850871 12.77,86.78 L12.96,85.31 C12.9127901,85.6771695 12.8186893,86.036769 12.68,86.38 L13.23,85.06 C13.1358955,85.2545451 13.0219582,85.4388554 12.89,85.61 L13.75,84.49 C13.6569105,84.6030931 13.5530931,84.7069105 13.44,84.8 C11.3061548,86.9582878 11.3061548,90.4317122 13.44,92.59 C15.6196203,94.6712787 19.0503797,94.6712787 21.23,92.59 C23.43,90.59 24.04,87.49 23.73,84.69 C23.6831916,83.2379548 23.111128,81.8522106 22.12,80.79 C19.966202,78.6452554 16.483798,78.6452554 14.33,80.79 C13.2807326,81.8138789 12.6985598,83.2241111 12.72,84.69 L12.77,84.69 Z" id="Path" fill="#FFFFFF"></path>
                <path d="M42.87,81.78 C46.5095423,85.5029228 50.5318174,88.8313555 54.87,91.71 C58.7,94.28 64.62,89.97 62.96,85.49 C62.03,83.01 61.59,78.64 58.25,78.89 L54.36,77.28 C55.28,78.23 54.07,80.67 53.64,81.41 L63.71,85.66 C63.7671237,84.7631515 63.9909475,83.8848126 64.37,83.07 C65.1366667,81.63 64.6533333,81.7 62.92,83.28 L59.03,81.67 L59.03,80.99 L61.56,77.7 L60.56,78.34 L68.85,83.1 C68.32,78.17 68.17,69.1 72.13,65.24 C73.35,64.05 71.72,64.58 73.13,65.3 C74.28,65.89 75.21,66.89 76.38,67.49 C79.0645506,68.9386748 82.2381637,69.1786043 85.11,68.15 L78.11,62.83 C77.94,65.27 72.46,68.63 70.21,68.58 L74.97,71.31 C75.44,72.19 75.12,69.88 75.83,69.31 L72,70.9 C69.8133333,68.86 69.0466667,68.5866667 69.7,70.08 C69.9411297,70.7245463 70.1023321,71.3962229 70.18,72.08 C70.3258274,73.485112 70.2139953,74.9050411 69.85,76.27 C69.33,78.37 67.85,82.27 65.53,83.03 L72.53,88.34 L70,89.9 L66.1,88.29 C65.73,87.29 65.72,87.22 66.1,88.15 C66.2375978,88.5162996 66.397909,88.87366 66.58,89.22 C67.1289761,90.1681358 67.8759534,90.986741 68.77,91.62 C70.7840448,92.7332303 73.1904335,92.8872979 75.33,92.04 C79.86,90.28 80.42,84.95 84.55,83.31 C88.68,81.67 93.21,80.24 95.22,75.82 C97.4999325,71.048224 98.4960419,65.7643635 98.11,60.49 L87.32,62 C88.97,69.17 89.89,79 87.98,86.18 L90.51,82.88 C90.51,82.24 90.68,82.5 91,83.67 L82.71,88.42 L81.86,85.94 L84.39,82.65 C84.0132447,82.3203442 83.5747597,82.0688102 83.1,81.91 L77.54,91.42 C80.67,93.11 83.44,95.42 86.75,96.79 C87.63,97.15 94.96,98.1 94.26,97.43 L98.16,88.03 L96.74,87.66 C90.83,83.66 85.31,93.25 91.18,97.17 C93.2137492,98.6122519 95.6979478,99.2758878 98.18,99.04 C102.7,98.73 105.75,93.12 102.07,89.64 C98.95,86.64 96.85,87.28 93.02,87.03 C89.19,86.78 86.28,83.61 83.12,81.91 C76.89,78.54 71.36,87.91 77.56,91.42 C81.56,93.67 87.5,95.25 91.08,91.3 C94.9,87.09 92.48,81.59 88.29,78.91 C84.4,76.43 80.48,79.81 80,83.67 C79,91.93 92.5,97.67 97.63,90.98 C100.38,87.42 99.63,80.49 99.63,76.24 C99.8006682,70.448072 99.2531656,64.657308 98,59 C96.62,53 86.69,54.2 87.18,60.46 C87.4379196,63.526009 86.9685277,66.6096058 85.81,69.46 C85.5223849,70.1343997 85.2980865,70.8340767 85.14,71.55 C84.92,72.37 85.03,72.19 85.48,71.01 C84.2726503,71.6843948 83.0076568,72.2499607 81.7,72.7 C79.44,73.57 77.14,74.27 75.29,75.91 C74.37756,76.7088822 73.5770135,77.6271562 72.91,78.64 C71.79,80.34 70.61,81.06 73.09,81.56 L76.39,84.09 C72,75.36 61.5,79 61.48,88.32 C61.48,91.71 65.04,94.82 68.48,93.63 C79,90 83.73,75.8 79.83,65.82 C77.92,60.92 72.83,57.62 68.11,61.5 C63.99,64.89 63.11,72.32 65.53,76.87 C66.5181555,78.5569652 68.3249344,79.5953876 70.28,79.6 C79.14,79.8 88.57,71.52 89.2,62.83 C89.44,59.42 85.46,56.37 82.2,57.52 C80.71,58.05 77.92,55.19 76.64,54.61 C74.8361369,53.7251395 72.8157641,53.3779964 70.82,53.61 C67.26,54.05 64.82,56.24 62.95,59.17 C58.5,66.1 56.95,75.03 57.84,83.12 C58.25,86.98 62.3,90.37 66.13,87.88 C71.29,84.52 71.55,76.28 65.72,73.04 C58.9,69.24 54.14,77.18 53.11,82.75 C52.01,88.64 59.85,92.67 63.17,86.99 C66.33,81.6 67.17,67.17 57.49,67.99 C53.78,68.29 50.77,71.33 49.78,74.83 C48.45,79.51 50.78,84.19 52.35,88.47 L60.45,82.25 C56.8969554,79.8702134 53.6053445,77.1216177 50.63,74.05 C45.63,68.97 37.88,76.76 42.84,81.83 L42.87,81.78 Z" id="Path" fill="#FFFFFF"></path>
                <path d="M94.5,41.73 C94.15,36.8 89.98,32.55 86.57,29.26 C84.4042858,27.197415 80.98862,27.2390633 78.8738416,29.3538416 C76.7590633,31.46862 76.717415,34.8842858 78.78,37.05 C79.8937486,38.1120052 80.9454858,39.237197 81.93,40.42 C82.2398712,40.7521708 82.5208869,41.1101313 82.77,41.49 C83.01,41.82 83.25,42.16 83.47,42.49 C83.94,43.34 83.95,43.08 83.47,41.72 C83.67,44.58 85.86,47.36 88.98,47.22 C91.79,47.1 94.7,44.79 94.49,41.72 L94.5,41.73 Z" id="Path" fill="#FFFFFF"></path>
                <path d="M102.34,98.07 C103.268744,97.9243734 104.21719,97.9651668 105.13,98.19 L103.49,96.93 L103.62,97.15 L103.62,94.37 C104.05,93.73 102.75,94.32 102.34,94.37 C101.6,94.48 100.82,94.54 100.07,94.59 C98.5830101,94.7794207 97.0731956,94.5254658 95.73,93.86 C92.63,92.13 89.85,96.86 92.95,98.62 C95.4915879,99.93152 98.3801113,100.414106 101.21,100 C103.8,99.75 106.81,99.5 108.38,97.13 C108.889317,96.2733165 108.889317,95.2066835 108.38,94.35 C107.14,92.35 104.45,92.35 102.38,92.54 C98.86,92.78 98.83,98.29 102.38,98.05 L102.34,98.07 Z" id="Path" fill="#FFFFFF"></path>
                <path d="M9.67,96.24 C9.04810936,96.2999759 8.42189064,96.2999759 7.8,96.24 C7.5,96.24 6.95,96.06 6.8,96.06 C7.12,96.06 6.93,96.56 6.99,96 C6.99,96.32 6.99,95.75 6.99,95.64 C6.99,95.53 7.14,94.94 6.99,95.43 L6.28,96.65 C5.951269,96.9982586 5.47434342,97.1659278 5,97.1 C4.75,97.1 4.83,97.1 5.25,97.17 C5.67,97.24 5.88,97.33 6.19,97.41 C6.85666667,97.59 7.52333333,97.79 8.19,98.01 C9.13854016,98.270804 10.1541647,98.0057566 10.8542976,97.3146986 C11.5544305,96.6236407 11.8327049,95.6115604 11.5842976,94.6596985 C11.3358903,93.7078367 10.5985402,92.9608038 9.65,92.7 C8.11798047,92.0747057 6.49228134,91.7096838 4.84,91.62 C2.41,91.7 1.37,93.78 1.45,95.96 C1.3624623,97.8551427 2.26315576,99.6603141 3.83,100.73 C5.61257754,101.614311 7.61366672,101.961722 9.59,101.73 C11.1168401,101.736192 12.3712832,100.526075 12.42,99 C12.4091817,97.4840871 11.1858636,96.2563206 9.67,96.24 Z" id="Path" fill="#FFFFFF"></path>
                <path d="M17.65,179.1 C21.2,179.1 21.2,173.59 17.65,173.59 C14.1,173.59 14.1,179.1 17.65,179.1 Z" id="Path" fill="#FFFFFF"></path>
                <path d="M95.68,176.9 C95.68,176.32 95.68,175.74 95.68,175.17 L95.31,176.56 L95.41,176.35 L93.77,177.61 L94.11,177.52 L91.99,177.25 C92.43,177.45 92.68,178.34 92.99,178.76 C93.5049776,179.584707 94.1861139,180.293089 94.99,180.84 L97.11,175.84 C94.2281524,175.317673 91.3745188,174.650157 88.56,173.84 C85.14,172.84 83.69,178.17 87.09,179.15 C89.907588,179.961331 92.7646105,180.628859 95.65,181.15 C96.9420597,181.414892 98.2416952,180.732031 98.7565551,179.517739 C99.2714149,178.303447 98.858687,176.894545 97.77,176.15 C98.08,176.38 97.52,175.59 97.45,175.47 C97.23,175.08 97.04,174.69 96.79,174.32 C96.12918,173.229858 95.040481,172.467769 93.79,172.22 C92.5310874,172.038922 91.2872814,172.635159 90.64,173.73 C90.2107978,174.74896 90.0656571,175.865161 90.22,176.96 C90.22,180.5 95.77,180.51 95.72,176.96 L95.68,176.9 Z" id="Path" fill="#FFFFFF"></path>
                <path d="M73.91,236.29 C75.15122,235.76526 76.2787498,235.004517 77.23,234.05 C78.23,233.05 78.45,232 80,232.16 L80.32,232.16 C80.9866667,232.44 81.0466667,232.31 80.5,231.77 C80.24,231.77 79.5,232.1 79.2,232.13 C77.8105267,232.198241 76.4218419,231.980409 75.12,231.49 C71.74,230.42 70.29,235.73 73.66,236.8 C76.57,237.73 80.31,238.24 83.09,236.64 C85.48,235.26 86.83,232.07 85.5,229.51 C84.17,226.95 81.25,226.45 78.72,226.62 C75.15,226.86 74.12,230.22 71.13,231.52 C67.89,232.92 70.69,237.67 73.91,236.27 L73.91,236.29 Z" id="Path" fill="#FFFFFF"></path>
                <path d="M36,226 C34.18,225.59 32.37,225.11 30.59,224.54 C29.2555132,223.967863 27.8434335,223.597149 26.4,223.44 C24.9944513,223.347395 23.6236945,223.902471 22.6785977,224.946949 C21.7335008,225.991428 21.3177885,227.410676 21.55,228.8 C22.67,234.92 32.11,234.62 35.68,231.07 C38.19,228.56 34.3,224.67 31.78,227.17 C31.1740523,227.721501 30.3791315,228.018701 29.56,228 C28.94,228 28.31,227.92 27.7,228 L27.08,227.86 C26.08,228.58 25.94,228.99 26.65,229.07 C27.36,229.71 29.36,229.97 30.28,230.24 C31.68,230.67 33.1,231.03 34.54,231.35 C37.99,232.14 39.46,226.83 36,226.04 L36,226 Z" id="Path" fill="#FFFFFF"></path>
                <path d="M7.23,53.52 C7.04368018,56.8616391 7.21127888,60.213613 7.73,63.52 C8.33,66.99 9.73,70.52 8.96,74.04 C7.48,81 18.09,84 19.58,77 C21.27,69.13 17.94,61.46 18.25,53.51 C18.53,46.43 7.51,46.44 7.25,53.51 L7.23,53.52 Z" id="Path" fill="#FFFFFF"></path>
                <path d="M41.42,65.79 C42.2569585,65.9607288 43.0837586,65.4563722 43.3149518,64.6340599 C43.546145,63.8117477 43.1033041,62.9504313 42.3,62.66 C41.4630415,62.4892712 40.6362414,62.9936278 40.4050482,63.8159401 C40.173855,64.6382523 40.6166959,65.4995687 41.42,65.79" id="Path" fill="#231F20"></path>
                <path d="M57.63,64.75 C58.4626807,64.9081413 59.2776129,64.4017488 59.5045929,63.5851424 C59.7315729,62.7685361 59.2948514,61.9142398 58.5,61.62 C57.6673193,61.4618587 56.8523871,61.9682512 56.6254071,62.7848576 C56.3984271,63.6014639 56.8351486,64.4557602 57.63,64.75" id="Path" fill="#231F20"></path>
                <path d="M25.7,41.08 C22.1151555,46.629759 19.3436812,52.6643663 17.47,59 C15.8156427,64.2699151 16.7740397,70.0128676 20.05,74.46 C23.64,79.54 28.81,83.34 33.78,86.96 C39.2,90.89 44.78,95.06 51.29,96.9 C56.9261052,98.3569026 62.8223582,98.493786 68.52,97.3 C73.730185,96.2723471 78.3134839,93.2048132 81.25,88.78 C88.03,79.31 94.35,67.08 90.19,55.23 C88.81,51.23 85.12,44.56 79.93,45.68 C78.9187655,45.8918882 78.0153123,46.4552178 77.38,47.27 C76.21,48.77 76.38,50.35 74.63,47.91 C72.29,44.65 70.06,41.3 67.77,38 C67.4845045,37.4888788 66.9454486,37.1715622 66.36,37.17 C62.1,37.68 59.78,40.7 57.36,43.93 C53.36,49.18 48.04,51.86 42.06,54.27 C32.65,58.06 20.89,63.45 21.31,75.45 C21.38,77.53 24.64,77.56 24.56,75.45 C24.15,63.61 37.56,59.75 46.29,56.01 C50.3463609,54.4484919 54.0615576,52.115457 57.23,49.14 C59.95,46.38 62.12,40.92 66.37,40.42 L64.95,39.59 C66.5566667,41.9033333 68.16,44.2166667 69.76,46.53 C71.04,48.38 72.27,50.93 74.14,52.27 C75.1615227,53.129783 76.5882902,53.3207983 77.8,52.76 C79.93,51.64 80.09,47.38 83.15,49.86 C87.05,53.02 88.35,59.08 88.26,63.86 C88.14,69.68 85.84,75.19 82.98,80.16 C80.4,84.64 77.43,90.09 72.69,92.53 C68.23,94.83 62.69,95.01 57.76,94.7 C51.43,94.3 46.04,91.54 40.87,88.03 C35.9665599,84.841967 31.3281935,81.2637031 27,77.33 C22.08,72.68 18.69,67.33 20.49,60.33 C22.2420127,54.0828827 24.9399201,48.1407417 28.49,42.71 C29.61,40.94 26.82,39.26 25.7,41.03" id="Path" fill="#231F20"></path>
                <path d="M32.62,89.91 C29.5245256,94.767173 24.7047465,98.2721421 19.13,99.72 C16.3356051,100.570522 13.4189279,100.949048 10.5,100.84 C8.49453051,100.866551 6.54500182,100.178899 5,98.9 C3.46,97.43 2.6,94.06 5.36,93.12 C7.26,92.47 9.19,93.44 10.36,91.24 C11.36,89.36 10.97,86.41 10.99,84.38 C11.04,78.23 10.89,72.28 9.26,66.38 C7.57,60.24 9.92,53.11 11.06,46.97 C12.27,40.52 14.18,34.87 18.47,29.79 C26.36,20.46 37.47,10.61 50.64,12.16 C51.3510033,12.2957787 52.0718022,11.9771936 52.45,11.36 C53.63,9.5 53.84,6.78 55.24,5.15 C57.8,2 60.46,6 62.3,7.83 C65.5956848,10.9708293 69.1779575,13.7964725 73,16.27 C81.76,22.27 89,28.56 93.06,38.71 C97.12,48.86 97.76,59.54 98.3,70.18 C98.57,75.35 98.53,80.69 99.4,85.8 C99.94,89.01 101.31,91.95 104.58,93.05 C105.58,93.38 106.79,93.29 107.7,93.71 C110.28,94.9 108.63,96.71 106.58,97.61 C103.840483,98.719314 100.858172,99.0916719 97.93,98.69 C91.93,97.97 86.69,94.61 82.12,90.78 C80.52,89.44 78.28,91.78 79.89,93.16 C87.51,99.54 100.55,106.4 110.04,99.38 C112.98,97.21 113.96,92.83 110.04,91.06 C107.47,89.88 104.61,90.61 103.17,87.61 C101.73,84.61 102.1,80.61 101.92,77.54 C101.14,64.54 101.14,51.14 96.52,38.75 C94.6243532,33.4485761 91.7551524,28.5478726 88.06,24.3 C84.18,19.94 79.29,16.69 74.52,13.41 C71.3854878,11.3445937 68.4043853,9.05529411 65.6,6.56 C63.69,4.78 62.05,2.3 59.67,1.1 C57.7649019,0.051700766 55.4107289,0.286322737 53.75,1.69 C51.3,3.75 51.12,7.19 49.48,9.75 L51.29,8.94 C40,7.59 30.09,13.48 22.13,21.12 C18.13,24.95 14.04,29.12 11.49,34.12 C8.86,39.27 8.03,45.12 7.04,50.72 C6.05,56.32 4.49,61.72 6.1,67.29 C7.9,73.58 7.88,80.29 7.64,86.83 C7.69290589,87.6962269 7.64255192,88.5656722 7.49,89.42 C7.13,89.91 6.02,89.71 5.63,89.78 C4.85952198,89.8801259 4.11003965,90.102945 3.41,90.44 C1.70318556,91.4183495 0.552429742,93.138933 0.3,95.09 C-0.25,99.09 3.15,102.43 6.74,103.52 C11.93,105.09 18.44,103.74 23.32,101.69 C28.3664646,99.6738605 32.6300149,96.0870085 35.48,91.46 C36.57,89.67 33.7,88.12 32.62,89.91" id="Path" fill="#231F20"></path>
                <path d="M51.83,96.77 C50.04,100.31 53.45,103.3 56.45,104.55 C60.33,106.17 62.68,102.43 62.96,99.05 C63.13,96.97 59.96,96.41 59.75,98.51 C59.62,100.07 59.31,102.29 57.26,101.33 C56.16,100.8 54.04,99.62 54.78,98.14 C55.72,96.27 52.78,94.9 51.78,96.77" id="Path" fill="#231F20"></path>
                <path d="M54.56,99.61 C55.1,105.76 52.79,111.56 50.63,117.2 C48.7044731,122.284616 46.2227327,127.140779 43.23,131.68 C40.4,136 38.9,140.53 37,145.29 C34.9,150.58 32.18,155.58 29.57,160.62 C27.38,164.85 24.57,169.4 23.44,174.03 C22.5,177.72 25.57,179.39 28.72,180.08 C33.72,181.18 38.72,179.75 43.72,179.26 C49.48,178.69 55.34,179.41 61.1,179.86 L100.89,182.92 C101.781496,182.960734 102.545665,182.289325 102.62,181.4 C102.9,174.89 97.1,170.67 93.92,165.63 C89.92,159.36 87.48,152.22 84.77,145.36 L76,123.15 C72.93,115.37 69.79,107.63 68.28,99.37 C67.9,97.31 64.71,97.97 65.09,100.03 C66.43,107.33 69.02,114.26 71.72,121.14 C74.6266667,128.54 77.5433333,135.93 80.47,143.31 C83.11,149.99 85.47,156.85 88.81,163.24 C90.305023,166.159811 92.087153,168.923452 94.13,171.49 C96.43,174.37 99.54,177.2 99.37,181.19 L101.1,179.67 L68.25,177.14 C62.85,176.72 57.43,176.21 52.01,175.93 C47.118497,175.770925 42.222975,176.078988 37.39,176.85 C34.9510739,177.29115 32.4592168,177.358589 30,177.05 C28.19,176.73 26.46,176.4 26.8,174.21 C27.1725615,172.900457 27.6960743,171.638657 28.36,170.45 C30.5,165.6 33.07,160.95 35.48,156.24 C37.6859069,152.020505 39.6133576,147.661193 41.25,143.19 C43.04,138.19 45.73,134.11 48.47,129.59 C51.1206981,124.932054 53.307848,120.025202 55,114.94 C56.91,109.73 58.28,104.53 57.79,98.94 C57.61,96.86 54.42,97.53 54.6,99.6" id="Path" fill="#231F20"></path>
                <path d="M40.74,226.63 C35.65,221.06 19.74,217.91 20.86,229.55 C21.29,233.86 24.86,235.55 28.86,235.42 C33.8276851,235.171348 38.472906,232.884916 41.7,229.1 C42.91,227.71 40.89,225.67 39.7,227.1 C36.85,230.34 27.53,236.1 24.51,230.53 C23.26,228.23 23.36,224.99 27.26,224.53 C28.6076123,224.482007 29.9550423,224.630224 31.26,224.97 C34.0995632,225.327815 36.7334066,226.639448 38.73,228.69 C39.98,230.06 42.01,228.02 40.73,226.69 L40.74,226.63 Z" id="Path" fill="#231F20"></path>
                <path d="M72.35,232.57 C74.1,230.48 76.2,228.52 78.96,227.94 C82.5,227.19 86.96,229.59 85.48,233.7 C84.39,236.7 80.77,237.15 77.85,236.98 C76.4868139,236.900824 75.1409334,236.635012 73.85,236.19 C73.6,236.1 69.33,234.1 70.45,233.56 C71.99,232.81 70.64,230.51 69.11,231.26 C64.27,233.62 70.11,237.63 72.62,238.55 C77.12,240.22 84.45,240.55 87.55,236.1 C90.05,232.49 87.94,227.57 84.16,225.89 C78.98,223.58 73.77,226.77 70.49,230.69 C69.4,232 71.28,233.89 72.37,232.57 L72.35,232.57 Z" id="Path" fill="#231F20"></path>
                <path d="M58,76.5 C53.4054966,76.7255578 49.0384557,78.5672945 45.67,81.7 C44.31,82.95 46.35,84.98 47.67,83.7 C50.4942569,81.0839339 54.1541998,79.5533479 58,79.38 C59.84,79.28 59.85,76.38 58,76.5 Z" id="Path" fill="#231F20"></path>
                <path d="M21.35,117.21 C30.29,116.04 39.21,114.72 48,112.69 C56.58,110.69 64.29,107.15 73.08,110.06 C81.87,112.97 85.46,99.27 76.85,96.42 C67.41,93.3 59.13,95.17 49.85,97.65 C40.47222,100.07664 30.9449917,101.883874 21.33,103.06 C17.52,103.56 14.33,105.96 14.26,110.14 C14.26,113.58 17.55,117.71 21.33,117.21 L21.35,117.21 Z" id="Path" fill="#FFFFFF"></path>
                <path d="M14.26,115.68 C16.6,125.13 17.15,135.16 20.11,144.39 C21.55,148.88 21.9,153.31 22.37,157.98 C22.6,160.28 22.86,162.59 23.29,164.86 C23.79,167.52 25.42,170.41 25.5,173.08 C25.61,176.64 28.67,180.52 32.58,180.16 C43.43,179.16 53.71,183.62 64.47,182.54 C73.47,181.65 73.54,167.54 64.47,168.39 C53.77,169.46 43.47,165.01 32.58,166.01 L39.65,173.08 C39.5,167.89 37.07,163.17 36.52,157.98 C35.95,152.64 35.75,147.23 34.21,142.04 C31.28,132.21 30.38,121.91 27.9,111.92 C25.72,103.08 12.07,106.82 14.26,115.68 Z" id="Path" fill="#FFFFFF"></path>
                <path d="M71.57,175.45 L68.86,144.94 C68.42,140.02 67.95,135.1 67.61,130.18 C67.39,127.13 65.78,120.08 67.33,117.47 C70.77,111.71 65.13,106.14 59.33,107.08 C53.7042497,107.984806 48.0255878,108.522609 42.33,108.69 C37.33,108.84 32.7,108.17 28.79,111.82 C22.13,118.06 32.15,128.04 38.79,121.82 C35.9566667,122.813333 35.8633333,123.173333 38.51,122.9 L42.32,122.84 C44.53,122.77 46.75,122.65 48.96,122.48 C53.7,122.11 58.42,121.48 63.11,120.72 L55.11,110.33 C52.46,114.77 52.87,119.71 53.11,124.69 C53.37,130.18 53.86,135.69 54.35,141.13 C55.3566667,152.57 56.3566667,164.01 57.35,175.45 C58.15,184.45 72.35,184.53 71.5,175.45 L71.57,175.45 Z" id="Path" fill="#FFFFFF"></path>
                <path d="M26.4,117 C27.8,128.29 29.55,139.52 31.84,150.66 C32.78,155.28 33.19,161.29 35.94,165.22 C38.94,169.48 44.57,169.87 49.27,170.94 C58.14,172.94 61.92,159.32 53.04,157.29 C51.43,156.93 48.51,155.63 46.89,155.9 C45.3,155.38 45.6,155.9 47.77,157.38 C47.55,156.43 47.33,155.48 47.12,154.53 C46.1866667,150.403333 45.3233333,146.263333 44.53,142.11 C42.93,133.79 41.5966667,125.42 40.53,117 C40.05,113.18 37.62,110 33.46,109.93 C30,109.93 25.91,113.21 26.38,117 L26.4,117 Z" id="Path" fill="#FFFFFF"></path>
                <path d="M58.23,163 L56.82,144.32 C56.35,138.13 55.2,131.49 56.28,125.32 C57.03,121 54.42,116.2 49.46,116.32 C46.9671638,116.417463 44.4892921,116.752311 42.06,117.32 C33.18,119.32 36.94,132.96 45.82,130.96 C46.9960824,130.590861 48.229429,130.438387 49.46,130.51 L42.63,121.51 C40.3,134.91 43.07,149.51 44.08,162.95 C44.76,171.95 58.91,172.04 58.23,162.95 L58.23,163 Z" id="Path" fill="#FFFFFF"></path>
                <path d="M67.12,118.6 C72.06,118.04 76.2,116.43 79.63,112.73 L67.56,107.73 C67.46,113.67 67.01,119.73 67.36,125.66 C67.5,128.1 68.17,130.51 68.13,132.95 C68.06,136.4 67.18,140.06 66.68,143.46 C66.12,147.27 67.63,151.02 71.62,152.17 C74.94,153.17 79.77,151 80.32,147.23 C81.32,140.38 82.47,134.08 81.67,127.23 C80.94,120.87 81.6,114.17 81.67,107.77 C81.76,101.77 73.78,98.26 69.59,102.77 C68.82,103.6 68.27,104.36 67.08,104.49 C63.25,104.93 60.08,107.43 60.01,111.57 C60.01,115.06 63.29,119.07 67.08,118.64 L67.12,118.6 Z" id="Path" fill="#FFFFFF"></path>
                <path d="M78.42,136.51 C77.54,130.6 76.84,124.68 76.25,118.73 C75.88,114.93 73.25,111.65 69.18,111.65 C65.64,111.65 61.73,114.9 62.11,118.73 C62.81,125.93 63.72,133.11 64.78,140.27 C65.35,144.05 70.12,146.14 73.48,145.21 C77.48,144.1 78.99,140.31 78.42,136.51 Z" id="Path" fill="#FFFFFF"></path>
                <path d="M68.05,149.62 C68.0471113,152.474918 68.4614905,155.314931 69.28,158.05 C70,160.28 71.28,162.28 71.64,164.6 L71.64,160.84 L71.44,161.93 L73.26,158.81 C73.02,159.01 71.52,160.11 71.53,160.11 L78.41,161.93 L78.14,161.69 L79.96,164.81 C79.817914,163.815767 79.7344365,162.814037 79.71,161.81 L65.56,161.81 C65.9061613,163.760593 65.9735006,165.750467 65.76,167.72 L67.58,164.59 L66.98,165.34 C64.6,168.34 64.07,172.43 66.98,175.34 C69.45,177.81 74.59,178.34 76.98,175.34 C80.21,171.34 80.25,166.79 79.71,161.8 C79.3,158 76.71,154.73 72.63,154.73 C69.08,154.73 65.21,157.97 65.56,161.8 C65.88,165.34 65.63,169.31 68.41,171.95 C72.26,175.61 76.69,173.53 80.41,171.03 C84.13,168.53 86.24,165.03 85.19,160.27 C84.36,156.51 82.26,153.64 82.19,149.64 C82.03,140.55 67.89,140.52 68.04,149.64 L68.05,149.62 Z" id="Path" fill="#FFFFFF"></path>
                <path d="M25.36,177.27 C25.2713385,178.675852 26.0365235,179.997177 27.3,180.62 C28.738389,181.210668 30.351611,181.210668 31.79,180.62 C32.6887741,180.336277 33.2165096,179.407288 33,178.49 C32.7195369,177.562049 31.7609393,177.016791 30.82,177.25 L27.57,177.71 C26.6333929,177.972488 26.0840959,178.941573 26.34,179.88 C26.6160779,180.806546 27.5715827,181.352548 28.51,181.12 L31.76,180.66 L30.82,177.25 C30.2583525,177.463237 29.6605739,177.565131 29.06,177.55 C28.77,177.55 28.84,177.45 28.86,177.27 C28.99,176.33 27.96,175.51 27.1,175.51 C26.1329834,175.525883 25.3513617,176.303089 25.33,177.27 L25.36,177.27 Z" id="Path" fill="#FFFFFF"></path>
                <path d="M82.44,168.16 C82.7843912,169.003854 83.5411301,169.609245 84.44,169.76 L84.02,166.53 C78.58,170.47 73.32,174.98 66.94,177.33 C64.82,178.11 65.74,181.53 67.88,180.74 C74.6,178.27 80.07,173.74 85.81,169.58 C86.4047182,169.207646 86.7270396,168.522153 86.6344457,167.826622 C86.5418517,167.13109 86.0514195,166.553797 85.38,166.35 L85.46,166.35 C84.46,164.35 81.35,166.11 82.46,168.13 L82.44,168.16 Z" id="Path" fill="#FFFFFF"></path>
                <path d="M81.44,107.4 C82.3018967,105.810319 82.7166115,104.016677 82.64,102.21 C82.52,99.94 78.99,99.93 79.1,102.21 C79.1815702,103.390341 78.9358888,104.570303 78.39,105.62 C77.33,107.62 80.39,109.42 81.39,107.4 L81.44,107.4 Z" id="Path" fill="#FFFFFF"></path>
                <path d="M63.94,100.4 C70.38,99.24 77.04,100.6 83.46,101.34 C84.61,101.48 84.6,99.66 83.46,99.53 C76.85,98.76 70.09,97.45 63.46,98.65 C62.32,98.86 62.8,100.65 63.94,100.4 Z" id="Path" fill="#231F20"></path>
                <path d="M62.53,101 C64.45,111.18 62.23,121.57 62.7,131.84 C63.17,142.27 64.26,152.71 65.07,163.12 C65.22,164.95 68.07,164.97 67.94,163.12 C67.08,152.07 65.81,140.97 65.49,129.89 C65.2,119.96 67.15,110.09 65.3,100.24 C64.96,98.42 62.19,99.24 62.53,101 Z" id="Path" fill="#231F20"></path>
                <path d="M66.18,171.05 L67.37,181.6 C67.57,183.41 70.45,183.43 70.24,181.6 L69.06,171.05 C68.85,169.24 65.98,169.22 66.18,171.05 Z" id="Path" fill="#231F20"></path>
                <path d="M31.2,182.65 C39.7472253,182.432994 48.2997331,182.736891 56.81,183.56 C60.75,183.94 68.7,186.91 70,181.35 C70.42,179.56 67.65,178.79 67.23,180.59 C66.72,182.77 51.23,180.2 48.94,180.06 C43.03,179.71 37.12,179.65 31.2,179.78 C29.36,179.78 29.35,182.7 31.2,182.65 Z" id="Path" fill="#231F20"></path>
                <path d="M71.15,181.31 C76.31,176.37 83.51,174.47 88.76,169.62 C90.12,168.36 88.08,166.33 86.76,167.62 C81.52,172.47 74.33,174.36 69.15,179.32 C67.81,180.6 69.85,182.63 71.15,181.32 L71.15,181.31 Z" id="Path" fill="#231F20"></path>
                <path d="M71.83,178.44 C72.8882769,175.946456 74.306719,173.621694 76.04,171.54 C77.22,170.13 75.2,168.09 74.04,169.54 C72.131013,171.793329 70.5611333,174.313222 69.38,177.02 C68.65,178.69 71.12,180.16 71.86,178.47 L71.83,178.44 Z" id="Path" fill="#231F20"></path>
                <path d="M88.24,165.89 C84.5996402,165.352256 80.9164431,165.1614 77.24,165.32 C75.4,165.4 75.39,168.32 77.24,168.19 C80.6704932,168.02133 84.1092522,168.178703 87.51,168.66 C89.31,168.93 90.09,166.16 88.27,165.89 L88.24,165.89 Z" id="Path" fill="#231F20"></path>
                <path d="M78.73,166.85 C78.0633333,160.53 77.1066667,154.256667 75.86,148.03 C75.49,146.22 72.72,147.03 73.09,148.8 C74.31,154.8 75.2333333,160.8 75.86,166.8 C76.04,168.62 78.92,168.64 78.73,166.8 L78.73,166.85 Z" id="Path" fill="#231F20"></path>
                <path d="M75.76,124.77 C75.94,117.51 75.01,110.22 76.13,103.01 C76.41,101.2 73.64,100.42 73.36,102.24 C72.2,109.74 73.07,117.24 72.89,124.77 C72.89,126.62 75.72,126.62 75.76,124.77 Z" id="Path" fill="#231F20"></path>
                <path d="M82.22,100.42 C80.59,107.67 80.56,114.63 81.02,122.01 C81.49,129.68 79.64,137.24 80.36,144.89 C80.54,146.71 83.36,146.73 83.24,144.89 C82.57,137.8 84.24,130.83 83.98,123.74 C83.66,116 83.27,108.85 84.98,101.18 C85.39,99.38 82.62,98.61 82.21,100.42 L82.22,100.42 Z" id="Path" fill="#231F20"></path>
                <path d="M80.22,145.32 C81.82,152.65 82.22,160.61 85.01,167.61 C85.68,169.31 88.46,168.61 87.77,166.85 C84.98,159.85 84.59,151.85 82.99,144.55 C82.6,142.75 79.83,143.55 80.22,145.32 Z" id="Path" fill="#231F20"></path>
                <path d="M31,179.78 L28.64,180.08 C28.12,180.14 27.38,180.38 26.95,180.08 C26.6184802,179.877048 26.2189924,179.816742 25.8423363,179.912789 C25.4656802,180.008837 25.1438519,180.253078 24.95,180.59 C24.5504009,181.284783 24.7764909,182.17141 25.46,182.59 C26.94,183.65 29.32,182.89 30.96,182.69 C31.744309,182.664094 32.3740943,182.034309 32.4,181.25 C32.4113565,180.460571 31.7890435,179.807143 31,179.78 Z" id="Path" fill="#231F20"></path>
                <path d="M11.87,111 C13.9233333,122.413333 16.0633333,133.813333 18.29,145.2 C20.63,157.15 23.29,169.05 23.87,181.2 C23.96,183.04 26.87,183.05 26.74,181.2 C26.18,169.39 23.74,157.86 21.43,146.3 C19.07,134.3 16.8033333,122.263333 14.63,110.19 C14.31,108.38 11.54,109.19 11.87,110.96 L11.87,111 Z" id="Path" fill="#231F20"></path>
                <path d="M17.2,109.09 L16.7,109.21 C17.3672561,109.235324 18.0354619,109.215278 18.7,109.15 C19.7319816,108.837174 20.6140037,108.157875 21.18,107.24 C21.32,107.02 21.73,106.4 21.75,106.32 C21.39,107.6 18.83,104.56 19.43,105.85 C19.6634707,106.243527 19.9276235,106.618022 20.22,106.97 C21.2372516,108.615296 23.3659843,109.173868 25.06,108.24 C26.7277253,107.239454 27.2916104,105.090475 26.33,103.4 C24.81,101.24 23.33,99.03 20.33,99.53 C19.0640321,99.7492594 17.8855807,100.321155 16.93,101.18 C16.487881,101.578335 16.0950815,102.028207 15.76,102.52 C15.66,102.67 14.96,103.66 15.41,103.19 L16.97,102.28 L16.69,102.39 L18.57,102.39 C16.900051,102.036153 15.1599948,102.243553 13.62,102.98 C12.4852257,103.596088 11.7759124,104.781166 11.769097,106.072379 C11.7622815,107.363591 12.4590451,108.556092 13.5872526,109.184124 C14.71546,109.812156 16.0961247,109.776086 17.19,109.09 L17.2,109.09 Z" id="Path" fill="#00A14B"></path>
                <path d="M25.36,108.14 C26.517237,107.361826 27.4321126,106.273678 28,105 C28.5,104 27.9,105.22 27.73,105 C27.73,105 29.6,104.61 28.91,104.7 L25.91,102.95 L26.12,103.28 C26.07,103.09 26.12,103.11 26.12,103.34 C26.53,104.34 25.66,103.86 26.51,102.34 L27.78,101.07 L27.56,101.2 C26.4703399,101.837719 25.8036715,103.008323 25.8111224,104.270855 C25.8185733,105.533388 26.4990115,106.696042 27.5961224,107.320855 C28.6932334,107.945669 30.0403399,107.937719 31.13,107.3 C34.13,105.67 33.5,101.78 31.99,99.3 C31.3637623,98.2027021 30.1933792,97.5295406 28.93,97.54 C27.0830803,97.6207122 25.2927291,98.2013666 23.75,99.22 C23.0315727,99.760925 22.4295788,100.441144 21.98,101.22 C21.8128587,101.497612 21.6690323,101.78861 21.55,102.09 C21.37,102.6 21.5,102.19 21.82,101.98 C20.1702962,102.993987 19.6106887,105.126664 20.55,106.82 C21.5505458,108.487725 23.6995252,109.05161 25.39,108.09 L25.36,108.14 Z" id="Path" fill="#00A14B"></path>
                <path d="M30.86,105.92 C32.2522742,105.117935 33.4079349,103.962274 34.21,102.57 C34.55,102.01 34.83,101.42 35.21,100.86 C35.3474471,100.592085 35.5045433,100.334715 35.68,100.09 C35.84,99.87 36.25,99.83 35.82,100.01 L34.04,100.49 L34.46,100.49 L32.62,100 C33.68,100.5 32.11,99.8 32.57,98.27 L33.48,96.71 L33.78,96.55 L32.78,96.88 C32.15,97.08 31.5,97.24 30.85,97.39 C29.0396968,97.9675746 28.0083081,99.8713776 28.5132842,101.703259 C29.0182603,103.53514 30.8794507,104.641575 32.73,104.21 C34.9,103.72 37.73,103.07 38.99,101 C40.45,98.49 38.94,95.62 36.71,94.21 C34.02,92.51 31.42,93.8 29.71,96.13 C29.2098383,96.8752854 28.7492027,97.6463494 28.33,98.44 C27.84,99.31 27.74,99.5 27.22,99.78 C23.22,101.95 26.79,108.06 30.79,105.89 L30.86,105.92 Z" id="Path" fill="#00A14B"></path>
                <path d="M34.58,96.23 C32.05,91.23 22.73,93.61 21.97,98.83 C21.69,100.72 22.44,102.63 24.44,103.18 C26.1,103.64 28.51,102.61 28.79,100.71 C28.93,99.71 28.79,100.71 28.69,100.71 L28.57,100.83 C28.44,100.88 28.49,100.83 28.72,100.83 C28.9025535,100.802509 29.0829848,100.762413 29.26,100.71 C30.26,100.55 29.06,101.03 28.48,99.87 C29.4658283,101.554468 31.6305315,102.120828 33.315,101.135 C34.9994685,100.149172 35.5658283,97.9844685 34.58,96.3 L34.58,96.23 Z" id="Path" fill="#00A14B"></path>
                <path d="M36.12,106.73 C38.1813865,106.917984 40.1957971,106.039037 41.46,104.4 C42.28,103.4 43,98.8 43.87,98.4 L41.15,98.75 L42.08,99 L40,97.33 C40.16,96.4 39.87,96.41 39.14,97.33 C37.14,98.88 38.14,102.87 40.7,103.24 C41.9716858,103.527299 43.2949435,103.492928 44.55,103.14 C45.86,102.72 47.2,101.3 48.55,101.32 L45.55,95.99 L44.13,97.65 C41.65,100.1 44.13,104.58 47.58,103.56 L60.49,99.7 C64.84,98.4 62.99,91.57 58.61,92.88 L45.7,96.74 L49.14,102.65 C50.0921272,101.719418 50.9343045,100.682635 51.65,99.56 C53.19,97.28 51.15,94.26 48.6,94.24 C47.4341952,94.2109313 46.275448,94.4290484 45.2,94.88 C44.68,95.08 42.93,96.47 42.58,96.42 L44.14,102.33 C47.46,99.74 48.85,94.05 44,92.12 C42.2432016,91.4391247 40.2514965,91.8281296 38.88,93.12 C38.25,93.68 35.46,99.56 36.15,99.6 C31.6,99.38 31.61,106.45 36.15,106.67 L36.12,106.73 Z" id="Path" fill="#00A14B"></path>
                <path d="M49.92,100.08 C51.1314569,99.7240267 52.2530685,99.1137882 53.21,98.29 C53.5,98.04 54.27,97.56 54.38,97.29 C54.73,97.11 54.6,97.05 54.02,97.12 C53.34,96.96 53.3,97.06 53.89,97.43 C55.53,99.43 58.35,99.29 60.59,98.97 C62.48,98.69 63.52,96.29 63.06,94.61 C62.5,92.61 60.61,91.87 58.71,92.14 C58.1,92.23 58.71,92.21 58.54,92.14 C58.13,91.96 57.73,91.43 57.35,91.14 C56.3605469,90.4747302 55.1922268,90.1259779 54,90.14 C52.8272915,90.2036216 51.6922599,90.5762156 50.71,91.22 C49.88,91.74 48.98,92.99 48.04,93.22 C43.67,94.48 45.53,101.31 49.92,100.05 L49.92,100.08 Z" id="Path" fill="#00A14B"></path>
                <path d="M61.62,99.52 C64.93,99.75 67.33,96.97 70.43,97.46 C71.99,97.71 73.66,97.65 75.17,98.04 C77.09,98.53 78.46,99.27 80.5,99.31 C85.06,99.4 85.06,92.31 80.5,92.23 C78.79,92.23 77.25,91.14 75.56,90.87 C73.87,90.6 71.94,90.38 70.17,90.17 C68.8142097,90.0142502 67.4409042,90.1927799 66.17,90.69 C64.71,91.22 63.25,92.56 61.67,92.45 C57.13,92.15 57.14,99.22 61.67,99.52 L61.62,99.52 Z" id="Path" fill="#00A14B"></path>
                <path d="M76.73,91 C73.3974459,89.735123 69.9029236,88.9473405 66.35,88.66 C65.0185662,88.5184367 63.6730074,88.7180336 62.44,89.24 C62.08,89.41 60.34,90.96 60.25,90.97 C59.85,90.97 57.48,89.52 56.94,89.38 C55.4010555,89.0173318 53.811118,88.9226121 52.24,89.1 C48.66,89.49 46.24,92.32 43.24,94.02 C39.24,96.23 42.82,102.34 46.81,100.13 C49.35,98.72 52.07,95.61 55.1,96.2 C57.45,96.65 58.59,98.71 61.27,98.5 C63.95,98.29 63.88,96.44 65.77,95.57 C67.36,94.83 73.18,97.23 74.89,97.82 C79.2,99.3 81.05,92.47 76.77,91 L76.73,91 Z" id="Path" fill="#00A14B"></path>
                <path d="M47,96.36 C47.08,96.28 47.83,95.69 47.23,96.07 L44.51,96.43 C44.11,96.34 45.15,96.67 45.2,96.69 C45.76,96.93 46.32,97.17 46.88,97.39 C47.72,97.73 48.56,98.03 49.42,98.32 C51.3008666,98.8200092 53.2356593,97.7214028 53.77,95.85 C54.2420413,93.972837 53.153892,92.0564606 51.3,91.5 C50,91.06 48.76,90.57 47.54,90.04 C46.4754514,89.4658253 45.2160333,89.3748268 44.08,89.79 C43.2877913,90.167555 42.58024,90.7016202 42,91.36 C40.7350514,92.758884 40.7889413,94.9038612 42.12254,96.23746 C43.4561388,97.5710587 45.601116,97.6249486 47,96.36 Z" id="Path" fill="#00A14B"></path>
                <path d="M57,96.12 C58.1267459,96.0953316 59.2499844,95.9850136 60.36,95.79 C61.43,95.53 61.9,94.79 62.77,94.37 C63.5863579,94.1058712 64.433315,93.9479069 65.29,93.9 C66.79,93.61 66.98,94.04 68.18,95.05 C71.66,97.95 76.69,92.97 73.18,90.05 C71.84,88.92 70.51,87.54 68.81,86.97 C67.1702221,86.5466112 65.4497779,86.5466112 63.81,86.97 C62.3390845,87.117747 60.8973946,87.4781694 59.53,88.04 C58.85,88.38 58.37,88.96 57.75,89.33 C59.11,88.51 57.99,88.93 56.98,89.01 C52.47,89.39 52.43,96.47 56.98,96.09 L57,96.12 Z" id="Path" fill="#00A14B"></path>
                <path d="M63.86,100.68 C70.29,99.52 76.96,100.88 83.37,101.62 C84.53,101.76 84.52,99.94 83.37,99.81 C76.76,99.04 70.01,97.73 63.37,98.93 C62.22,99.14 62.7,100.93 63.85,100.68 L63.86,100.68 Z" id="Path" fill="#231F20"></path>
                <path d="M62.94,99.89 L63.05,101.18 C63.0655919,101.675977 63.4640228,102.074408 63.96,102.09 C64.4603214,102.084591 64.8645906,101.680321 64.87,101.18 L64.75,99.89 C64.7344081,99.3940228 64.3359772,98.9955919 63.84,98.98 C63.3413305,98.9854802 62.9399699,99.3913004 62.94,99.89 Z" id="Path" fill="#231F20"></path>
                <path d="M65.93,98.78 C70.6,97.73 76.1,99.18 80.8,99.73 C85.32,100.25 85.28,93.18 80.8,92.66 C75.31,92.02 69.53,90.73 64.05,91.96 C59.61,92.96 61.48,99.78 65.93,98.78 Z" id="Path" fill="#00A14B"></path>
                <path d="M61,93.55 C53.33,93.66 47.35,97.75 40,98.72 C31.89,99.79 23.9,101.43 15.88,103 C11.41,103.87 13.3,110.69 17.76,109.82 C25.46,108.31 33.15,106.69 40.94,105.68 C43.85,105.3 46.58,105.17 49.29,104.01 C53.4,102.25 56.36,100.69 61.05,100.63 C65.74,100.57 65.61,93.49 61.05,93.55 L61,93.55 Z" id="Path" fill="#00A14B"></path>
                <path d="M13.15,110.92 C29.9833297,110.1824 46.6510422,107.275045 62.74,102.27 C64.5,101.72 63.74,98.95 61.97,99.5 C46.1310245,104.425598 29.721663,107.282615 13.15,108 C11.31,108.09 11.3,111 13.15,110.88 L13.15,110.92 Z" id="Path" fill="#231F20"></path>
                <path d="M45.09,105.34 C47.77,105.34 49.99,104.34 52.47,103.51 C55.2886195,102.593255 58.1564609,101.835397 61.06,101.24 C65.5,100.24 63.62,93.43 59.18,94.42 C56.65,94.99 54.11,95.55 51.64,96.34 C49.5,97.03 47.36,98.34 45.09,98.27 C40.53,98.22 40.53,105.27 45.09,105.34 Z" id="Path" fill="#00A14B"></path>
                <path d="M58.39,95 C58.13,95.25 57.07,96.64 58.19,95.45 C58,95.65 57.78,95.54 57.55,95.52 C56.94,95.47 57.48,95.67 56.92,95.39 C57.1,95.48 56.17,94.96 56,94.84 C54.45,93.72 52.06,94.57 51.16,96.11 C50.1764477,97.8132493 50.741937,99.9906058 52.43,101 C54.058034,102.138712 56.0149212,102.711374 58,102.63 C59.1477842,102.611535 60.2775932,102.341882 61.31,101.84 C62.0890681,101.327138 62.7925532,100.707802 63.4,100 C64.3695602,99.1232699 64.7770694,97.7835887 64.459938,96.515468 C64.1428067,95.2473472 63.1526528,94.2571933 61.884532,93.940062 C60.6164113,93.6229306 59.2767301,94.0304398 58.4,95 L58.39,95 Z" id="Path" fill="#00A14B"></path>
                <path d="M52.29,94.89 C50.7025904,96.0397137 48.9961064,97.0153263 47.2,97.8 C46.2460835,98.1545507 45.4724934,98.8741694 45.05,99.8 C44.79,100.46 44.4,100.74 45.49,100.26 C46.58,99.78 45.84,99.64 45.02,99.12 C41.16,96.69 37.6,102.81 41.45,105.23 C43.38,106.45 45.13,107.39 47.45,106.67 C49.77,105.95 50.84,104.18 51.64,102.11 L50.01,104.22 C52.0110983,103.262302 53.9484412,102.176722 55.81,100.97 C57.4429873,99.9431011 57.9949635,97.8228117 57.07,96.13 C56.2,94.63 53.77,93.7 52.24,94.86 L52.29,94.89 Z" id="Path" fill="#00A14B"></path>
                <path d="M50.22,104.6 C51.8001697,104.848383 53.4185087,104.622163 54.87,103.95 C56.2970193,103.227343 57.3508501,101.933675 57.77,100.39 C58.2959737,99.1257124 58.0456245,97.6714681 57.1271618,96.6558413 C56.2086991,95.6402146 54.7868675,95.245378 53.4762312,95.6419936 C52.1655949,96.0386091 51.2012424,97.1555359 51,98.51 C50.9,98.88 50.93,98.8 51.11,98.27 C51.2501333,97.991753 51.473959,97.7644301 51.75,97.62 C51.23,97.96 52.42,97.62 51.75,97.62 C52.61,97.62 51.58,97.62 51.48,97.62 C51.0683575,97.6115221 50.6576059,97.5781277 50.25,97.52 C48.4,97.31 46.63,99.3 46.71,101.06 C46.7676167,102.989056 48.3207885,104.537841 50.25,104.59 L50.22,104.6 Z" id="Path" fill="#00A14B"></path>
                <path d="M29.89,100.92 C29.72,101.06 28.49,101.69 28.47,101.85 C28.9487103,101.838599 29.4248223,101.923619 29.87,102.1 C29.6275303,101.87578 29.3972026,101.638776 29.18,101.39 C27.18,99.26 24.18,100.63 23.27,102.95 C23.34,102.84 23.27,102.88 23.2,103.08 C22.83,103.69 23.2,103.48 24.39,102.45 C22.434912,102.45 20.85,104.034912 20.85,105.99 C20.85,107.945088 22.434912,109.53 24.39,109.53 C27.39,109.68 29.12,107.37 30.09,104.83 L24.18,106.39 C25.68,108.03 27.71,109.24 30.01,108.75 C31.8364881,108.196524 33.5101385,107.227929 34.9,105.92 C36.38,104.72 36.15,102.17 34.9,100.92 C33.5010192,99.5841212 31.2989808,99.5841212 29.9,100.92 L29.89,100.92 Z" id="Path" fill="#00A14B"></path>
                <path d="M71.77,98.94 C71.04,98.5 71.97,99.13 72.14,99.26 C72.5001881,99.5884014 72.8999422,99.8705808 73.33,100.1 C74.3288775,100.587897 75.4436616,100.788697 76.55,100.68 C78.7855722,100.682801 80.8705978,99.553726 82.09,97.68 C83.0758283,95.9955315 82.5094685,93.8308283 80.825,92.845 C79.1405315,91.8591717 76.9758283,92.4255315 75.99,94.11 C76.1228243,93.9271038 76.2890877,93.7710198 76.48,93.65 C76.89,93.51 76.9,93.51 76.48,93.65 C76.06,93.79 76.09,93.74 76.48,93.65 L75.88,93.65 C75.26,93.65 75.49,93.65 76.58,93.89 C76.92,94.17 76.95,94.17 76.65,93.89 C76.2238759,93.4946255 75.7618842,93.1397623 75.27,92.83 C74.1761247,92.1439143 72.79546,92.1078436 71.6672526,92.735876 C70.5390451,93.3639084 69.8422815,94.5564085 69.849097,95.8476212 C69.8559124,97.138834 70.5652257,98.3239124 71.7,98.94 L71.77,98.94 Z" id="Path" fill="#00A14B"></path>
                <path d="M68.58,92.52 C69.31,92.4 68.38,92.52 68.21,92.52 L67.55,92.52 C67.89,92.52 67.94,92.52 67.68,92.52 C67.58,92.52 66.68,92.24 67.01,92.36 L66.83,92.27 C66.634529,92.1697333 66.4442833,92.059591 66.26,91.94 C64.5710453,90.9669115 62.4135859,91.5330217 61.42,93.21 C60.5021962,94.8903439 61.0602435,96.9951053 62.69,98 C65.0234117,99.3969191 67.7934753,99.8746392 70.46,99.34 C72.3349916,98.8102307 73.4357738,96.8716062 72.93,94.99 C72.3650194,93.1429178 70.4556806,92.0587644 68.58,92.52 Z" id="Path" fill="#00A14B"></path>
                <path d="M80.84,131.33 C81.3496022,132.231508 81.3030794,133.344179 80.72,134.2 C79.7092412,134.987632 78.6394219,135.696388 77.52,136.32 C77.91,137.76 79.4,135.44 79.65,135.21 C80.85,134.12 82.11,133.1 83.33,132.04 C86.07,129.69 82.1,125.75 79.33,128.04 C77.04,130.04 73.77,132.04 72.91,135.14 C72.16,137.79 73.5,141.09 76.36,141.76 C79.22,142.43 82.88,140.05 84.71,138.01 C86.7170763,135.773838 87.2898938,132.596249 86.19,129.8 C85.7493188,128.326304 84.2378459,127.450087 82.74,127.8 C81.42,128.17 80.21,129.8 80.74,131.25 L80.84,131.33 Z" id="Path" fill="#FFFFFF"></path>
                <path d="M84.77,126.62 C80.32,125.91 75.77,127.51 73.37,131.52 C71.25,135.08 71.05,141.17 74.76,143.83 C78.25,146.34 82.63,143.95 84.97,141.04 C87.8152335,137.424634 88.6841505,132.634355 87.29,128.25 C86.75,126.49 83.98,127.25 84.52,129.01 C85.3953727,131.670331 85.2346686,134.563005 84.07,137.11 C83.07,139.28 80.87,142.02 78.23,142.01 C74.01,142.01 74.23,135.95 75.62,133.36 C77.2580118,130.353263 80.6427119,128.73958 84.01,129.36 C85.82,129.64 86.6,126.88 84.77,126.59 L84.77,126.62 Z" id="Path" fill="#231F20"></path>
                <path d="M84.37,106.61 C89.77,106.75 94.91,112.69 92.37,117.77 C90.7302479,121.230654 88.2178668,124.204845 85.08,126.4 C83.53,127.4 84.97,129.89 86.53,128.88 C90.99,125.98 96.95,119.17 96.15,113.38 C95.47,108.38 89.15,103.86 84.35,103.74 C82.5,103.69 82.5,106.56 84.35,106.61 L84.37,106.61 Z" id="Path" fill="#231F20"></path>
                <path d="M12.3,151.09 C14.2901267,150.987905 16.2802767,151.29068 18.15,151.98 C18.94,152.34 18.83,152.58 19.28,153.32 C19.73,154.06 20.36,154.32 20.94,154.9 L20.12,152.9 L20.12,153.22 L21.5,150.8 C22.5333333,150.646667 22.5633333,150.576667 21.59,150.59 L20.93,150.53 C20.1159089,150.402347 19.3156905,150.198107 18.54,149.92 C17.0827374,149.429453 15.7272073,148.677133 14.54,147.7 C11.78,145.43 7.8,149.37 10.54,151.7 C13.0515109,153.863317 16.0852852,155.33194 19.34,155.96 C21.77,156.39 25.81,156.54 25.64,152.96 C25.6246812,152.214601 25.3323562,151.501613 24.82,150.96 C24.61,150.72 23.43,149.68 23.76,150.2 C24.09,150.72 23.15,148.88 22.96,148.67 C22.5571295,148.220062 22.0925068,147.829509 21.58,147.51 C18.95,145.85 15.25,145.51 12.22,145.51 C8.62,145.51 8.61,151.11 12.22,151.11 L12.3,151.09 Z" id="Path" fill="#FFFFFF"></path>
                <path d="M10.29,146.51 C13.0756858,146.146864 15.9065584,146.371698 18.6,147.17 C20.1147224,147.689918 21.4852508,148.560203 22.6,149.71 C23.23,150.37 25.28,152.81 24.6,153.89 C24.06,154.77 20.99,155.23 19.96,155.33 C18.0365634,155.553811 16.0905324,155.187622 14.38,154.28 C11.7655157,152.827456 10.2407929,149.981307 10.48,147 C10.6,145.15 7.73,145.16 7.61,147 C7.36276462,151.340146 9.81055174,155.385352 13.77,157.18 C17.28,158.8 23.68,158.87 26.62,155.95 C29.07,153.51 26.21,149.19 24.27,147.33 C20.51,143.74 15.15,143.23 10.22,143.64 C8.39,143.79 8.37,146.64 10.22,146.51 L10.29,146.51 Z" id="Path" fill="#231F20"></path>
                <path d="M20.49,162.69 C19.49,168.05 13.39,171.48 12.95,176.92 C12.55,181.92 21.16,181.11 24.19,181.02 C26.03,180.97 26.04,178.09 24.19,178.15 C22.57,178.15 18.08,178.71 16.72,177.72 C14.93,176.41 17.45,173.65 18.39,172.33 C20.39,169.51 22.58,166.95 23.26,163.45 C23.61,161.64 20.84,160.87 20.49,162.69 Z" id="Path" fill="#231F20"></path>
                <path d="M13.49,121.79 C11.49,126.05 8,128.79 7.13,133.61 C6.37727659,137.652161 6.47262501,141.806628 7.41,145.81 C7.66208671,146.521294 8.42054161,146.917323 9.14829074,146.717652 C9.87603988,146.517981 10.3261976,145.790347 10.18,145.05 C9.2250525,141.046153 9.2250525,136.873847 10.18,132.87 C11.18,129.12 14.35,126.71 15.94,123.24 C16.71,121.58 14.23,120.12 13.46,121.79 L13.49,121.79 Z" id="Path" fill="#231F20"></path>
                <path d="M29,102.56 C28.89,102.18 28.79,102.3 28.7,102.91 L27.57,103.22 L27.27,103.1 L26.47,102.3 L26.36,101.92 L26.67,100.79 L26.73,100.73 C24.84,102.38 27.35,105.73 29.43,104.24 C29.9122591,103.80968 30.5606045,103.615543 31.2,103.71 L29.56,101.56 L29.56,101.89 L29.87,100.77 C29.68,101.16 28.17,101.32 27.76,101.41 C26.5866667,101.67 25.4166667,101.91 24.25,102.13 C21.43,102.65 22.63,106.95 25.44,106.43 C28.66,105.83 33.56,105.61 34.07,101.56 C34.073216,100.554663 33.4004257,99.6726517 32.43,99.41 C30.6299744,98.9961894 28.7389025,99.3591591 27.22,100.41 L29.92,103.92 C30.7536244,103.119514 31.0532942,101.911347 30.6903835,100.814075 C30.3274728,99.7168043 29.3665237,98.9255737 28.22,98.78 C25.4,98.52 24.03,101.37 24.74,103.78 C25.55,106.52 29.86,105.35 29.04,102.59 L29,102.56 Z" id="Path" fill="#FEEB3D"></path>
                <path d="M47.61,98 C47.4918745,96.9720187 47.0136202,96.0190528 46.26,95.31 L46.83,96.31 C47.59,98.1 43.31,96.57 44.83,96.07 C42.53,96.82 42.83,100.57 45.42,100.46 C45.6657933,100.489356 45.9142067,100.489356 46.16,100.46 C46.16,100.36 46.03,100.26 45.97,100.06 C45.8846879,99.7344172 46.0467277,99.3947882 46.3534717,99.2562587 C46.6602156,99.1177291 47.0221503,99.2207245 47.21,99.5 C46.5804144,98.4799192 45.2639133,98.1288522 44.21,98.7 C43.6,99.12 43.99,98.79 44.05,98.84 C41.94,96.9 38.77,100.05 40.89,102 C42.3862362,103.470525 44.7050546,103.699493 46.46,102.55 L43.46,101.75 C45.13,104.19 49.05,104.32 50.2,101.28 C50.7384521,99.9196495 50.4637333,98.3719376 49.49,97.28 C48.4163657,96.2745945 46.947868,95.8046752 45.49,96 L46.09,100.39 C47.5274162,99.9903063 48.6342559,98.8413378 48.98,97.39 C49.2899714,95.6536632 48.2818128,93.9521297 46.61,93.39 C45.1144824,92.9337903 43.5052575,93.6001099 42.77,94.98 C42.3791817,95.6908592 42.271997,96.5233269 42.47,97.31 C42.7299005,97.8951038 43.0661581,98.4432038 43.47,98.94 L43.16,97.81 L43.16,98.06 C43.31,100.92 47.77,100.94 47.62,98.06 L47.61,98 Z" id="Path" fill="#FEEB3D"></path>
                <path d="M59.11,96.21 C59.24,98.08 56.24,97.76 56.44,96.29 C56.4387352,96.1446439 56.50079,96.0059331 56.61,95.91 L60,97.84 C60.093224,97.3377016 60.2235817,96.8430108 60.39,96.36 L60.39,96.22 C60.4580864,96.0798711 60.5383975,95.9460193 60.63,95.82 C60.63,96.12 59.98,96.15 59.83,96.14 C59.3618655,96.144031 58.9465244,95.840487 58.8081997,95.3932372 C58.669875,94.9459874 58.8413283,94.4609606 59.23,94.2 C59.36,94.2 59.31,94.2 59.06,94.25 C59.28,94.25 59.24,94.25 58.96,94.25 C58.68,94.25 58.33,94.25 57.96,94.25 C56.728405,94.25 55.73,95.248405 55.73,96.48 C55.73,97.711595 56.728405,98.71 57.96,98.71 C59.5148967,98.9523067 61.0931397,98.4484545 62.22,97.35 C62.8663189,96.6736373 63.2083276,95.7626274 63.16679,94.8280316 C63.1252524,93.8934357 62.7037732,93.0163586 62,92.4 C60.4223966,91.2605146 58.2221463,91.5990147 57.06,93.16 C56.1060121,94.5422438 55.5554775,96.1626853 55.47,97.84 C55.28,99.49 57.47,100.67 58.82,99.77 C59.7784353,99.1866819 60.4737237,98.2548521 60.76,97.17 C61.0151277,96.0224868 60.6684066,94.8240379 59.84,93.99 C59.0061288,93.167278 57.7797205,92.8848559 56.67,93.26 C55.3859532,93.6817992 54.5424956,94.9101356 54.61,96.26 C54.61,97.491595 55.608405,98.49 56.84,98.49 C58.071595,98.49 59.07,97.491595 59.07,96.26 L59.11,96.21 Z" id="Path" fill="#FEEB3D"></path>
                <path d="M73.24,97.17 C73.7480554,96.9371485 74.292941,96.7950045 74.85,96.75 L72.7,93.93 C72.8383917,93.6045872 73.1015633,93.3483084 73.4305337,93.2186 C73.7595041,93.0888917 74.1267625,93.0966009 74.45,93.24 L73.92,97.32 C74.3503006,97.2535864 74.7846579,97.2168331 75.22,97.21 L76.34,97.21 C76.81,97.21 76.57,97.14 75.6,96.87 L75.02,95.87 C74.61,94.3 76.79,94.08 75.55,94.17 C75.1296822,94.1894759 74.7132925,94.2599936 74.31,94.38 C73.135666,94.7287304 72.4467883,95.9430982 72.75,97.13 C73.0853575,98.3099892 74.3041174,99.0038818 75.49,98.69 C75.82,98.58 76.32,98.62 76.83,98.51 C77.4337329,98.4014587 77.9930065,98.120085 78.44,97.7 C79.3521024,96.8682456 79.6616242,95.5626987 79.22,94.41 C78.15,92.04 74.78,92.67 72.73,93 C71.8714251,93.2360493 71.2398021,93.9663634 71.13,94.85 C71.0174447,95.7390159 71.4360941,96.6115282 72.2,97.08 C73.0794815,97.6170436 74.1628749,97.7007125 75.1143862,97.3050738 C76.0658974,96.909435 76.7705726,96.0822865 77.01,95.08 C77.181762,94.4086804 77.0360569,93.6956677 76.6146933,93.1455541 C76.1933297,92.5954405 75.5428857,92.2690363 74.85,92.26 C73.8922678,92.2996793 72.9470238,92.492104 72.05,92.83 C70.8858777,93.1914928 70.2029822,94.395315 70.49,95.58 C70.8298533,96.761361 72.0516214,97.4544368 73.24,97.14 L73.24,97.17 Z" id="Path" fill="#FEEB3D"></path>
                <path d="M38.81,182.71 C40.57,189.32 42.4,196.51 42.49,203.38 C42.58,210.25 35.35,216.87 31.49,222.09 C30.39,223.59 32.88,225.02 33.97,223.54 C36.66,219.86 39.37,216.2 42.04,212.54 C43.96,209.89 45.34,207.95 45.4,204.68 C45.54,197.22 43.4,189.11 41.54,181.98 C41.2879133,181.268706 40.5294584,180.872677 39.8017093,181.072348 C39.0739601,181.272019 38.6238024,181.999653 38.77,182.74 L38.81,182.71 Z" id="Path" fill="#231F20"></path>
                <path d="M70.36,231.34 C68.8266667,223.553333 67.6766667,215.706667 66.91,207.8 C66.73,205.98 63.91,205.96 64.04,207.8 C64.8266667,215.96 66.01,224.063333 67.59,232.11 C67.94,233.92 70.72,233.11 70.36,231.34 Z" id="Path" fill="#231F20"></path>
                <path d="M70.15,180.84 C68.3,185.72 66.26,190.6 64.66,195.58 C63.42,199.43 63.96,203.58 64,207.58 C64.0623465,208.326208 64.6861919,208.900104 65.435,208.900104 C66.1838081,208.900104 66.8076535,208.326208 66.87,207.58 C66.87,202.98 66.52,198.8 68.11,194.45 C69.7,190.1 71.3,185.85 72.92,181.56 C73.58,179.83 70.8,179.08 70.15,180.8 L70.15,180.84 Z" id="Path" fill="#231F20"></path>
            </g>
        </g>
    </g>
</svg>
