<svg id="Layer_1" data-name="Layer 1" xmlns="http://www.w3.org/2000/svg" viewBox="0 0 1613.68 869.52">
    <defs>
        <style>
            .cls-1 {
                fill: #fff;
            }
        </style>
    </defs>
    <title>sprouts</title>
    <path class="cls-1" d="M726.58,364.89c3-7.85,3.19-18.19,2.15-26.43-.94-7.51-4.13-14.88-10.47-19.35-11-7.74-38.42-5.17-36.28,13,.6,5.15,8.76,5.21,8.15,0-.87-7.32,7.19-8.91,12.88-8.81,5.87.1,11,1.37,14.39,6.51,3.09,4.72,3.62,10.46,3.56,16s-.19,11.67-2.24,17c-1.89,4.9,6,7,7.86,2.17Z" />
    <path class="cls-1" d="M714.5,354.33c-.52,8.16-.18,18.24,5.07,25,4.94,6.34,13.75,5.95,19.07,11.44,3.66,3.77,9.42-2,5.77-5.76-4.53-4.67-10.59-5.22-15.88-8.52-6.8-4.25-6.32-15.18-5.88-22.15.32-5.23-7.82-5.21-8.15,0Z" />
    <path class="cls-1" d="M656.31,374.87c3.93,0,3.94-6.11,0-6.11s-3.94,6.11,0,6.11Z" />
    <path class="cls-1" d="M659,370.28a1.82,1.82,0,0,1-.34-2.12c1.91-3.49-3.06-6.29-5.27-3.08L649.29,371l5.58.73a1.39,1.39,0,0,1,.14-1c1-2.84-3.14-5.24-5.11-3a13.84,13.84,0,0,0-2.64,4.51h5.9a9.56,9.56,0,0,1,.68-5.89c.65-1.52-.69-3.36-2.13-3.76-1.77-.48-3.11.61-3.76,2.14a15,15,0,0,0-.69,9.13c.7,3.17,5,2.63,5.9,0a5.79,5.79,0,0,1,1.06-1.81l-5.1-3a7.26,7.26,0,0,0-.14,4.28c.67,2.72,4.17,2.78,5.58.73l4.05-5.88-5.27-3.08a7.77,7.77,0,0,0,.33,8.28,3.14,3.14,0,0,0,4.18,1.1,3.08,3.08,0,0,0,1.1-4.18Z" />
    <path class="cls-1" d="M720.48,366.13c3-7.84,3.19-18.19,2.16-26.43-.95-7.51-4.13-14.88-10.48-19.35-11-7.74-38.42-5.17-36.28,13,.61,5.15,8.76,5.21,8.15,0-.86-7.32,7.19-8.91,12.88-8.81,5.88.1,11,1.38,14.39,6.51,3.1,4.72,3.63,10.46,3.57,16s-.2,11.66-2.24,17c-1.89,4.9,6,7,7.85,2.17Z" />
    <path class="cls-1" d="M709.34,341.5c-.51,8.16-.18,18.24,5.08,25,4.93,6.34,13.74,5.95,19.07,11.44,3.65,3.77,9.41-2,5.76-5.76-4.53-4.67-10.59-5.22-15.88-8.53-6.8-4.24-6.32-15.17-5.88-22.14.33-5.24-7.82-5.22-8.15,0Z" />
    <path class="cls-1" d="M533.19,515a59.61,59.61,0,0,1,10.7-28.45c3.25-4.67-2.09-10-6.9-9-.47.1-.64-2.14-.44-2.81.53-1.77,2.67-3.07,4.12-4a33.82,33.82,0,0,1,15-4.74c9.46-.74,19.94,3.37,23.77,12.66.31.73.37,2.17.84,2.77-.15,1.11.16,1.15.94.14q1.59-.56.36-1.17c-.6-1.61-3.91-3.39-5.3-4.46a57.3,57.3,0,0,0-12.83-7.61c-9.47-4-19.18-4.43-28.63-.22L541,478.73c10.31-6.28,23.67-2.26,27.75,9.42l11.17-4.71a59.58,59.58,0,0,0-12.1-17l-4.32,10.44c4.82.13,7.69,5.19,6.27,9.52-2.45,7.5,9.35,10.71,11.79,3.25,3.93-12.05-5.66-24.66-18.06-25-5.32-.14-8,6.77-4.32,10.44a49.77,49.77,0,0,1,10.19,14.51c2.93,6.21,13.45,1.83,11.17-4.71-6.62-18.94-28.31-27.31-45.71-16.72-6.87,4.17-.88,13.68,6.17,10.55,7.49-3.34,15.95-.55,22.63,3.36,5.91,3.47,11.66,11.71,19,11.55,8-.17,10.94-8.61,9.41-15.39-1.62-7.21-6.45-13.47-12.33-17.75-13.08-9.51-32.48-8.51-45.81.12-5.95,3.84-11,10.28-9.57,17.74,1.44,7.62,8.28,12.7,15.91,11l-6.9-9A71.91,71.91,0,0,0,521,515c-.74,7.82,11.49,7.77,12.22,0Z" />
    <path class="cls-1" d="M538,473c-11.52,11.69-18.39,27.81-18,44.32.18,7.41,2.72,14.1,10.24,16.79s14.66-.34,21.48-3.58a95.67,95.67,0,0,1,25.72-8.15c4.69-.77,9.34-.73,14-1.14,3.43-.3,6.68-1.43,8.67-4.44,4.51-6.83-1-16.65-4.9-22.42-4.14-6.09-11-12.15-18.88-9.1-3.6,1.41-5.83,5.3-3.65,9a26.33,26.33,0,0,1,3.76,14.07l7.74-5.89a66.21,66.21,0,0,0-25.21-.53,58.18,58.18,0,0,0-11.43,3.23c-2.09.82-4.07,1.82-6.1,2.73a11.9,11.9,0,0,1-2.35,1c-1.32.11-1.29.34.08.71l-7.41,9.6a24.86,24.86,0,0,0,18.92,2.66c6.55-1.6,5.36-12.61-1.62-12l-10.16.89,6.11,6.11c-1.44-11.61,1.55-23.11,9.29-32l-10.43-4.32a64.85,64.85,0,0,1-5.55,22.11l11.17,4.71a73.44,73.44,0,0,1,15.63-24.17L555,477.2l-4.59,23.64c-1.49,7.65,10.1,11,11.79,3.25l3.55-16.31a6.16,6.16,0,0,0-10.22-5.94,43.39,43.39,0,0,0-13.67,25.07c-.93,5.78,5.5,10.47,10.22,5.94Q564.4,501,576,488.31L565.54,484a83.54,83.54,0,0,1-2.15,19c-1.78,7.66,10,10.92,11.78,3.25A98.38,98.38,0,0,0,577.76,484c0-5.12-6.79-8.29-10.43-4.32q-11.57,12.66-23.93,24.54l10.21,6a32.77,32.77,0,0,1,10.52-19.68l-10.21-6-3.55,16.31,11.79,3.25,4.59-23.64c1.1-5.68-5.71-10.63-10.21-5.94a88.75,88.75,0,0,0-18.78,29.56c-2.5,6.39,8.32,11,11.17,4.71a81.79,81.79,0,0,0,7.22-28.28c.37-5.15-7-8.23-10.43-4.32C536,487.41,531,502,532.84,516.86c.38,3,2.51,6.43,6.12,6.11l10.16-.88-1.63-12a12,12,0,0,1-9.5-1.42c-5.79-3.36-13,5.14-7.4,9.59,7.81,6.25,14.71.57,22.64-2.2A51.73,51.73,0,0,1,581,514.24a6.19,6.19,0,0,0,7.73-5.89,38.54,38.54,0,0,0-5.43-20.24l-3.65,9c3.37-1.32,7.08,6.35,8.31,8.93.48,1,.76,3.17,1.38,3.84.07,1.46.68,1.19,1.84-.79l-1,0c-1.49-1-7.24.37-9,.56A107.3,107.3,0,0,0,547,519.3c-3.19,1.5-9.57,5.67-13.18,3.12-2.93-2.08-1.65-9.06-1.26-12.17a49.74,49.74,0,0,1,14.08-28.59c5.53-5.61-3.11-14.25-8.64-8.64Z" />
    <path class="cls-1" d="M592.28,498.93a8.82,8.82,0,0,1-.53-10.24c2.78-4.34,8.23-5,7.16-11.58-.9-5.44-6.82-9.67-11.31-12.15a36.24,36.24,0,0,0-17.73-4.42c-7.86,0-7.88,12.24,0,12.22a23.26,23.26,0,0,1,15,5,19.52,19.52,0,0,1,1.76,1.64q1.89,2.33.88-3.25c-.35-.08-2,1.43-2.21,1.64a19.55,19.55,0,0,0-4.34,5.28,21.28,21.28,0,0,0,2.73,24.53c5.21,5.91,13.83-2.76,8.64-8.64Z" />
    <path class="cls-1" d="M593.65,495.44c9.54-4.28,18.33,13.69,22.23,19.56a288.34,288.34,0,0,1,18,30.06c11.16,22.12,14.21,46.68,18.61,70.78,1.41,7.73,13.19,4.45,11.78-3.25-2.65-14.53-4.81-29.26-8.41-43.6a154.34,154.34,0,0,0-15.65-38,345.66,345.66,0,0,0-22-34.25c-7.34-10.07-18.17-17.48-30.72-11.85-7.17,3.22-1,13.75,6.16,10.56Z" />
    <path class="cls-1" d="M692.19,510.89a77.74,77.74,0,0,0-19.52-2.12c-5,.14-11.49.14-15.28,4a8.41,8.41,0,0,0,1.18,12.78,11,11,0,0,0,6,1.93c2.29,0,5.93-2.06,7.87-1.3l-4.48-5.9-.06,13.4c0,3.45-.27,7.06,1.08,10.31,3,7.15,10.71,7.59,16.52,3.49,12.79-9,26.12-14.37,42-14,6.22.15,8.1-8.29,3.09-11.39-15.41-9.51-33.79-5.28-50-.38-7.5,2.27-4.3,14.07,3.25,11.79,12.92-3.9,28.18-8.51,40.59-.86l3.08-11.38a76.86,76.86,0,0,0-35.73,7.82,69.13,69.13,0,0,0-7.84,4.5c-1.37.91-2.66,1.93-4,2.88-1.51,1.07-3.41,1.1-1.05,2.42,2.2,1.23,1.31.2,1.22-1.39-.1-1.88,0-3.85,0-5.74l.05-11.49c0-2.91-2-4.91-4.49-5.89a12.24,12.24,0,0,0-8.27,0,7,7,0,0,0-2.35.88q-2.29,7.19,1.48,6.18a18.65,18.65,0,0,1,2.48-.29,62.65,62.65,0,0,1,19.87,1.49c7.66,1.77,10.92-10,3.25-11.79Z" />
    <path class="cls-1" d="M680.47,533.44C689,533,692.88,527,699.58,523c3.55-2.11,7.52-.13,11.43-1.14a20.16,20.16,0,0,0,6.35-3.1c.9-.63,4.19-3.8,5.29-3.26l-2.81-3.65,1.93,9.15,9-6.9a46.83,46.83,0,0,0-24.54-5.32l4.32,10.43a19.83,19.83,0,0,1,15.19-4.5l-4.49-5.9.33,13.82c.19,7.85,12.41,7.88,12.22,0l-.33-13.82c-.05-2.39-1.84-5.52-4.48-5.89a33.37,33.37,0,0,0-27.09,7.65c-4,3.36-.78,10.74,4.33,10.43a34.58,34.58,0,0,1,18.37,3.65,6.19,6.19,0,0,0,9-6.9c-1.41-6.65-1.77-14.16-10.28-14.46a16.07,16.07,0,0,0-8.32,2.27c-3,1.68-5.09,4.56-8.71,4.44-5.77-.19-9.94.26-14.74,3.77-3.12,2.27-6.91,7.25-11,7.46-7.82.41-7.87,12.64,0,12.23Z" />
    <path class="cls-1" d="M679.27,540.13a58.87,58.87,0,0,0,32.26-6.62c4.27-2.24,8.38-5.14,13.44-4s9,5.19,11.5,9.59c5.41,9.42,7.11,21.49,9,32a256.15,256.15,0,0,1,3.79,37.89c.23,7.85,12.45,7.88,12.23,0a280.22,280.22,0,0,0-4.4-42.07c-2.25-12.29-4.51-26.26-11.79-36.73C738.88,521,727.4,514.57,716,517.92c-5.77,1.7-10.63,5.5-16.26,7.52a48.11,48.11,0,0,1-20.51,2.47c-7.84-.65-7.8,11.57,0,12.22Z" />
    <path class="cls-1" d="M716.64,360c1.25-7.69,2.43-16-.38-23.48-3-7.93-9.68-12.68-17.65-14.87-7.59-2.09-16.12-3.93-21.55,3.11s-7.16,15.95-12.73,22.68-13,4.41-20,8.07-8.56,12.23-7.73,19.54c.89,7.88,6.4,14.14,14.76,13.71a20.09,20.09,0,0,0,10.34-3.92c3.56-2.55,6.72-6.6,11.15-7.57,9.56-2.1,18.67,6.91,26.1,11.48a59.25,59.25,0,0,0,30.13,8.67c7.86.15,7.86-12.07,0-12.22a48.44,48.44,0,0,1-26.07-8.34c-7.47-4.88-14.55-10.32-23.64-11.67s-15.32,2-22,7.54c-1.66,1.36-6,5.59-8.19,3.17-1.4-1.58-.86-8,.49-9.4,1.81-1.91,7.39-1.49,9.83-2.05a24.39,24.39,0,0,0,10.29-5.29c6.18-5.24,9.32-12.62,12.79-19.73,1-1.93,1.86-4.42,3.28-6.06,1.62-1.88.49-1.65,3.34-1.22,3.86.58,8.36,1.34,11.65,3.59,6.64,4.56,5.05,14.19,4,21-1.24,7.69,10.53,11,11.78,3.25Z" />
    <path class="cls-1" d="M705.11,392.11c8.89,4.41,18,8.76,28.07,9.35,8.06.47,20.44-2,24.42-10,4.95-10-9.72-15.1-16.6-17.62-9.78-3.58-20.14-5.11-30.39-6.61l-1.63,12c10.14-1.34,19.76,1.64,27,9,3.25,3.3,6.68,6.31,11.63,5.9a10.64,10.64,0,0,0,9.06-7.77c3-9.78-5.5-16.24-14-18.29-12.23-3-25.17-3.9-37.71-3.75-7.86.1-7.88,12.32,0,12.22a153.49,153.49,0,0,1,27.42,1.95c3.35.57,7.58.91,10.67,2.46.77.38,4,3.42,2.95.12-.72-2.3-5.16-5-7.11-6.41A42.38,42.38,0,0,0,709,367c-3.05.41-5.55,2-6,5.3-.36,2.7,1.37,6.27,4.38,6.71,6.87,1,13.75,2,20.5,3.65a89.83,89.83,0,0,1,9.89,2.95c1,.38,9.22,4.66,9.38,4.52l-.52-4.22a20.13,20.13,0,0,1-2.52,1.53,18.14,18.14,0,0,1-4.19,1.41A25.29,25.29,0,0,1,731,389c-7-1-13.48-4.36-19.73-7.46-7-3.49-13.22,7.05-6.17,10.55Z" />
    <path class="cls-1" d="M716.8,359.94a109.47,109.47,0,0,0-19.07-28.83c-2.46-2.7-8-2.28-9.59,1.24-3.29,7.17-6.9,13.57-13.14,18.58-5.67,4.56-12.35,7.82-18.81,11.08-6.14,3.09-1.87,13.39,4.71,11.17,16.86-5.69,26.9-20.37,35.76-34.91l-11.39-3.08c-1.21,11-1.66,36.53,15.94,33.36a6,6,0,0,0,4.27-4.27c1.56-6.84.24-16-8.49-16.5-4.5-.26-8,2.37-11.63,4.74l-13,8.55c-6,3.95-2.06,12.31,4.71,11.17,5.22-.88,10.82-1.78,16.1-.82,5.88,1.06,8.63,5,12.4,9.13A20.5,20.5,0,0,0,719,387.66c3.85.41,11.47-1.86,14.58.73,6,5,14.69-3.59,8.64-8.64-5.1-4.25-10.52-4.56-16.92-4.26-2.92.14-6.11.59-8.64-1.2-2.37-1.69-4.06-4.45-6-6.56-9.68-10.57-23.87-9.45-36.78-7.28l4.71,11.17,11.33-7.48c1.27-.84,3.86-2.05,4.86-3.2,2.13-.74,1.89-1.43-.74-2.06a6.86,6.86,0,0,1-.34,2.15l4.27-4.27c1.42.48,1.59.16.53-1a9.33,9.33,0,0,1-.76-2.23,30.61,30.61,0,0,1-.62-5.23,76,76,0,0,1,.38-13.15c.7-6.35-8.47-7.87-11.38-3.09-7,11.52-15,24.74-28.46,29.29l4.71,11.17c7.47-3.76,14.8-7.67,21.3-13,6.91-5.68,11.34-13,15-21.05l-9.6,1.24a99.41,99.41,0,0,1,17.16,26.35c3.22,7.16,13.76.95,10.55-6.17Z" />
    <path class="cls-1" d="M751.55,393.51c6.51,12.56,17.19,22.29,24.29,34.51s11.48,25.49,14.47,39.14c6.62,30.18,7,61.85,7,92.62,0,19-.51,37.93-1,56.89-.21,7.86,12,7.86,12.22,0,.91-34,1.82-68-.14-102-1.71-29.64-5.23-60.14-18.77-87-7.42-14.73-19.93-25.85-27.46-40.37-3.62-7-14.17-.81-10.55,6.17Z" />
    <path class="cls-1" d="M899,445.63c-2.66-7.83-.56-16.67,6.45-21.55,7.9-5.51,19.15-6.74,28.3-9,8.37-2,18-3.36,21.82,6.49a25.88,25.88,0,0,0,.68,2.6l.05,1.07,2.51-1.38c-.25-.48-4.31-.54-4.85-.52a9,9,0,0,0-8.84,7.94c-1.14,9.76,10.48,12.22,16.2,17.51s12.86,15.14,6.74,22.64c-5.73,7-15.78,7.21-24,6-9.91-1.45-19.63-4.57-29.75-4.1a37.18,37.18,0,0,0-14.6,3.43,32.5,32.5,0,0,0-6.78,4c-1.31,1.12-1.49-.46-.26.83a8.27,8.27,0,0,1-1.36-3c-3.45-10,3.09-19.51,12.9-21.73,7.67-1.74,4.42-13.52-3.25-11.79a29,29,0,0,0-22.31,23c-1.69,9.82,2.51,28.5,16.21,25,5.67-1.45,9.67-6,15.54-7.11,6.54-1.27,13.36-.07,19.81,1.21,12.75,2.53,25.93,5.34,38.11-.81,10.06-5.09,16.36-15.65,13.69-26.95-1.39-5.89-4.82-11.24-8.72-15.8-3.31-3.87-9.78-10.47-15-11.57l-1.17-.65q-5,4.31-1.13,4.33a11.53,11.53,0,0,0,2.83.31,9.54,9.54,0,0,0,7.21-3.22c3.66-4.34,2.77-10.91.84-15.8a25.08,25.08,0,0,0-26.23-15.79c-7.82.87-15.61,3.31-23.24,5.22-6.8,1.7-13.7,3.75-19.43,7.93a30.73,30.73,0,0,0-10.74,34.42c2.52,7.4,14.33,4.23,11.78-3.25Z" />
    <path class="cls-1" d="M897.77,440.33l-13-3.18,3.65,9a36,36,0,0,1,24.48-16.27c7.72-1.42,4.45-13.2-3.25-11.78A47.9,47.9,0,0,0,877.88,440a6.16,6.16,0,0,0,3.65,9l13,3.18c7.63,1.87,10.89-9.92,3.24-11.79Z" />
    <path class="cls-1" d="M900,446.08l37.66-.08c7,0,8.21-10,1.63-12L928,430.62l-5.6-1.7-3.74-1.12c-2-1.26-2.61-.66-1.71,1.78.27,3.88,1.23,1.44,3.52,0q2.19-1.38,4.48-2.58a62.4,62.4,0,0,1,10.47-4.29c6.25-2,5.55-12.59-1.63-12-12.06,1-24.71,4.35-34.74,11.4-4.34,3.05-7.09,7.73-5.22,13.05,2,5.63,8.18,7.92,13.69,7,11.2-1.93,19.31-12,30.5-13.89,5.28-.87,10.87,1.64,15.26-2.67,3.49-3.44,3.71-9.43,0-12.74-1.5-1.33-3.92-2.4-5.95-1.57-10.31,4.25-17.48,14.23-16.13,25.69l6.11-6.11-13,1c-6.52.51-8.72,10.29-1.63,12a74.39,74.39,0,0,1,30.58,15.19c4.9,4.1,14-1.34,9.6-7.4l-12-16.7c-4.57-6.36-14-1-10.55,6.16a86.64,86.64,0,0,0,22.89,29c3.8,3.13,10.64,1.41,10.43-4.32-.35-9.59-7.64-14.34-15.48-18.11-6.78-3.26-12-9.72-8.15-17.5l-11.17-4.71c-5.41,19,.94,40.7,16.31,53.27,3.84,3.15,8.78,6.21,13.33,2.37,3.47-2.93,4-8.85,3.95-13.13a32,32,0,0,0-14-25.59c-4.18-2.91-8.78,1.11-9.2,5.28a111.19,111.19,0,0,0,1.44,31.64l5.89-7.74a248.58,248.58,0,0,0-62.37,2.06l7.51,4.27c-2.16-5.19,1.94-10.2,5-14.19a93.79,93.79,0,0,1,12.17-12.87l-10.21-5.95-6.47,22.89c-1.83,6.45,8.32,11.19,11.17,4.71a87.32,87.32,0,0,1,6.27-11.92c1.91-3,5-5.76,6.7-8.76q2.81-1-1-1.84a23.86,23.86,0,0,1,.49,2.68,38.49,38.49,0,0,0,1.53,5.88,36.69,36.69,0,0,0,5,9.43c1.93,2.62,4.53,6.27,7.82,7.24a7.68,7.68,0,0,0,9.19-5A8.72,8.72,0,0,0,947,461c-2.27-2.25-5.5-3.21-3.21-6.77l-11.17-4.71a78.86,78.86,0,0,1-3.81,9.46c-.53,1.09-3.28,7.47-3.7,7.59l4.71.61-.78-.38,2.8,3.65c-1.25-4.46-.72-10-1-14.63s-6.86-8.75-10.43-4.32a70.21,70.21,0,0,0-10.89,18.72c-2.88,7.32,8.93,10.49,11.78,3.25a51.4,51.4,0,0,1,7.75-13.33l-10.43-4.32c.34,6.42-1.48,26.45,10.59,22.29,4.26-1.47,6.43-6,8.45-9.74a98.14,98.14,0,0,0,6.7-15.6c2.29-6.78-7.55-10.34-11.17-4.71a15.44,15.44,0,0,0-1.92,12.52,15.14,15.14,0,0,0,2.88,5.54,15.65,15.65,0,0,0,1.75,1.8,18.8,18.8,0,0,0,1.85,1.37q2.58,2.11.59-4.31l4.32-1.79-1,0,4.32,1.79a26.6,26.6,0,0,1-8.54-15.58c-1-5.69-4.35-10.78-10.82-10.47-6.18.29-10.45,5.37-13.85,9.93a88,88,0,0,0-10.1,17.46l11.16,4.71,6.47-22.89c1.73-6.13-5.81-9.87-10.21-5.94-9.59,8.54-26.33,24.55-20.31,38.95,1.39,3.33,3.88,4.84,7.52,4.27a235.91,235.91,0,0,1,59.12-1.63c4.28.41,6.54-4.21,5.89-7.73a100.43,100.43,0,0,1-1-28.39L952.23,453a18.69,18.69,0,0,1,7.06,9.71,19.66,19.66,0,0,1,.92,5.32,17.56,17.56,0,0,1-.22,3.4c-.22,1.25-1.23,2.09-.15,1.09l4.32-1.79c1.15,0,.24.07-.37-.58-.78-.84-1.82-1.54-2.66-2.34a37.75,37.75,0,0,1-3.76-4.13,39.64,39.64,0,0,1-6.74-34.91c1.86-6.51-8-11-11.17-4.71-4,8-3.86,17.56,1.2,25.07a25.65,25.65,0,0,0,9.9,8.46c3.35,1.71,10.69,3.63,10.86,8.25l10.43-4.32a78.51,78.51,0,0,1-21-26.55l-10.55,6.16,12,16.71,9.59-7.41a88,88,0,0,0-36-18.34l-1.62,12,13-1c3-.24,6.52-2.63,6.11-6.12-.66-5.58,1.6-11.61,7.16-13.9l-6-1.57q3.45-5.81-.79-5.4l-1.48-.17a28.31,28.31,0,0,0-4.51.09,32.57,32.57,0,0,0-8.78,2.23c-5.86,2.34-11.07,5.83-16.58,8.84a40.14,40.14,0,0,1-4.19,2.12c-.77.31-6.23,1.48-2.89,3.36.33.18,7.56-4.25,8.44-4.63a61.43,61.43,0,0,1,19.94-5l-1.62-12a78.59,78.59,0,0,0-16.4,7.21c-4.51,2.68-10,5.95-10.48,11.73-.57,6.36,5.18,8.23,10.12,9.72L936,445.79l1.62-12-37.66.08c-7.86,0-7.88,12.24,0,12.22Z" />
    <path class="cls-1" d="M489.78,659c48.31,1.93,96.23-6.28,143.39-15.88,11.2-2.28,24.1-7.15,35.19-2.43,9.48,4,17.43,8.37,28,8.82,22,.94,42.38-10.23,64.08-12,23.86-2,48.47,1.42,72.3,2.94s47.94,4,71.88,3.89a185.57,185.57,0,0,0,34.62-3.53c11.31-2.17,22.58-5,34.13-5.44,20.46-.83,42.19,11.81,61.95,2.53,4.81-2.26,8.44-6.43,13.24-8.63,5.47-2.5,11.61,1.14,16.64,3.26a339.73,339.73,0,0,0,36.36,13,343.87,343.87,0,0,0,75.8,13.1c7.85.48,7.83-11.74,0-12.22a328.07,328.07,0,0,1-67.24-11.16,332.87,332.87,0,0,1-33.16-11c-9.5-3.74-19.87-10.33-30.44-7.24-4.36,1.27-7.84,4.14-11.45,6.75a25.27,25.27,0,0,1-14.49,5.32c-10.27.35-20.24-3.19-30.28-4.8-23.47-3.77-45.35,4.58-68.42,7-23.69,2.48-47.86-.41-71.53-1.92-24.09-1.53-48.24-3.71-72.36-4.4a138.58,138.58,0,0,0-34.6,3c-10.49,2.38-20.69,5.86-31.24,8-10.15,2-20.64,2.37-30.22-2.06-4.46-2.06-8.73-4.63-13.47-6-5.53-1.64-11.28-1.48-16.93-.67-13.07,1.87-26,5.2-39,7.7-13.49,2.61-27,5-40.62,7-27.2,4-54.7,6.1-82.19,5-7.87-.32-7.85,11.9,0,12.22Z" />
    <path class="cls-1" d="M597.89,636.8a82.75,82.75,0,0,0,37.8-4.17,103.26,103.26,0,0,0,15.44-7.31c6.73-3.78,10.89-3.75,18.2-1.47,12.91,4,26.33,3.67,39.72,3.75,13.87.09,27.79-.15,41.58-1.87A177.84,177.84,0,0,0,769,622.59c6.39-1.48,12.72-3.7,19.26-4.4,6.75-.73,13.22.7,19.75,2.19l21,4.82,41,9.43c13.42,3.08,27.29,6.56,41.17,5.23,15.19-1.45,29.35-7.3,44.73-7.87,16.23-.59,32.34,1.92,48.31,4.49,7.69,1.23,11-10.54,3.25-11.79-13.9-2.23-27.87-4.48-42-4.93S938,621.57,924.28,625c-6.26,1.57-12.47,2.9-19,2.93-8,0-15.76-1.43-23.5-3.13-13.7-3-27.35-6.27-41-9.41-13.31-3.06-26.71-6.92-40.22-8.92s-25.51,2.47-38.55,5.14c-13.67,2.8-27.67,3.57-41.6,3.75-6.32.08-12.65,0-19-.05-7.62-.09-15.48.15-23-1.56-6.65-1.52-12.93-4.58-19.93-4-6.71.55-12.2,4.43-18,7.48-13.13,6.91-28,9.12-42.68,7.35-7.79-1-7.73,11.28,0,12.22Z" />
    <path class="cls-1" d="M525.43,669.05a1136.89,1136.89,0,0,0,125.73-14.61c7.07-1.22,4.94-11.69-1.63-12a92.07,92.07,0,0,0-34.45,4.9c-7.37,2.53-4.42,13.89,3.25,11.78l59.17-16.27-3.25-11.79q-21.11,7.8-42.21,15.59c-12.31,4.54-25.62,9.64-38.62,4.9l3.65,9c3.81-6.53,12.44-7.77,19.34-8.42,10.91-1,21.88-1.6,32.82-2.07q33.46-1.45,67-.21V637.6c-27.21,1.28-54.87,2.75-80.73,12.06-7.48,2.69-4.48,13.07,3.25,11.78A1140.77,1140.77,0,0,1,843,646.22V634l-73,5c-7.76.53-8,12.27,0,12.22q120.62-.78,241-9.91c7.75-.59,8-12.11,0-12.22a256.83,256.83,0,0,0-64,7.19c-6.58,1.59-5.34,12.5,1.62,12l105.56-7.53c7.78-.56,7.89-12.69,0-12.22l-50.92,3c-7.82.46-7.88,12.66,0,12.22q34.34-1.95,68.73-1V630.55a57.39,57.39,0,0,0-24,6.91c-4.62,2.51-3.54,9.86,1.46,11.16a143.29,143.29,0,0,0,46.88,4.33l-1.63-12a53.45,53.45,0,0,1-20.86.25l2.7,10.21a13.39,13.39,0,0,1,6.24-3.87c7.53-2.21,4.32-14-3.25-11.78a25.76,25.76,0,0,0-11.64,7c-3,3.08-2,9.33,2.7,10.21a69.05,69.05,0,0,0,27.36-.25c6.67-1.39,5.28-12.51-1.62-12a133,133,0,0,1-43.63-3.89l1.46,11.17a42.93,42.93,0,0,1,17.88-5.24c7.79-.51,7.93-12,0-12.22q-34.38-.93-68.73,1v12.22l50.92-3V628.54L948.6,636.07l1.63,12a243.18,243.18,0,0,1,60.75-6.76V629.09Q890.71,638.21,770,639v12.22l73-5c7.78-.53,7.95-12.1,0-12.22a1158.57,1158.57,0,0,0-207.51,15.66l3.25,11.78c24.9-9,51.28-10.39,77.48-11.61,7.84-.37,7.89-11.94,0-12.23q-37.43-1.33-74.84.59c-10.89.58-22,.85-32.79,2.72-8.9,1.54-17.35,5.39-22.05,13.45-2.12,3.63,0,7.64,3.65,9,13.83,5,28.39,1.17,41.69-3.63,15.25-5.51,30.43-11.23,45.64-16.85,7.26-2.68,4.47-13.91-3.25-11.79l-59.17,16.28,3.25,11.78a82.51,82.51,0,0,1,31.2-4.46l-1.62-12a1107.39,1107.39,0,0,1-122.48,14.18c-7.82.47-7.87,12.69,0,12.22Z" />
    <path class="cls-1" d="M913.94,461.78l-17.52.16c-3.14,0-6.32,2.78-6.11,6.11.08,1.15-.15,1.09-1.28.63l1.46,11.17,33.06-14.79c9.25-4.14,20.6-7.61,27.5-15.47,6.5-7.41,8-18.31,7.19-27.86-1-12.68-16.22-9.53-25.22-9.48-7.87,0-7.88,12.26,0,12.22l7.51,0c1.54,0,4.13.49,5.63,0q4,.68-.09-2.14c0,.74,0,1.48,0,2.22,0,1.67,0,3.34-.12,5-.56,8.84-4.32,13.64-12.09,17.55-16.12,8.13-33.06,14.89-49.54,22.27-5.37,2.4-2.8,9.45,1.46,11.17,8.07,3.24,17.3-3.92,16.75-12.42l-6.11,6.11,17.52-.16c7.86-.07,7.88-12.29,0-12.22Z" />
    <path class="cls-1" d="M572.9,518.73c9-2.17,17.9-7.44,19.34-17.37a15.14,15.14,0,0,0-3.25-12c-2-2.52-6.38-4.57-7-7.83-1.42-7.73-13.21-4.46-11.79,3.24a14.31,14.31,0,0,0,3.74,7.07c1.61,1.77,4.39,3.2,5.64,5.26,3.47,5.72-6.2,8.93-10,9.84-7.64,1.84-4.4,13.62,3.25,11.78Z" />
    <path class="cls-1" d="M882.13,449.83a159.39,159.39,0,0,0-19.24,37.94c-5.06,14.7-10.78,29.13-16.19,43.7-10.5,28.28-19.07,58.32-15.15,88.77.42,3.3,2.5,6.07,6.11,6.11,3,0,6.53-2.84,6.11-6.11-3.8-29.5,4.54-58.13,14.72-85.53,5.08-13.69,10.54-27.23,15.28-41.05,2.31-6.75,4.57-13.53,7.87-19.88a186.18,186.18,0,0,1,11-17.79c4.41-6.54-6.17-12.66-10.55-6.16Z" />
    <path class="cls-1" d="M883.75,440c-1.49.14,2-3.4,2.08-3.49,1.39-1.13,2.94-2.12,4.43-3.12a50.77,50.77,0,0,1,10.28-5.61c4.86-1.84,2.75-9.72-2.16-7.85a57.11,57.11,0,0,0-11.64,6c-3.15,2.09-6.74,4.26-9.12,7.26-4.39,5.55-2.4,15.73,6.13,14.93,5.18-.48,5.23-8.64,0-8.15Z" />
    <path class="cls-1" d="M883.21,440.49c-2.52-.26,1.1-5.9,1.7-6.48,2.1-2,5-3.57,7.41-5.19,5-3.37,8.37-5.55,14.63-5.51,5.24,0,5.25-8.11,0-8.14-5.42,0-9.89.77-14.49,3.76s-10.36,6-14.18,10.09c-5.91,6.33-5,18.59,4.93,19.62,5.21.54,5.17-7.61,0-8.15Z" />
    <path class="cls-1" d="M883.09,439.87a27,27,0,0,1-3.08-.62c.81.93.61-1.28.62-1.39.2-3.2-.77-5,2.7-6.67,4.41-2.17,9.49-2.66,14.31-3.15,5.17-.53,5.22-8.68,0-8.15-7.52.77-20.15,1.59-24.4,9.15-1.83,3.26-1.12,9.14-.34,12.64,1,4.64,4.1,4.84,8,6.05,5,1.54,7.17-6.32,2.17-7.86Z" />
    <path class="cls-1" d="M884.92,449.17a90,90,0,0,0,14.64-3.81c4.25-1.63,8.21-3.94,12.49-5.49,7.19-2.61,15-2.95,21.35-7.63,4.17-3.07.11-10.15-4.12-7-6.15,4.54-14.15,4.68-21.09,7.46-4,1.58-7.69,3.68-11.68,5.16a91.54,91.54,0,0,1-13.76,3.49c-5.14,1-3,8.88,2.17,7.85Z" />
    <path class="cls-1" d="M882,440.3c-.15,0-1,0-.3,0s0-.05-.14-.08c-.44-.1.68.4.09,0l.38.29c-.25-.26-.27-.26-.07,0s.19.26.07.08a1.28,1.28,0,0,1-.15-.25c-.31-.41.43.72.05.07l-.05-.28.08.53c-.09-.87-.21.81,0,0a4.07,4.07,0,1,0-7.85-2.17,8.07,8.07,0,0,0,1.46,7,7.78,7.78,0,0,0,6.44,3,4.07,4.07,0,1,0,0-8.14Z" />
    <path class="cls-1" d="M878.61,477.4c0,7,4,17.29,12,18.28,4.42.55,8.2-1.67,11.65-4.14a106.79,106.79,0,0,1,14.2-8.33c4.68-2.36.56-9.39-4.11-7A112.39,112.39,0,0,0,897.46,485c-2.64,1.87-5.78,3.89-8.22.55a15.53,15.53,0,0,1-2.49-8.15c0-5.24-8.17-5.25-8.14,0Z" />
    <path class="cls-1" d="M647.94,380c5.24,0,5.25-8.15,0-8.15s-5.25,8.15,0,8.15Z" />
    <path class="cls-1" d="M648.62,380c5.24,0,5.25-8.15,0-8.15s-5.25,8.15,0,8.15Z" />
    <path class="cls-1" d="M735.2,519.06c1.25-4.71,3-12.73-.86-16.74-3.44-3.58-12-4.17-16.55-3.44-6.26,1-11.94,5.23-17.68,7.72a66.63,66.63,0,0,1-21.62,5.68c-5.2.37-5.24,8.52,0,8.15,9.92-.71,19.17-3.73,28.15-7.89,4.32-2,9.08-5.66,13.94-5.76,1.41,0,6.49.11,7.48,1.27,1.45,1.69-.23,7-.71,8.84-1.34,5.07,6.51,7.24,7.85,2.17Z" />
    <path class="cls-1" d="M539.9,522.81l-.39-2L535.58,526c8.23-.69,16.58,2.83,24.62-.24,5.7-2.17,9.94-7.92,7.94-14.11-1.6-5-9.47-2.85-7.85,2.16,2.62,8.12-21.15,3.74-24.71,4a4.15,4.15,0,0,0-3.93,5.15l.39,2c1,5.15,8.86,3,7.86-2.16Z" />
    <path class="cls-1" d="M592.3,501.34c2,3.48,4.57,8.58,4,12.78-.7,5.12-10.62,3.08-14.37,2.71-9.63-.93-18.64-1.85-27.76,2.06-4.8,2.06-.65,9.08,4.12,7,6.56-2.81,13.85-1.94,20.74-1.24,6.06.62,14.35,2.22,20-.74,9.7-5.06,4.35-19.72.27-26.71-2.64-4.52-9.69-.43-7,4.11Z" />
    <path class="cls-1" d="M554.24,522.41a21.28,21.28,0,0,1,8.56-3.6c2.16-.4,3.39-3,2.84-5a4.15,4.15,0,0,0-5-2.84,26.9,26.9,0,0,0-10.5,4.42,4.19,4.19,0,0,0-1.47,5.57c1.05,1.78,3.77,2.73,5.58,1.46Z" />
    <path class="cls-1" d="M652.24,379.51h1.36a4.2,4.2,0,0,0,2.88-1.19,4.07,4.07,0,0,0-2.88-6.95h-1.36a4.18,4.18,0,0,0-2.88,1.19,4.07,4.07,0,0,0,2.88,6.95Z" />
    <path class="cls-1" d="M582.13,471.29a32.42,32.42,0,0,0,10.1,4.41c.79.19,1.61.31,2.39.52.56.16,1.83,1,1.38-.12s-1.19-.17-2.16.23l-3.4,1.4c-2.05.84-3.45,2.7-2.84,5,.5,1.93,3,3.68,5,2.85,5.18-2.14,14.93-5.17,10.58-12.81-1.59-2.79-4.36-3.92-7.34-4.62a28.9,28.9,0,0,1-9.61-3.91c-4.4-2.86-8.49,4.19-4.11,7Z" />
    <path class="cls-1" d="M660.09,635.32c16.21-2.8,32.82.89,48.9,2.9,16.91,2.12,33.06,1,49.72-2.42,25.65-5.31,59.64-16.78,82.6,2.28,8,6.65,19.6-4.81,11.52-11.52-26.35-21.87-60.68-14.85-91.22-8-17.75,4-34.49,5.69-52.62,3.41-17.87-2.25-35.24-5.43-53.24-2.32-4.33.74-6.77,6.07-5.69,10,1.27,4.59,5.67,6.44,10,5.69Z" />
    <path class="cls-1" d="M1038.6,621.19c-33.77.52-67.56,1.36-101.33,1.39-16.86,0-33.73-.33-50.55-1.62-15.21-1.17-30.77-2.88-44.71-9.53-13.72-6.56-26.37-13.77-42.08-13.41-15.22.35-29.57,5.85-44.1,9.72-15.19,4-30.13,4.15-45.58,1.48-16.35-2.84-32.48-7.87-49-9.24-18.54-1.52-35.7,8.37-52.31,15.28L555,637.69c-4.06,1.69-7,5.4-5.69,10,1.06,3.84,5.94,7.4,10,5.69L605.92,634l23.74-9.88c7.07-2.95,14.44-6.78,22.11-7.84,8.08-1.1,16.47.87,24.35,2.47s15.49,3.4,23.27,4.94c15.91,3.15,31.93,5.06,48.05,2.52,14.64-2.3,28.41-8.17,42.95-10.9,6.82-1.28,14-1.58,20.75.15,6.94,1.77,13.16,5.29,19.52,8.48,28.92,14.5,63,14.5,94.7,14.86,37.73.42,75.51-.76,113.24-1.33,10.47-.16,10.5-16.46,0-16.3Z" />
    <path class="cls-1" d="M884.3,639a416.21,416.21,0,0,0,48-1c7.75-.62,15.74-1.1,23.32-2.86,7.23-1.67,12.84-6.27,19.69-8.64,13-4.51,27.26,6.23,39.67,9.08,12.1,2.78,25.62,2.07,34.59-7.52,7.15-7.66-4.35-19.21-11.53-11.52s-19.36,3.7-27.7.52c-13-5-27-11-41-5.68-6.24,2.41-11.51,6.53-18.09,8-6.8,1.57-14,1.9-20.9,2.42a417.65,417.65,0,0,1-46.13.85c-10.48-.38-10.47,15.91,0,16.29Z" />
    <path class="cls-1" d="M1058.54,617.72c-13.23-7.19-26.44-2.1-40.47-2.55-7.92-.25-15.49-3.25-23.22-4.73a98.66,98.66,0,0,0-22-1.74c-29.89,1-58,13.65-87.85,14.59-10.46.33-10.51,16.62,0,16.29,28.8-.91,55.79-12.54,84.39-14.41a83.62,83.62,0,0,1,20.3.82c7.34,1.34,14.43,3.75,21.82,4.81,7,1,13.57.42,20.51-.35,6.06-.68,12.74-1.69,18.32,1.34,9.22,5,17.45-9,8.23-14.07Z" />
    <path class="cls-1" d="M649.41,631.2c16.54.16,35.26,1.34,49.34,10.85,3.63,2.45,7-3.43,3.43-5.86-15-10.15-35.12-11.61-52.77-11.78-4.37,0-4.38,6.75,0,6.79Z" />
    <path class="cls-1" d="M598.34,617.76c-7.27-.29-14.58-.51-21.78.77-8,1.42-13.89,5.66-21.06,9.1-14.53,7-32.68,8.32-48.54,7.91-4.37-.11-4.37,6.68,0,6.79,15.51.4,31.91-1.25,46.58-6.58,7.19-2.61,13.25-7.66,20.63-9.73,7.85-2.19,16.12-1.79,24.17-1.47,4.37.18,4.36-6.61,0-6.79Z" />
    <path class="cls-1" d="M552.2,639.77a35.58,35.58,0,0,0,15.13-2.53c4.87-2,9.48-6.57,15-6.13v-6.79a73.5,73.5,0,0,0-22,5.11l2.62,6.2a50,50,0,0,1,23.89-5.9c3.76,0,4.7-5.78.9-6.67l-9.21-2.14v6.55a113.24,113.24,0,0,1,43.75-6.37c4.37.22,4.36-6.57,0-6.79a118.37,118.37,0,0,0-45.55,6.61c-3,1.05-3.48,5.73,0,6.55l9.21,2.14.9-6.67a57.49,57.49,0,0,0-27.32,6.83c-3.32,1.77-1,7.67,2.62,6.21a67.36,67.36,0,0,1,20.15-4.87,3.4,3.4,0,0,0,0-6.79c-4.83-.39-8.68,1.76-12.72,4.14A30.55,30.55,0,0,1,552.2,633c-4.37-.17-4.37,6.62,0,6.79Z" />
    <path class="cls-1" d="M511.94,641c4.47.33,9.06.57,13.4-.81,4.87-1.56,8.57-4,13.9-4.16,10.17-.35,20.44.28,30.61.46,4.37.08,4.37-6.71,0-6.79-10.17-.18-20.44-.81-30.61-.46a30.12,30.12,0,0,0-11.61,2.59c-5.35,2.4-9.88,2.81-15.69,2.38-4.36-.32-4.34,6.47,0,6.79Z" />
    <path class="cls-1" d="M703.82,367.83l-5.16-.06c-4.51-.06-5.64,7-1.08,8a13.88,13.88,0,0,1,5.54,2.37,4.11,4.11,0,0,0,5.58-1.46,4.17,4.17,0,0,0-1.47-5.57,22,22,0,0,0-7.49-3.2l-1.08,8,5.16.06a4.11,4.11,0,0,0,4.07-4.07,4.16,4.16,0,0,0-4.07-4.08Z" />
    <path class="cls-1" d="M565.49,509.21l3-2.39-6.81-4a34.41,34.41,0,0,1-11.35,19.07l7,2.88-.17-7.61c-.12-5.23-8.27-5.25-8.15,0l.17,7.61a4.12,4.12,0,0,0,6.95,2.88A41.68,41.68,0,0,0,569.59,505c.93-4.23-3.67-6.42-6.81-4l-3,2.39c-4.13,3.23,1.67,9,5.76,5.76Z" />
</svg>
