
<svg width="212px" height="115px" viewBox="0 0 212 115" version="1.1" xmlns="http://www.w3.org/2000/svg" xmlns:xlink="http://www.w3.org/1999/xlink">
    <g id="Page-1" stroke="none" stroke-width="1" fill="none" fill-rule="evenodd">
        <g id="tablespoon">
            <path d="M35.09,114.62 C44.9499971,115.115078 54.8306787,115.024919 64.68,114.35 C72.12,113.81 79.59,112.79 85.42,107.78 C87.42,106.08 84.53,103.23 82.57,104.92 C76.27,110.32 66.91,110.27 59.06,110.64 C51.21,111.01 43.06,110.96 35.06,110.58 C32.46,110.45 32.47,114.49 35.06,114.58 L35.09,114.62 Z" id="Path" fill="#010101"></path>
            <path d="M102.46,73.31 C103.231575,70.8040459 102.409341,68.0803945 100.38,66.42 C98.17,64.52 95.2,64.18 92.38,64.1 C89.78,64.02 89.78,68.1 92.38,68.1 C94.59,68.17 99.77,68.75 98.55,72.21 C97.68,74.67 101.55,75.72 102.44,73.28 L102.46,73.31 Z" id="Path" fill="#010101"></path>
            <path d="M33.15,67.45 C24.87,67.55 22.6,73.15 17.03,77.92 C12.1819956,81.8888337 9.74652306,88.093039 10.6,94.3 C10.94,96.84 14.98,96.87 14.6,94.3 C13.8,88.25 16.15,84.07 20.6,80.22 C24.86,76.54 26.6,71.57 33.11,71.49 C35.71,71.49 35.71,67.42 33.11,67.49 L33.15,67.45 Z" id="Path" fill="#010101"></path>
            <path d="M11,95.44 C13.57,105.38 24.23,112.9 34,114.55 C36.55,114.98 37.64,111.09 35.08,110.65 C26.71,109.25 17.08,102.92 14.87,94.37 C14.22,91.85 10.32,92.92 10.97,95.44 L11,95.44 Z" id="Path" fill="#010101"></path>
            <path d="M114.2,69.27 C129.79,56.81 150.2,52.65 167.86,43.93 C177.23,39.31 186.23,33.93 195.13,28.53 C201.48,24.64 209.57,20.67 211.05,12.62 C211.52,10.08 207.63,8.99 207.16,11.54 C205.54,20.32 192.84,25.26 185.99,29.34 C177.335739,34.6093037 168.380419,39.3674435 159.17,43.59 C142.96,50.82 125.45,55.14 111.34,66.41 C109.34,68.04 112.19,70.88 114.2,69.27 Z" id="Path" fill="#010101"></path>
            <path d="M210.89,11.65 C211.3,4.76 201.4,0.72 195.72,0.37 C187.54,-0.13 178.24,4.37 172.47,9.92 C170.59,11.73 173.47,14.58 175.32,12.78 C179.290358,9.11268351 184.123438,6.50866838 189.37,5.21 C192.562412,4.18066299 195.997588,4.18066299 199.19,5.21 C201.56,6.05 207.04,8.41 206.85,11.61 C206.7,14.21 210.74,14.2 210.85,11.61 L210.89,11.65 Z" id="Path" fill="#010101"></path>
            <path d="M172.59,9.6 C159.16,18.84 143.98,24.85 131.21,35.13 C124.34,40.66 117.74,45.86 109.73,49.67 C102.35,53.17 94.92,56.58 87.51,60.04 C85.16,61.13 87.21,64.62 89.51,63.52 C96.91,60.07 104.35,56.66 111.73,53.15 C118.748682,49.6518406 125.313936,45.3097058 131.28,40.22 C144.71,29.29 160.43,22.83 174.59,13.09 C176.72,11.63 174.7,8.09 172.59,9.6 Z" id="Path" fill="#010101"></path>
            <path d="M85.61,108 C93.61,104 101.28,97.14 107.02,90.33 C112.2,84.2 115.63,76.8 114.75,68.63 C114.47,66.08 110.43,66.05 110.75,68.63 C111.66,77.08 107.53,84.19 101.82,90.1 C96.52,95.57 90.44,101.1 83.61,104.51 C81.28,105.68 83.33,109.17 85.61,108 Z" id="Path" fill="#010101"></path>
            <path d="M28.53,91.13 C29.64,90.97 31.29,92.35 32.27,92.76 C33.6905384,93.3509164 35.1896351,93.7315859 36.72,93.89 C40.36,94.29 44.03,93.56 47.72,93.89 C55.65,94.5 62.72,95.19 70.48,92.89 C77.74,90.75 84.48,87.06 90.73,82.89 C95.91,79.51 101.57,75.63 97.26,69.01 C93.97,63.94 90.8,59.86 84.65,58.8 C77.15,57.52 70.03,59.01 62.7,60.51 C54.92,62.11 47.27,63.12 39.76,65.84 C37.21,66.77 33.95,67.52 31.92,69.47 C29.89,71.42 29.31,74.86 27.82,77.37 C26.09,80.3 22.5,82.5 22.16,86.11 C22.0108498,88.6408403 23.4053281,91.0110584 25.69,92.11 C32.56,95.91 42.51,92.11 49.19,89.74 C54,88 51.92,80.24 47,82 C43.7115112,83.2820135 40.3278811,84.305127 36.88,85.06 C34.88,85.41 32.95,85.06 31.05,85.39 L30.45,86.93 C31.0013036,86.4100538 31.5190132,85.8556035 32,85.27 C33.6667904,83.3095357 35.0502756,81.1249083 36.11,78.78 C36.61,77.67 36.93,75.92 37.91,75.09 C38.89,74.26 41.6,73.7 42.71,73.3 C49.4,70.93 56.18,69.96 63.11,68.62 C69.73,67.33 77.46,64.77 84.19,66.87 C86.19,67.49 89.25,70.26 89.88,72.45 C90.34,74.08 89.88,73.85 88.18,74.96 C86.93,75.79 85.68,76.62 84.41,77.41 C78.1,81.41 71.41,84.79 63.99,86.17 C57.31,87.41 50.99,85.57 44.36,85.68 C40.36,85.74 37.42,86.07 33.63,84.46 C31.404876,83.346781 28.8838136,82.9686217 26.43,83.38 C21.33,84.13 23.49,91.88 28.56,91.13 L28.53,91.13 Z" id="Path" fill="#FEEB3D"></path>
            <path d="M39.72,86.11 C41.12,79.25 53.06,73.69 59.07,72.03 C66.27,70.03 78.85,67.89 84.26,74.31 L83.08,71.46 L83.08,72.13 L85.08,68.66 C81.96,70.42 77.35,70.81 73.88,71.76 L63.39,74.6 C56.03,76.6 48.69,78.45 41.03,78.82 C35.88,79.06 35.84,86.69 41.03,86.82 C49.03,87.06 52.38,80.39 58.3,76.41 C61.5092714,74.2793216 65.1745696,72.9330952 69,72.48 C71.4,72.19 77.12,72.08 78.1,73.3 L77.1,69.39 C76.66,71.39 65.35,72.57 63.59,72.95 L47.29,76.48 L50.38,83.82 C57.38,80.23 70.91,72.15 78.57,78.11 L78.57,72.43 C69.7,81.01 58.64,78.55 47.42,79.33 C42.28,79.68 42.24,87.72 47.42,87.33 C54.76,86.82 62.24,87.95 69.49,86.33 C75.0831495,84.9973024 80.1964085,82.1377547 84.26,78.07 C85.68,76.7 85.96,73.71 84.26,72.39 C72.69,63.39 57.58,71.09 46.33,76.84 C42.11,79 45.14,85.12 49.42,84.19 C58.71,82.19 68.42,80.79 77.54,78.07 C82.69,76.54 88.75,69.99 81.96,66.07 C76.35,62.82 67.11,64.07 61.33,66.07 C58.0502343,67.2042773 54.9742775,68.8587436 52.22,70.97 C48.83,73.59 45.74,78.97 41.06,78.78 L41.06,86.78 C49.44,86.38 57.5,84.46 65.56,82.28 L78,79 C81.6,78 86,77.45 89.2,75.61 C90.4394311,74.8944162 91.2021095,73.5711692 91.2,72.14 C91.04,67.46 84.99,63.8 80.89,62.72 C74.73,61.11 66.64,62.38 60.49,63.5 C54.1753379,64.7212955 48.2051971,67.3121113 43,71.09 C38.37,74.37 33.22,78.09 32,83.98 C31,89.03 38.72,91.19 39.76,86.11 L39.72,86.11 Z" id="Path" fill="#FEEB3D"></path>
            <path d="M43,97.23 C55.92,98.3 68.22,95.8 80.18,90.97 C88.89,87.45 99.27,83.69 102.33,73.89 C103.11,71.41 99.21,70.34 98.44,72.82 C95.49,82.24 82.3,86.09 73.99,89.02 C64.0735372,92.6099231 53.5026122,94.031883 42.99,93.19 C40.4,92.97 40.42,97.01 42.99,97.19 L43,97.23 Z" id="Path" fill="#010101"></path>
            <path d="M30.4,78.88 C25.02,80.44 16.92,84.67 20.08,91.55 C21.38,94.38 24.2,95.41 27.08,95.77 C32.3,96.42 37.58,96.6 42.81,97.23 C45.38,97.54 45.36,93.5 42.81,93.23 C37.99,92.65 33.15,92.41 28.32,91.89 C25.24,91.57 21.57,89.27 24.83,86.06 C26.53,84.38 29.24,83.46 31.46,82.82 C33.95,82.1 32.89,78.2 30.38,78.92 L30.4,78.88 Z" id="Path" fill="#010101"></path>
            <path d="M31.17,87.45 C31.3851277,85.7507627 32.0134581,84.1301508 33,82.73 C34.33,81.02 34.66,78.73 33,77.04 C31.34,75.35 29,75.68 27.31,77.04 C24.6267251,79.3300879 23.0568962,82.6627873 23,86.19 C22.94,88.57 24,90.94 26.44,91.62 C28.53,92.19 30.92,91.4 32.73,90.38 C37.24,87.84 33.19,80.9 28.67,83.44 C28.3386958,83.6897406 27.9187501,83.7911068 27.51,83.72 L29.51,84.27 L29.16,84.05 L31.01,86.45 C31.19,87.1 31.11,85.32 31.01,85.9 C31.1003523,85.4720895 31.2206483,85.0510535 31.37,84.64 C31.2,85.01 32.07,83.52 31.72,83.99 C32.0895156,83.5156408 32.5198808,83.092 33,82.73 L27.35,77 C25.3774038,79.3899824 24.0272332,82.2311812 23.42,85.27 C22.894659,87.4018163 24.1291366,89.5720368 26.23,90.21 C28.17,90.75 30.79,89.55 31.17,87.41 L31.17,87.45 Z" id="Path" fill="#FEEB3D"></path>
            <path d="M97.46,68.36 C95.3234632,65.6951508 92.3790182,63.7965278 89.07,62.95 C86.936693,62.413816 84.7594051,63.6523137 84.13,65.76 C83.67,67.76 84.73,70.27 86.94,70.76 C87.83689,70.8923422 88.678731,71.2734225 89.37,71.86 C89.48,71.94 90.15,72.51 90.46,72.79 C90.9341767,73.1908255 91.3755803,73.6288851 91.78,74.1 C93.14,75.79 96.04,75.52 97.46,74.1 C99.13,72.43 98.83,70.1 97.46,68.41 L97.46,68.36 Z" id="Path" fill="#FEEB3D"></path>
            <path d="M16.73,66.84 L3,54.81 C1.7,53.68 -0.21,55.57 1.1,56.72 L14.83,68.72 C16.12,69.85 18.04,67.96 16.73,66.81 L16.73,66.84 Z" id="Path" fill="#FEEB3D"></path>
            <path d="M35.3,56.28 C33.3055456,50.9089721 30.1662583,46.0362522 26.1,42 C25.5663835,41.530257 24.7599083,41.5548417 24.2558953,42.0562158 C23.7518824,42.55759 23.7230646,43.363925 24.19,43.9 C27.9415304,47.5991409 30.8450898,52.0687799 32.7,57 C33.31,58.61 35.91,57.91 35.3,56.28 Z" id="Path" fill="#FEEB3D"></path>
            <path d="M56.25,53 C56.6459697,44.8669454 55.5374006,36.7306579 52.98,29 C52.44,27.36 49.84,28.06 50.38,29.72 C52.8641916,37.2178964 53.9389651,45.1108705 53.55,53 C53.47,54.73 56.17,54.73 56.25,53 Z" id="Path" fill="#FEEB3D"></path>
            <path d="M75.63,51.76 C75.6632562,45.3293546 77.1251613,38.9864627 79.91,33.19 C80.66,31.63 78.33,30.26 77.59,31.83 C74.5807942,38.0465732 72.9891735,44.8536551 72.93,51.76 C72.93,52.5055844 73.5344156,53.11 74.28,53.11 C75.0255844,53.11 75.63,52.5055844 75.63,51.76 Z" id="Path" fill="#FEEB3D"></path>
            <path d="M89.2,50.5 L98.01,42.17 C99.27,40.98 97.37,39.08 96.11,40.27 L87.3,48.59 C86.03,49.79 87.94,51.69 89.2,50.5 Z" id="Path" fill="#FEEB3D"></path>
            <path d="M40.22,75.47 C45.78,71.41 52.22,70.16 58.92,69.63 C66.56,69.04 74.13,68.76 81.68,70.25 C83.9871783,70.79832 86.3525292,69.597845 87.2720074,67.4119158 C88.1914855,65.2259866 87.3954194,62.6957092 85.39,61.43 C73.7,53.24 55.52,56.2 43.46,62.29 C37.91,65.09 42.79,73.41 48.32,70.62 C53.13,68.2 59.55,66.95 64.86,66.36 C70.53,65.73 75.79,66.44 80.53,69.76 L84.24,60.95 C75.3,59.19 66.34,59.28 57.3,60.12 C49.49,60.84 41.8,62.42 35.36,67.12 C30.36,70.75 35.2,79.12 40.22,75.45 L40.22,75.47 Z" id="Path" fill="#FEEB3D"></path>
        </g>
    </g>
</svg>
